<svg width="18" height="18" viewBox="0 0 18 18" fill="none" xmlns="http://www.w3.org/2000/svg">
<path d="M16 7.206C15.703 7.368 15.362 7.461 15 7.461C14.103 7.461 13.295 6.869 13.007 6.023L12.739 5.219L11.941 4.955C11.071 4.67 10.5 3.858 10.5 2.961C10.5 2.62 10.582 2.292 10.732 2H4.75C3.231 2 2 3.231 2 4.75V13.25C2 14.77 3.231 16 4.75 16H13.25C14.769 16 16 14.77 16 13.25V7.206Z" fill="white" fill-opacity="0.4"/>
<path d="M10.657 7.01106L9.395 6.58106L8.974 5.31006C8.837 4.90006 8.162 4.90006 8.025 5.31006L7.604 6.58106L6.342 7.01106C6.138 7.07106 6 7.27006 6 7.48006C6 7.70006 6.138 7.89106 6.342 7.96106L7.604 8.38106L8.025 9.66006C8.093 9.86006 8.285 10.0001 8.5 10.0001C8.715 10.0001 8.906 9.86006 8.975 9.66006L9.396 8.38106L10.658 7.96106C10.862 7.89106 11 7.70006 11 7.48006C11 7.27006 10.861 7.07106 10.657 7.01106Z" fill="white"/>
<path d="M11.75 12C12.164 12 12.5 11.66 12.5 11.25C12.5 10.84 12.164 10.5 11.75 10.5C11.336 10.5 11 10.84 11 11.25C11 11.66 11.336 12 11.75 12Z" fill="white"/>
<path d="M17.589 2.39105L16.074 1.88105L15.569 0.370046C15.405 -0.118954 14.594 -0.118954 14.43 0.370046L13.925 1.88105L12.41 2.39105C12.165 2.47105 12 2.70105 12 2.96105C12 3.22105 12.165 3.45105 12.41 3.53105L13.925 4.03105L14.43 5.55005C14.512 5.79005 14.742 5.96105 15 5.96105C15.258 5.96105 15.487 5.79005 15.57 5.55005L16.075 4.03105L17.59 3.53105C17.835 3.45105 18 3.22005 18 2.96105C18 2.70105 17.834 2.47005 17.589 2.39105Z" fill="white"/>
</svg>
