<svg width="18" height="18" viewBox="0 0 18 18" fill="none" xmlns="http://www.w3.org/2000/svg">
<path d="M8.3348 1.74304C8.4138 2.14904 8.1488 2.54304 7.7418 2.62204C6.8918 2.78804 6.0998 3.12104 5.4028 3.58504C5.0578 3.81504 4.5918 3.72204 4.3628 3.37704C4.1328 3.03204 4.2268 2.56604 4.5708 2.33704C5.4298 1.76504 6.4058 1.35404 7.4558 1.15004C7.8618 1.07104 8.2558 1.33604 8.3348 1.74304Z" fill="white"/>
<path d="M3.38717 4.35104C3.73217 4.58104 3.82417 5.04704 3.59317 5.39104C3.11917 6.10004 2.78117 6.90504 2.61617 7.77204C2.53817 8.17904 2.14517 8.44604 1.73817 8.36804C1.33117 8.29004 1.06517 7.89704 1.14217 7.49004C1.34717 6.42104 1.76317 5.42904 2.34717 4.55704C2.57717 4.21304 3.04317 4.12004 3.38717 4.35104Z" fill="white" fill-opacity="0.4"/>
<path d="M9.66481 1.74304C9.74381 1.33604 10.1378 1.07104 10.5438 1.15004C11.5938 1.35404 12.5698 1.76504 13.4288 2.33704C13.7728 2.56604 13.8668 3.03204 13.6368 3.37704C13.4078 3.72204 12.9418 3.81504 12.5968 3.58504C11.8998 3.12104 11.1078 2.78804 10.2578 2.62204C9.85081 2.54304 9.58581 2.14904 9.66481 1.74304Z" fill="white" fill-opacity="0.4"/>
<path d="M14.6128 4.35104C14.9568 4.12004 15.4228 4.21304 15.6528 4.55704C16.2368 5.42904 16.6528 6.42104 16.8578 7.49004C16.9348 7.89704 16.6688 8.29004 16.2618 8.36804C15.8548 8.44604 15.4618 8.17904 15.3838 7.77204C15.2188 6.90504 14.8808 6.10004 14.4068 5.39104C14.1758 5.04704 14.2688 4.58104 14.6128 4.35104Z" fill="white"/>
<path d="M13.6368 14.623C13.8668 14.968 13.7728 15.434 13.4288 15.663C12.5698 16.235 11.5938 16.646 10.5438 16.85C10.1378 16.929 9.74381 16.664 9.66481 16.258C9.58581 15.851 9.85081 15.457 10.2578 15.378C11.1078 15.212 11.8998 14.879 12.5968 14.415C12.9418 14.185 13.4078 14.279 13.6368 14.623Z" fill="white"/>
<path d="M16.2618 9.63204C16.6688 9.71004 16.9348 10.103 16.8578 10.51C16.6528 11.579 16.2368 12.572 15.6528 13.443C15.4228 13.788 14.9568 13.88 14.6128 13.649C14.2688 13.419 14.1758 12.953 14.4068 12.609C14.8808 11.901 15.2188 11.095 15.3838 10.228C15.4618 9.82104 15.8548 9.55504 16.2618 9.63204Z" fill="white" fill-opacity="0.4"/>
<path d="M1.73785 9.632C2.14485 9.555 2.53785 9.822 2.61585 10.228C2.75285 10.95 3.00985 11.627 3.36485 12.242C3.36885 12.249 3.37385 12.257 3.37785 12.265C3.56385 12.614 3.62385 13.019 3.62585 13.392C3.62685 13.775 3.56785 14.183 3.46485 14.58C3.39985 14.83 3.31385 15.087 3.20885 15.339C3.32185 15.312 3.43485 15.282 3.54685 15.249C4.15985 15.071 4.68085 14.838 4.96885 14.652C5.20485 14.499 5.50685 14.491 5.75085 14.632C6.35985 14.983 7.03085 15.239 7.74285 15.378C8.14885 15.457 8.41385 15.851 8.33485 16.258C8.25585 16.664 7.86185 16.93 7.45485 16.85C6.72485 16.708 6.02885 16.465 5.38485 16.139C4.97985 16.346 4.48185 16.54 3.96485 16.69C3.26085 16.895 2.44885 17.039 1.70885 16.999C1.41385 16.983 1.15485 16.795 1.04985 16.518C0.943846 16.242 1.00985 15.929 1.21985 15.72C1.55885 15.38 1.85585 14.807 2.01285 14.202C2.08985 13.907 2.12685 13.629 2.12585 13.399C2.12385 13.169 2.08585 13.036 2.05685 12.977C1.62385 12.224 1.31085 11.393 1.14185 10.51C1.06485 10.103 1.33085 9.71 1.73785 9.632Z" fill="white"/>
</svg>
