<svg width="157" height="40" viewBox="0 0 157 40" fill="none" xmlns="http://www.w3.org/2000/svg">
<path d="M67.192 28.36C65.592 28.36 64.184 28.008 62.968 27.304C61.768 26.584 60.832 25.56 60.16 24.232C59.488 22.888 59.152 21.312 59.152 19.504C59.152 17.792 59.496 16.28 60.184 14.968C60.888 13.64 61.856 12.616 63.088 11.896C64.32 11.176 65.704 10.816 67.24 10.816C68.568 10.816 69.752 11.072 70.792 11.584C71.832 12.08 72.664 12.768 73.288 13.648C73.912 14.528 74.28 15.52 74.392 16.624H71.992C71.768 15.376 71.24 14.408 70.408 13.72C69.576 13.016 68.488 12.664 67.144 12.664C66.008 12.664 65.008 12.944 64.144 13.504C63.296 14.048 62.632 14.84 62.152 15.88C61.688 16.904 61.456 18.112 61.456 19.504C61.456 20.912 61.696 22.152 62.176 23.224C62.656 24.28 63.328 25.096 64.192 25.672C65.056 26.248 66.04 26.536 67.144 26.536C68.504 26.536 69.616 26.184 70.48 25.48C71.344 24.76 71.896 23.792 72.136 22.576H74.416C74.192 24.368 73.432 25.784 72.136 26.824C70.84 27.848 69.192 28.36 67.192 28.36ZM80.3843 28.36C79.2483 28.36 78.2963 28.04 77.5283 27.4C76.7763 26.76 76.4003 25.904 76.4003 24.832C76.4003 23.792 76.7523 22.984 77.4563 22.408C78.1763 21.816 79.1043 21.424 80.2403 21.232L82.7123 20.848C83.1443 20.784 83.4483 20.664 83.6243 20.488C83.8003 20.312 83.8883 20.048 83.8883 19.696C83.8883 19.072 83.6723 18.584 83.2403 18.232C82.8083 17.864 82.2483 17.68 81.5603 17.68C80.6963 17.68 80.0323 17.896 79.5683 18.328C79.1043 18.744 78.8563 19.32 78.8243 20.056H76.7603C76.7923 19.336 76.9923 18.672 77.3603 18.064C77.7283 17.456 78.2563 16.968 78.9443 16.6C79.6483 16.232 80.4643 16.048 81.3923 16.048C82.8163 16.048 83.9203 16.44 84.7043 17.224C85.5043 18.008 85.9043 19.072 85.9043 20.416V28H83.9363V27.424V26.44C83.6483 27.048 83.1923 27.52 82.5683 27.856C81.9603 28.192 81.2323 28.36 80.3843 28.36ZM80.6723 26.752C81.6003 26.752 82.3683 26.464 82.9763 25.888C83.5843 25.312 83.8883 24.56 83.8883 23.632V21.928C83.7603 22.12 83.3363 22.288 82.6163 22.432L80.9363 22.744C79.3363 23.048 78.5363 23.744 78.5363 24.832C78.5363 25.408 78.7363 25.872 79.1363 26.224C79.5523 26.576 80.0643 26.752 80.6723 26.752ZM89.3073 11.2H91.3713V28H89.3073V11.2ZM94.9088 11.2H96.9728V28H94.9088V11.2ZM109.494 28.36C108.358 28.36 107.406 28.04 106.638 27.4C105.886 26.76 105.51 25.904 105.51 24.832C105.51 23.792 105.862 22.984 106.566 22.408C107.286 21.816 108.214 21.424 109.35 21.232L111.822 20.848C112.254 20.784 112.558 20.664 112.734 20.488C112.91 20.312 112.998 20.048 112.998 19.696C112.998 19.072 112.782 18.584 112.35 18.232C111.918 17.864 111.358 17.68 110.67 17.68C109.806 17.68 109.142 17.896 108.678 18.328C108.214 18.744 107.966 19.32 107.934 20.056H105.87C105.902 19.336 106.102 18.672 106.47 18.064C106.838 17.456 107.366 16.968 108.054 16.6C108.758 16.232 109.574 16.048 110.502 16.048C111.926 16.048 113.03 16.44 113.814 17.224C114.614 18.008 115.014 19.072 115.014 20.416V28H113.046V27.424V26.44C112.758 27.048 112.302 27.52 111.678 27.856C111.07 28.192 110.342 28.36 109.494 28.36ZM109.782 26.752C110.71 26.752 111.478 26.464 112.086 25.888C112.694 25.312 112.998 24.56 112.998 23.632V21.928C112.87 22.12 112.446 22.288 111.726 22.432L110.046 22.744C108.446 23.048 107.646 23.744 107.646 24.832C107.646 25.408 107.846 25.872 108.246 26.224C108.662 26.576 109.174 26.752 109.782 26.752ZM128.279 28L121.919 11.2H124.319L128.807 23.416L129.647 25.648L130.487 23.416L134.975 11.2H137.303L130.799 28H128.279ZM142.906 28.36C141.162 28.36 139.786 27.824 138.778 26.752C137.786 25.68 137.29 24.152 137.29 22.168C137.29 21 137.522 19.952 137.986 19.024C138.466 18.096 139.122 17.368 139.954 16.84C140.802 16.312 141.746 16.048 142.786 16.048C144.482 16.048 145.794 16.6 146.722 17.704C147.666 18.808 148.138 20.304 148.138 22.192V22.6H139.354C139.37 23.88 139.714 24.896 140.386 25.648C141.058 26.384 141.906 26.752 142.93 26.752C143.714 26.752 144.386 26.576 144.946 26.224C145.506 25.856 145.85 25.256 145.978 24.424H148.018C147.89 25.544 147.394 26.48 146.53 27.232C145.666 27.984 144.458 28.36 142.906 28.36ZM145.93 21.136C145.93 20.08 145.65 19.24 145.09 18.616C144.546 17.992 143.778 17.68 142.786 17.68C141.842 17.68 141.066 18.008 140.458 18.664C139.85 19.32 139.506 20.144 139.426 21.136H145.93ZM154.935 28.12C153.975 28.12 153.183 27.856 152.559 27.328C151.951 26.784 151.647 25.912 151.647 24.712V18.136H149.487V16.432H151.647V12.616H153.711V16.432H156.111V18.136H153.711V24.496C153.711 25.136 153.855 25.592 154.143 25.864C154.447 26.136 154.871 26.272 155.415 26.272C155.655 26.272 155.943 26.248 156.279 26.2V27.976C155.847 28.072 155.399 28.12 154.935 28.12Z" fill="white"/>
<path opacity="0.95" d="M15.264 38.396H6.408C3.756 38.396 1.608 36.248 1.608 33.596V6.404C1.608 3.752 3.756 1.604 6.408 1.604H15.264C17.916 1.604 20.064 3.752 20.064 6.404V33.596C20.064 36.248 17.916 38.396 15.264 38.396Z" fill="white" fill-opacity="0.14"/>
<path opacity="0.85" d="M1.608 4.68V10.384C1.608 11.94 3.28 13.204 5.344 13.204H15.96C18.212 13.204 20.036 14.58 20.036 16.28V16.92C20.036 18.62 21.86 19.996 24.112 19.996H35.072C37.324 19.996 38.384 17.468 38.384 15.768V5.192C38.384 3.492 36.56 1.604 34.308 1.604H5.688C3.436 1.604 1.608 2.98 1.608 4.68Z" fill="white" fill-opacity="0.14"/>
<path opacity="0.5" d="M1.6161 15.52V5.7C1.6161 3.436 2.9881 1.604 4.6801 1.604H13.8081C14.8241 1.604 15.7721 2.276 16.3401 3.396L23.6881 17.824C24.2601 18.944 25.2641 20 26.2801 20H35.3841C37.0761 20 38.3881 21.836 38.3881 24.096V34.296C38.3881 36.56 37.0161 38.392 35.3241 38.392H26.2001C25.1601 38.392 24.1921 37.688 23.6281 36.524L16.3361 21.484C15.7721 20.32 14.8601 20 13.8241 20H4.7401C3.0481 20 1.6161 17.78 1.6161 15.52Z" fill="white"/>
<path opacity="0.25" d="M38.392 15.52V5.32C38.392 3.056 36.124 1.604 34.432 1.604H26.2C25.184 1.604 24.236 2.276 23.668 3.396L16.32 17.824C15.748 18.944 14.8 20 13.788 20H4.684C2.992 20 1.62 21.452 1.62 23.716V34.3C1.62 36.564 2.992 38.396 4.684 38.396H13.808C14.848 38.396 15.816 37.692 16.38 36.528L23.676 21.484C24.236 20.32 25.204 20 26.244 20H35.328C37.02 20 38.392 17.78 38.392 15.52Z" fill="white"/>
</svg>
