<svg width="18" height="18" viewBox="0 0 18 18" fill="none" xmlns="http://www.w3.org/2000/svg">
<path d="M8.33529 1.74304C8.41429 2.14904 8.14929 2.54304 7.74229 2.62204C6.89229 2.78804 6.10029 3.12104 5.40329 3.58504C5.05829 3.81504 4.59229 3.72204 4.36329 3.37704C4.13329 3.03204 4.22729 2.56604 4.57129 2.33704C5.43029 1.76504 6.40629 1.35404 7.45629 1.15004C7.86229 1.07104 8.25629 1.33604 8.33529 1.74304Z" fill="black"/>
<path d="M3.38717 4.35104C3.73217 4.58104 3.82417 5.04704 3.59317 5.39104C3.11917 6.10004 2.78117 6.90504 2.61617 7.77204C2.53817 8.17904 2.14517 8.44604 1.73817 8.36804C1.33117 8.29004 1.06517 7.89704 1.14217 7.49004C1.34717 6.42104 1.76317 5.42904 2.34717 4.55704C2.57717 4.21304 3.04317 4.12004 3.38717 4.35104Z" fill="black" fill-opacity="0.4"/>
<path d="M9.6653 1.74304C9.7443 1.33604 10.1383 1.07104 10.5443 1.15004C11.5943 1.35404 12.5703 1.76504 13.4293 2.33704C13.7733 2.56604 13.8673 3.03204 13.6373 3.37704C13.4083 3.72204 12.9423 3.81504 12.5973 3.58504C11.9003 3.12104 11.1083 2.78804 10.2583 2.62204C9.8513 2.54304 9.5863 2.14904 9.6653 1.74304Z" fill="black" fill-opacity="0.4"/>
<path d="M14.6133 4.35104C14.9573 4.12004 15.4233 4.21304 15.6533 4.55704C16.2373 5.42904 16.6533 6.42104 16.8583 7.49004C16.9353 7.89704 16.6693 8.29004 16.2623 8.36804C15.8553 8.44604 15.4623 8.17904 15.3843 7.77204C15.2193 6.90504 14.8813 6.10004 14.4073 5.39104C14.1763 5.04704 14.2693 4.58104 14.6133 4.35104Z" fill="black"/>
<path d="M13.6373 14.623C13.8673 14.968 13.7733 15.434 13.4293 15.663C12.5703 16.235 11.5943 16.646 10.5443 16.85C10.1383 16.929 9.7443 16.664 9.6653 16.258C9.5863 15.851 9.8513 15.457 10.2583 15.378C11.1083 15.212 11.9003 14.879 12.5973 14.415C12.9423 14.185 13.4083 14.279 13.6373 14.623Z" fill="black"/>
<path d="M16.2623 9.63204C16.6693 9.71004 16.9353 10.103 16.8583 10.51C16.6533 11.579 16.2373 12.572 15.6533 13.443C15.4233 13.788 14.9573 13.88 14.6133 13.649C14.2693 13.419 14.1763 12.953 14.4073 12.609C14.8813 11.901 15.2193 11.095 15.3843 10.228C15.4623 9.82104 15.8553 9.55504 16.2623 9.63204Z" fill="black" fill-opacity="0.4"/>
<path d="M1.73785 9.632C2.14485 9.555 2.53785 9.822 2.61585 10.228C2.75285 10.95 3.00985 11.627 3.36485 12.242C3.36885 12.249 3.37385 12.257 3.37785 12.265C3.56385 12.614 3.62385 13.019 3.62585 13.392C3.62685 13.775 3.56785 14.183 3.46485 14.58C3.39985 14.83 3.31385 15.087 3.20885 15.339C3.32185 15.312 3.43485 15.282 3.54685 15.249C4.15985 15.071 4.68085 14.838 4.96885 14.652C5.20485 14.499 5.50685 14.491 5.75085 14.632C6.35985 14.983 7.03085 15.239 7.74285 15.378C8.14885 15.457 8.41385 15.851 8.33485 16.258C8.25585 16.664 7.86185 16.93 7.45485 16.85C6.72485 16.708 6.02885 16.465 5.38485 16.139C4.97985 16.346 4.48185 16.54 3.96485 16.69C3.26085 16.895 2.44885 17.039 1.70885 16.999C1.41385 16.983 1.15485 16.795 1.04985 16.518C0.943846 16.242 1.00985 15.929 1.21985 15.72C1.55885 15.38 1.85585 14.807 2.01285 14.202C2.08985 13.907 2.12685 13.629 2.12585 13.399C2.12385 13.169 2.08585 13.036 2.05685 12.977C1.62385 12.224 1.31085 11.393 1.14185 10.51C1.06485 10.103 1.33085 9.71 1.73785 9.632Z" fill="black"/>
</svg>
