<svg width="157" height="40" viewBox="0 0 157 40" fill="none" xmlns="http://www.w3.org/2000/svg">
<path d="M67.1923 28.36C65.5923 28.36 64.1843 28.008 62.9683 27.304C61.7683 26.584 60.8323 25.56 60.1603 24.232C59.4883 22.888 59.1523 21.312 59.1523 19.504C59.1523 17.792 59.4963 16.28 60.1843 14.968C60.8883 13.64 61.8563 12.616 63.0883 11.896C64.3203 11.176 65.7043 10.816 67.2403 10.816C68.5683 10.816 69.7523 11.072 70.7923 11.584C71.8323 12.08 72.6643 12.768 73.2883 13.648C73.9123 14.528 74.2803 15.52 74.3923 16.624H71.9923C71.7683 15.376 71.2403 14.408 70.4083 13.72C69.5763 13.016 68.4883 12.664 67.1443 12.664C66.0083 12.664 65.0083 12.944 64.1443 13.504C63.2963 14.048 62.6323 14.84 62.1523 15.88C61.6883 16.904 61.4563 18.112 61.4563 19.504C61.4563 20.912 61.6963 22.152 62.1763 23.224C62.6563 24.28 63.3283 25.096 64.1923 25.672C65.0563 26.248 66.0403 26.536 67.1443 26.536C68.5043 26.536 69.6163 26.184 70.4803 25.48C71.3443 24.76 71.8963 23.792 72.1363 22.576H74.4163C74.1923 24.368 73.4323 25.784 72.1363 26.824C70.8403 27.848 69.1923 28.36 67.1923 28.36ZM80.3846 28.36C79.2486 28.36 78.2966 28.04 77.5286 27.4C76.7766 26.76 76.4006 25.904 76.4006 24.832C76.4006 23.792 76.7526 22.984 77.4566 22.408C78.1766 21.816 79.1046 21.424 80.2406 21.232L82.7126 20.848C83.1446 20.784 83.4486 20.664 83.6246 20.488C83.8006 20.312 83.8886 20.048 83.8886 19.696C83.8886 19.072 83.6726 18.584 83.2406 18.232C82.8086 17.864 82.2486 17.68 81.5606 17.68C80.6966 17.68 80.0326 17.896 79.5686 18.328C79.1046 18.744 78.8566 19.32 78.8246 20.056H76.7606C76.7926 19.336 76.9926 18.672 77.3606 18.064C77.7286 17.456 78.2566 16.968 78.9446 16.6C79.6486 16.232 80.4646 16.048 81.3926 16.048C82.8166 16.048 83.9206 16.44 84.7046 17.224C85.5046 18.008 85.9046 19.072 85.9046 20.416V28H83.9366V27.424V26.44C83.6486 27.048 83.1926 27.52 82.5686 27.856C81.9606 28.192 81.2326 28.36 80.3846 28.36ZM80.6726 26.752C81.6006 26.752 82.3686 26.464 82.9766 25.888C83.5846 25.312 83.8886 24.56 83.8886 23.632V21.928C83.7606 22.12 83.3366 22.288 82.6166 22.432L80.9366 22.744C79.3366 23.048 78.5366 23.744 78.5366 24.832C78.5366 25.408 78.7366 25.872 79.1366 26.224C79.5526 26.576 80.0646 26.752 80.6726 26.752ZM89.3076 11.2H91.3716V28H89.3076V11.2ZM94.9091 11.2H96.9731V28H94.9091V11.2ZM109.494 28.36C108.358 28.36 107.406 28.04 106.638 27.4C105.886 26.76 105.51 25.904 105.51 24.832C105.51 23.792 105.862 22.984 106.566 22.408C107.286 21.816 108.214 21.424 109.35 21.232L111.822 20.848C112.254 20.784 112.558 20.664 112.734 20.488C112.91 20.312 112.998 20.048 112.998 19.696C112.998 19.072 112.782 18.584 112.35 18.232C111.918 17.864 111.358 17.68 110.67 17.68C109.806 17.68 109.142 17.896 108.678 18.328C108.214 18.744 107.966 19.32 107.934 20.056H105.87C105.902 19.336 106.102 18.672 106.47 18.064C106.838 17.456 107.366 16.968 108.054 16.6C108.758 16.232 109.574 16.048 110.502 16.048C111.926 16.048 113.03 16.44 113.814 17.224C114.614 18.008 115.014 19.072 115.014 20.416V28H113.046V27.424V26.44C112.758 27.048 112.302 27.52 111.678 27.856C111.07 28.192 110.342 28.36 109.494 28.36ZM109.782 26.752C110.71 26.752 111.478 26.464 112.086 25.888C112.694 25.312 112.998 24.56 112.998 23.632V21.928C112.87 22.12 112.446 22.288 111.726 22.432L110.046 22.744C108.446 23.048 107.646 23.744 107.646 24.832C107.646 25.408 107.846 25.872 108.246 26.224C108.662 26.576 109.174 26.752 109.782 26.752ZM128.279 28L121.919 11.2H124.319L128.807 23.416L129.647 25.648L130.487 23.416L134.975 11.2H137.303L130.799 28H128.279ZM142.906 28.36C141.162 28.36 139.786 27.824 138.778 26.752C137.786 25.68 137.29 24.152 137.29 22.168C137.29 21 137.522 19.952 137.986 19.024C138.466 18.096 139.122 17.368 139.954 16.84C140.802 16.312 141.746 16.048 142.786 16.048C144.482 16.048 145.794 16.6 146.722 17.704C147.666 18.808 148.138 20.304 148.138 22.192V22.6H139.354C139.37 23.88 139.714 24.896 140.386 25.648C141.058 26.384 141.906 26.752 142.93 26.752C143.714 26.752 144.386 26.576 144.946 26.224C145.506 25.856 145.85 25.256 145.978 24.424H148.018C147.89 25.544 147.394 26.48 146.53 27.232C145.666 27.984 144.458 28.36 142.906 28.36ZM145.93 21.136C145.93 20.08 145.65 19.24 145.09 18.616C144.546 17.992 143.778 17.68 142.786 17.68C141.842 17.68 141.066 18.008 140.458 18.664C139.85 19.32 139.506 20.144 139.426 21.136H145.93ZM154.935 28.12C153.975 28.12 153.183 27.856 152.559 27.328C151.951 26.784 151.647 25.912 151.647 24.712V18.136H149.487V16.432H151.647V12.616H153.711V16.432H156.111V18.136H153.711V24.496C153.711 25.136 153.855 25.592 154.143 25.864C154.447 26.136 154.871 26.272 155.415 26.272C155.655 26.272 155.943 26.248 156.279 26.2V27.976C155.847 28.072 155.399 28.12 154.935 28.12Z" fill="black"/>
<path opacity="0.95" d="M15.2644 38.396H6.4084C3.7564 38.396 1.6084 36.248 1.6084 33.596V6.404C1.6084 3.752 3.7564 1.604 6.4084 1.604H15.2644C17.9164 1.604 20.0644 3.752 20.0644 6.404V33.596C20.0644 36.248 17.9164 38.396 15.2644 38.396Z" fill="black" fill-opacity="0.14"/>
<path opacity="0.85" d="M1.6084 4.68V10.384C1.6084 11.94 3.2804 13.204 5.3444 13.204H15.9604C18.2124 13.204 20.0364 14.58 20.0364 16.28V16.92C20.0364 18.62 21.8604 19.996 24.1124 19.996H35.0724C37.3244 19.996 38.3844 17.468 38.3844 15.768V5.192C38.3844 3.492 36.5604 1.604 34.3084 1.604H5.6884C3.4364 1.604 1.6084 2.98 1.6084 4.68Z" fill="black" fill-opacity="0.14"/>
<path opacity="0.5" d="M1.61621 15.52V5.7C1.61621 3.436 2.98821 1.604 4.68021 1.604H13.8082C14.8242 1.604 15.7722 2.276 16.3402 3.396L23.6882 17.824C24.2602 18.944 25.2642 20 26.2802 20H35.3842C37.0762 20 38.3882 21.836 38.3882 24.096V34.296C38.3882 36.56 37.0162 38.392 35.3242 38.392H26.2002C25.1602 38.392 24.1922 37.688 23.6282 36.524L16.3362 21.484C15.7722 20.32 14.8602 20 13.8242 20H4.74021C3.04821 20 1.61621 17.78 1.61621 15.52Z" fill="black"/>
<path opacity="0.25" d="M38.3921 15.52V5.32C38.3921 3.056 36.1241 1.604 34.4321 1.604H26.2001C25.1841 1.604 24.2361 2.276 23.6681 3.396L16.3201 17.824C15.7481 18.944 14.8001 20 13.7881 20H4.68412C2.99212 20 1.62012 21.452 1.62012 23.716V34.3C1.62012 36.564 2.99212 38.396 4.68412 38.396H13.8081C14.8481 38.396 15.8161 37.692 16.3801 36.528L23.6761 21.484C24.2361 20.32 25.2041 20 26.2441 20H35.3281C37.0201 20 38.3921 17.78 38.3921 15.52Z" fill="black"/>
</svg>
