<svg width="148" height="40" viewBox="0 0 148 40" fill="none" xmlns="http://www.w3.org/2000/svg">
<path opacity="0.95" d="M15.264 38.396H6.408C3.756 38.396 1.608 36.248 1.608 33.596V6.404C1.608 3.752 3.756 1.604 6.408 1.604H15.264C17.916 1.604 20.064 3.752 20.064 6.404V33.596C20.064 36.248 17.916 38.396 15.264 38.396Z" fill="white" fill-opacity="0.14"/>
<path opacity="0.85" d="M1.608 4.68V10.384C1.608 11.94 3.28 13.204 5.344 13.204H15.96C18.212 13.204 20.036 14.58 20.036 16.28V16.92C20.036 18.62 21.86 19.996 24.112 19.996H35.072C37.324 19.996 38.384 17.468 38.384 15.768V5.192C38.384 3.492 36.56 1.604 34.308 1.604H5.688C3.436 1.604 1.608 2.98 1.608 4.68Z" fill="white" fill-opacity="0.14"/>
<path opacity="0.5" d="M1.6161 15.52V5.7C1.6161 3.436 2.9881 1.604 4.6801 1.604H13.8081C14.8241 1.604 15.7721 2.276 16.3401 3.396L23.6881 17.824C24.2601 18.944 25.2641 20 26.2801 20H35.3841C37.0761 20 38.3881 21.836 38.3881 24.096V34.296C38.3881 36.56 37.0161 38.392 35.3241 38.392H26.2001C25.1601 38.392 24.1921 37.688 23.6281 36.524L16.3361 21.484C15.7721 20.32 14.8601 20 13.8241 20H4.7401C3.0481 20 1.6161 17.78 1.6161 15.52Z" fill="white"/>
<path opacity="0.25" d="M38.392 15.52V5.32C38.392 3.056 36.124 1.604 34.432 1.604H26.2C25.184 1.604 24.236 2.276 23.668 3.396L16.32 17.824C15.748 18.944 14.8 20 13.788 20H4.684C2.992 20 1.62 21.452 1.62 23.716V34.3C1.62 36.564 2.992 38.396 4.684 38.396H13.808C14.848 38.396 15.816 37.692 16.38 36.528L23.676 21.484C24.236 20.32 25.204 20 26.244 20H35.328C37.02 20 38.392 17.78 38.392 15.52Z" fill="white"/>
<path d="M61.768 28.384C60.632 28.384 59.624 28.144 58.744 27.664C57.88 27.184 57.2 26.48 56.704 25.552C56.208 24.608 55.96 23.48 55.96 22.168C55.96 20.952 56.216 19.88 56.728 18.952C57.256 18.008 57.968 17.28 58.864 16.768C59.76 16.256 60.76 16 61.864 16C63.352 16 64.56 16.408 65.488 17.224C66.432 18.04 66.968 19.12 67.096 20.464H64.648C64.568 19.712 64.28 19.096 63.784 18.616C63.304 18.136 62.656 17.896 61.84 17.896C60.832 17.896 60.008 18.296 59.368 19.096C58.728 19.88 58.408 20.912 58.408 22.192C58.408 23.488 58.72 24.536 59.344 25.336C59.984 26.12 60.816 26.512 61.84 26.512C62.688 26.512 63.368 26.28 63.88 25.816C64.408 25.336 64.712 24.696 64.792 23.896H67.192C67.048 25.272 66.504 26.368 65.56 27.184C64.632 27.984 63.368 28.384 61.768 28.384ZM73.0004 28.384C72.2804 28.384 71.6084 28.24 70.9844 27.952C70.3764 27.664 69.8884 27.248 69.5204 26.704C69.1684 26.16 68.9924 25.528 68.9924 24.808C68.9924 22.76 70.3604 21.528 73.0964 21.112L75.2804 20.776C75.7284 20.712 76.0404 20.6 76.2164 20.44C76.4084 20.264 76.5044 20.008 76.5044 19.672C76.5044 19.112 76.3044 18.664 75.9044 18.328C75.5044 17.992 74.9764 17.824 74.3204 17.824C73.5364 17.824 72.9124 18.024 72.4484 18.424C72.0004 18.824 71.7604 19.368 71.7284 20.056H69.3044C69.3524 19.304 69.5764 18.624 69.9764 18.016C70.3764 17.392 70.9284 16.904 71.6324 16.552C72.3524 16.184 73.1924 16 74.1524 16C75.7044 16 76.8724 16.408 77.6564 17.224C78.4564 18.04 78.8564 19.192 78.8564 20.68V28H76.6004V27.448C76.6004 27.24 76.6164 26.896 76.6484 26.416C76.3444 27.024 75.8804 27.504 75.2564 27.856C74.6324 28.208 73.8804 28.384 73.0004 28.384ZM73.4804 26.56C74.3604 26.56 75.0884 26.288 75.6644 25.744C76.2404 25.184 76.5284 24.456 76.5284 23.56V22.024C76.3524 22.216 75.9124 22.384 75.2084 22.528L73.8164 22.792C72.2324 23.096 71.4404 23.752 71.4404 24.76C71.4404 25.32 71.6324 25.76 72.0164 26.08C72.4004 26.4 72.8884 26.56 73.4804 26.56ZM82.0628 11.2H84.4388V28H82.0628V11.2ZM87.7816 11.2H90.1576V28H87.7816V11.2ZM102.274 28.384C101.554 28.384 100.882 28.24 100.258 27.952C99.6498 27.664 99.1618 27.248 98.7938 26.704C98.4418 26.16 98.2658 25.528 98.2658 24.808C98.2658 22.76 99.6338 21.528 102.37 21.112L104.554 20.776C105.002 20.712 105.314 20.6 105.49 20.44C105.682 20.264 105.778 20.008 105.778 19.672C105.778 19.112 105.578 18.664 105.178 18.328C104.778 17.992 104.25 17.824 103.594 17.824C102.81 17.824 102.186 18.024 101.722 18.424C101.274 18.824 101.034 19.368 101.002 20.056H98.5778C98.6258 19.304 98.8498 18.624 99.2498 18.016C99.6498 17.392 100.202 16.904 100.906 16.552C101.626 16.184 102.466 16 103.426 16C104.978 16 106.146 16.408 106.93 17.224C107.73 18.04 108.13 19.192 108.13 20.68V28H105.874V27.448C105.874 27.24 105.89 26.896 105.922 26.416C105.618 27.024 105.154 27.504 104.53 27.856C103.906 28.208 103.154 28.384 102.274 28.384ZM102.754 26.56C103.634 26.56 104.362 26.288 104.938 25.744C105.514 25.184 105.802 24.456 105.802 23.56V22.024C105.626 22.216 105.186 22.384 104.482 22.528L103.09 22.792C101.506 23.096 100.714 23.752 100.714 24.76C100.714 25.32 100.906 25.76 101.29 26.08C101.674 26.4 102.162 26.56 102.754 26.56ZM119.399 28L114.983 16.384H117.575L120.383 24.52C120.479 24.808 120.607 25.232 120.767 25.792C120.863 25.456 120.999 25.032 121.175 24.52L123.911 16.384H126.407L122.039 28H119.399ZM133.158 28.384C131.382 28.384 129.974 27.84 128.934 26.752C127.91 25.664 127.398 24.128 127.398 22.144C127.398 20.96 127.638 19.904 128.118 18.976C128.614 18.032 129.286 17.304 130.134 16.792C130.998 16.264 131.966 16 133.038 16C134.766 16 136.11 16.56 137.07 17.68C138.03 18.784 138.51 20.288 138.51 22.192V22.696H129.822C129.838 23.864 130.158 24.792 130.782 25.48C131.406 26.168 132.206 26.512 133.182 26.512C133.918 26.512 134.542 26.336 135.054 25.984C135.566 25.632 135.886 25.08 136.014 24.328H138.414C138.286 25.496 137.766 26.464 136.854 27.232C135.942 28 134.71 28.384 133.158 28.384ZM135.99 20.992C135.99 20.032 135.726 19.264 135.198 18.688C134.67 18.112 133.95 17.824 133.038 17.824C132.158 17.824 131.422 18.12 130.83 18.712C130.254 19.304 129.926 20.064 129.846 20.992H135.99ZM145.473 28.168C144.401 28.168 143.553 27.88 142.929 27.304C142.305 26.712 141.993 25.8 141.993 24.568V18.304H139.641V16.384H141.993V12.4H144.393V16.384H146.961V18.304H144.393V24.28C144.393 25.512 144.961 26.128 146.097 26.128C146.369 26.128 146.657 26.104 146.961 26.056V27.976C146.481 28.104 145.985 28.168 145.473 28.168Z" fill="white"/>
</svg>
