<svg width="45" height="45" viewBox="0 0 45 45" fill="none" xmlns="http://www.w3.org/2000/svg">
<path d="M22.5 0C34.9264 0 45 10.0736 45 22.5C45 34.9264 34.9264 45 22.5 45C10.0736 45 0 34.9264 0 22.5C0 10.0736 10.0736 0 22.5 0ZM23.5889 15.5771C23.2634 15.252 22.7355 15.2518 22.4102 15.5771C22.085 15.9025 22.0851 16.4305 22.4102 16.7559L26.8213 21.166H17.166C16.7062 21.1664 16.3332 21.5401 16.333 22C16.3332 22.4599 16.7062 22.8327 17.166 22.833H26.8213L22.4102 27.2441C22.0853 27.5694 22.0855 28.0965 22.4102 28.4219C22.7356 28.7473 23.2634 28.7473 23.5889 28.4219L29.4219 22.5889C29.7473 22.2634 29.7473 21.7356 29.4219 21.4102L23.5889 15.5771Z" fill="white"/>
</svg>
