<svg width="91" height="18" viewBox="0 0 91 18" fill="none" xmlns="http://www.w3.org/2000/svg">
<path d="M5.80799 17.184C4.67199 17.184 3.66399 16.944 2.78399 16.464C1.91999 15.984 1.23999 15.28 0.743993 14.352C0.247993 13.408 -6.64592e-06 12.28 -6.64592e-06 10.968C-6.64592e-06 9.75199 0.255993 8.67999 0.767993 7.75199C1.29599 6.80799 2.00799 6.07999 2.90399 5.56799C3.79999 5.05599 4.79999 4.79999 5.90399 4.79999C7.39199 4.79999 8.59999 5.20799 9.52799 6.02399C10.472 6.83999 11.008 7.91999 11.136 9.26399H8.68799C8.60799 8.51199 8.31999 7.89599 7.82399 7.41599C7.34399 6.93599 6.69599 6.69599 5.87999 6.69599C4.87199 6.69599 4.04799 7.09599 3.40799 7.89599C2.76799 8.67999 2.44799 9.71199 2.44799 10.992C2.44799 12.288 2.75999 13.336 3.38399 14.136C4.02399 14.92 4.85599 15.312 5.87999 15.312C6.72799 15.312 7.40799 15.08 7.91999 14.616C8.44799 14.136 8.75199 13.496 8.83199 12.696H11.232C11.088 14.072 10.544 15.168 9.59999 15.984C8.67199 16.784 7.40799 17.184 5.80799 17.184ZM17.0404 17.184C16.3204 17.184 15.6484 17.04 15.0244 16.752C14.4164 16.464 13.9284 16.048 13.5604 15.504C13.2084 14.96 13.0324 14.328 13.0324 13.608C13.0324 11.56 14.4004 10.328 17.1364 9.91199L19.3204 9.57599C19.7684 9.51199 20.0804 9.39999 20.2564 9.23999C20.4484 9.06399 20.5444 8.80799 20.5444 8.47199C20.5444 7.91199 20.3444 7.46399 19.9444 7.12799C19.5444 6.79199 19.0164 6.62399 18.3604 6.62399C17.5764 6.62399 16.9524 6.82399 16.4884 7.22399C16.0404 7.62399 15.8004 8.16799 15.7684 8.85599H13.3444C13.3924 8.10399 13.6164 7.42399 14.0164 6.81599C14.4164 6.19199 14.9684 5.70399 15.6724 5.35199C16.3924 4.98399 17.2324 4.79999 18.1924 4.79999C19.7444 4.79999 20.9124 5.20799 21.6964 6.02399C22.4964 6.83999 22.8964 7.99199 22.8964 9.47999V16.8H20.6404V16.248C20.6404 16.04 20.6564 15.696 20.6884 15.216C20.3844 15.824 19.9204 16.304 19.2964 16.656C18.6724 17.008 17.9204 17.184 17.0404 17.184ZM17.5204 15.36C18.4004 15.36 19.1284 15.088 19.7044 14.544C20.2804 13.984 20.5684 13.256 20.5684 12.36V10.824C20.3924 11.016 19.9524 11.184 19.2484 11.328L17.8564 11.592C16.2724 11.896 15.4804 12.552 15.4804 13.56C15.4804 14.12 15.6724 14.56 16.0564 14.88C16.4404 15.2 16.9284 15.36 17.5204 15.36ZM26.1028 -1.33514e-05H28.4788V16.8H26.1028V-1.33514e-05ZM31.8216 -1.33514e-05H34.1976V16.8H31.8216V-1.33514e-05ZM46.3138 17.184C45.5938 17.184 44.9218 17.04 44.2978 16.752C43.6898 16.464 43.2018 16.048 42.8338 15.504C42.4818 14.96 42.3058 14.328 42.3058 13.608C42.3058 11.56 43.6738 10.328 46.4098 9.91199L48.5938 9.57599C49.0418 9.51199 49.3538 9.39999 49.5298 9.23999C49.7218 9.06399 49.8178 8.80799 49.8178 8.47199C49.8178 7.91199 49.6178 7.46399 49.2178 7.12799C48.8178 6.79199 48.2898 6.62399 47.6338 6.62399C46.8498 6.62399 46.2258 6.82399 45.7618 7.22399C45.3138 7.62399 45.0738 8.16799 45.0418 8.85599H42.6178C42.6658 8.10399 42.8898 7.42399 43.2898 6.81599C43.6898 6.19199 44.2418 5.70399 44.9458 5.35199C45.6658 4.98399 46.5058 4.79999 47.4658 4.79999C49.0178 4.79999 50.1858 5.20799 50.9698 6.02399C51.7698 6.83999 52.1698 7.99199 52.1698 9.47999V16.8H49.9138V16.248C49.9138 16.04 49.9298 15.696 49.9618 15.216C49.6578 15.824 49.1938 16.304 48.5698 16.656C47.9458 17.008 47.1938 17.184 46.3138 17.184ZM46.7938 15.36C47.6738 15.36 48.4018 15.088 48.9778 14.544C49.5538 13.984 49.8418 13.256 49.8418 12.36V10.824C49.6658 11.016 49.2258 11.184 48.5218 11.328L47.1298 11.592C45.5458 11.896 44.7538 12.552 44.7538 13.56C44.7538 14.12 44.9458 14.56 45.3298 14.88C45.7138 15.2 46.2018 15.36 46.7938 15.36ZM63.4387 16.8L59.0227 5.18399H61.6147L64.4227 13.32C64.5187 13.608 64.6467 14.032 64.8067 14.592C64.9027 14.256 65.0387 13.832 65.2147 13.32L67.9507 5.18399H70.4467L66.0787 16.8H63.4387ZM77.1975 17.184C75.4215 17.184 74.0135 16.64 72.9735 15.552C71.9495 14.464 71.4375 12.928 71.4375 10.944C71.4375 9.75999 71.6775 8.70399 72.1575 7.77599C72.6535 6.83199 73.3255 6.10399 74.1735 5.59199C75.0375 5.06399 76.0055 4.79999 77.0775 4.79999C78.8055 4.79999 80.1495 5.35999 81.1095 6.47999C82.0695 7.58399 82.5495 9.08799 82.5495 10.992V11.496H73.8615C73.8775 12.664 74.1975 13.592 74.8215 14.28C75.4455 14.968 76.2455 15.312 77.2215 15.312C77.9575 15.312 78.5815 15.136 79.0935 14.784C79.6055 14.432 79.9255 13.88 80.0535 13.128H82.4535C82.3255 14.296 81.8055 15.264 80.8935 16.032C79.9815 16.8 78.7495 17.184 77.1975 17.184ZM80.0295 9.79199C80.0295 8.83199 79.7655 8.06399 79.2375 7.48799C78.7095 6.91199 77.9895 6.62399 77.0775 6.62399C76.1975 6.62399 75.4615 6.91999 74.8695 7.51199C74.2935 8.10399 73.9655 8.86399 73.8855 9.79199H80.0295ZM89.5127 16.968C88.4407 16.968 87.5927 16.68 86.9687 16.104C86.3447 15.512 86.0327 14.6 86.0327 13.368V7.10399H83.6807V5.18399H86.0327V1.19999H88.4327V5.18399H91.0007V7.10399H88.4327V13.08C88.4327 14.312 89.0007 14.928 90.1367 14.928C90.4087 14.928 90.6967 14.904 91.0007 14.856V16.776C90.5207 16.904 90.0247 16.968 89.5127 16.968Z" fill="white"/>
</svg>
