<svg width="45" height="28" viewBox="0 0 45 28" fill="none" xmlns="http://www.w3.org/2000/svg">
<g filter="url(#filter0_d_250_4853)">
<g clip-path="url(#clip0_250_4853)">
<mask id="path-1-outside-1_250_4853" maskUnits="userSpaceOnUse" x="2.99854" y="-1.00439" width="39" height="22" fill="black">
<rect fill="white" x="2.99854" y="-1.00439" width="39" height="22"/>
<path fill-rule="evenodd" clip-rule="evenodd" d="M15.5695 14.3541C15.4722 14.9719 15.335 15.8152 15.304 16.0632C15.2819 16.2391 15.2509 16.4962 15.304 16.7216C15.3527 16.9156 15.481 17.1095 15.773 17.2538C16.0252 17.3755 16.2552 17.4973 16.4455 17.5965C17.087 17.9257 17.1135 17.9437 18.2329 17.9437V18.8547C16.9012 18.8547 16.8702 18.8366 16.0429 18.4082C15.8836 18.3271 15.6934 18.2278 15.3881 18.079C14.8085 17.7994 14.5475 17.38 14.4413 16.9561C14.3395 16.5638 14.3838 16.203 14.4192 15.9505C14.4634 15.6123 14.6581 14.4037 14.751 13.822C15.0032 14.0114 15.2996 14.2143 15.5651 14.3586L15.5695 14.3541ZM23.4845 20.0001C23.1128 18.99 22.6085 18.1692 22.02 17.4928C22.02 17.4928 22.3076 17.0689 22.6085 16.7848C23.3473 17.6145 23.98 18.6427 24.418 19.9685L24.3251 20.0001H23.4845ZM28.2715 20.0001H29.0325L29.205 19.9099C28.2096 17.8761 29.966 15.5401 31.3508 13.6957C31.4968 13.4973 31.6428 13.3079 31.7888 13.105L31.7755 12.3383C31.395 12.0678 30.9526 11.7837 30.4881 11.5041C30.2845 11.3823 30.0766 11.2651 29.8598 11.1433C30.2226 10.8682 30.5013 10.4669 30.6916 10.0024C30.9305 9.42063 31.0411 8.73969 31.019 8.10384C31.0101 7.78817 30.9659 7.48151 30.8951 7.20192C31.5278 6.86821 31.7534 7.12977 32.0454 7.46347C32.4701 7.95502 32.9789 8.54127 34.1115 8.63597C35.3193 8.73518 35.8856 8.23461 36.5139 7.67994C37.2395 7.04408 38.0624 6.31804 40.6152 6.82762L41.0001 6.04747C38.4384 3.68895 37.4032 4.02717 36.3059 4.38343C35.5759 4.62244 34.8194 4.86596 33.1647 3.7566C31.6074 2.71037 30.2359 3.96404 29.6386 4.67204C29.1298 4.24363 28.1344 3.58523 26.7363 3.51759C25.1524 3.44093 23.4535 4.10835 22.405 4.52323C22.1306 4.63146 21.9006 4.72165 21.7546 4.76674C18.4806 5.77689 16.8525 4.55028 15.2067 3.31466C13.9768 2.39019 12.7424 1.46122 10.8754 1.29888C10.5834 0.906541 10.2958 0.644985 9.97281 0.455583C9.60117 0.239123 9.20742 0.139912 8.73402 0.0722684L8.21638 -0.00439453L8.22523 0.527736C8.22523 0.577342 8.22523 0.608909 8.22523 0.640476C8.22966 0.874974 8.23851 1.14104 8.18541 1.58298C7.57044 1.98433 6.7962 3.00801 6.19893 3.80169C5.88038 4.22559 5.61493 4.57283 5.51317 4.65851C5.4468 4.71714 5.35389 4.78478 5.25656 4.86145C4.64602 5.33946 3.73462 6.04747 4.07086 6.80508C4.11068 6.89527 4.17262 7.0035 4.25226 7.11173C4.46905 7.41838 4.83626 7.79718 5.23886 8.04972C5.70783 8.34284 6.23874 8.49166 6.71656 8.26618C6.78293 8.23461 6.84929 8.19403 6.91566 8.14893C7.14572 7.97757 7.03511 8.06325 7.07935 8.03168C7.64123 7.6168 7.99075 7.35975 8.68093 7.4274C9.40208 7.49955 9.86663 7.12075 10.1321 6.78253C10.3135 6.92233 10.5435 7.0982 10.7736 7.28309C11.0877 7.53563 11.7823 8.23461 12.4548 9.15006C12.9017 9.75885 13.3352 10.4578 13.6361 11.1794C14.313 12.7983 15.888 13.592 17.6577 14.4849C18.7151 15.017 19.8477 15.5852 20.8653 16.397C20.4052 17.0193 20.0247 17.7724 19.7593 18.6923L20.6131 18.9449C20.8343 18.1692 21.1573 17.5289 21.5422 16.9967C21.6882 16.7848 22.1351 16.3068 22.1351 16.3068C24.1127 14.3451 26.9708 14.4443 26.9796 14.4443L27.1566 13.574C27.1566 13.574 25.8868 13.0554 24.8471 11.5131C23.9003 10.1061 25.1745 8.13991 25.179 8.13089L24.4313 7.63484C24.4313 7.63484 22.8253 10.1106 24.1127 12.0227C24.6038 12.7487 25.1436 13.2808 25.617 13.6596C24.4534 13.8536 22.7766 14.3722 21.4537 15.716C20.3698 14.8502 19.1708 14.2459 18.0515 13.6822C16.4411 12.8705 14.9988 12.1489 14.4546 10.8366C14.1228 10.043 13.6494 9.28084 13.1627 8.62244C12.4371 7.63935 11.6761 6.87272 11.3222 6.58862C10.7294 6.1106 10.2648 5.77238 10.2648 5.77238L9.79584 5.42514L9.5879 5.97982C9.5879 5.97982 9.35784 6.60215 8.76942 6.54352C7.73857 6.4398 7.28729 6.77351 6.55729 7.31466C6.41129 7.42289 6.51747 7.34623 6.39802 7.43191C6.38475 7.44093 6.37147 7.44995 6.34935 7.45897C6.18565 7.53563 5.94232 7.44544 5.70341 7.29662C5.40256 7.10722 5.12826 6.83213 4.96899 6.60665C4.92917 6.54803 4.8982 6.49842 4.8805 6.45333C4.83626 6.34961 5.40699 5.90767 5.7919 5.60553C5.9025 5.51985 6.00426 5.44318 6.07947 5.37554C6.26087 5.22221 6.54844 4.8389 6.90238 4.37441C7.5262 3.54916 8.35796 2.44882 8.7296 2.32706L8.99505 2.24138L9.03487 1.96178C9.08796 1.59651 9.10566 1.32142 9.11451 1.09594C9.26493 1.14104 9.40208 1.19515 9.52596 1.26731C9.77814 1.41612 10.0126 1.64611 10.2648 2.0159L10.3887 2.20079L10.6055 2.21432C12.3265 2.30902 13.4989 3.18839 14.6669 4.06776C16.4897 5.43867 18.2992 6.80508 22.0023 5.65964C22.1882 5.60102 22.4271 5.50632 22.7191 5.39358C23.7013 5.00575 25.2896 4.37892 26.6876 4.44656C28.3998 4.53225 29.3422 5.65964 29.3466 5.66415L30.0545 5.61906C30.0545 5.61906 31.3287 3.63935 32.6692 4.53676C34.6778 5.88963 35.6467 5.57396 36.5714 5.27182C37.2439 5.05536 37.8854 4.84341 39.2127 5.76787C37.412 5.71376 36.6333 6.39921 35.9343 7.01703C35.4565 7.43642 35.0229 7.81973 34.1823 7.75209C33.4036 7.68895 33.0276 7.25152 32.709 6.88625C32.0852 6.16472 31.6118 5.62356 30.112 6.64273L29.8067 6.85017L29.9483 7.19741C30.0589 7.46798 30.1164 7.79718 30.1297 8.15344C30.1474 8.66753 30.0589 9.21319 29.8731 9.67317C29.7005 10.0881 29.4439 10.4218 29.1077 10.5661C29.0015 10.6112 28.8821 10.6382 28.7538 10.6427L28.5679 11.4996C29.059 11.7476 29.559 12.0272 30.0368 12.3113C30.3376 12.4917 30.6208 12.6675 30.8818 12.8389C30.8022 12.9426 30.7225 13.0508 30.6385 13.1636C29.1652 15.1207 27.3203 17.5785 28.2671 20.0136L28.2715 20.0001Z"/>
</mask>
<path fill-rule="evenodd" clip-rule="evenodd" d="M15.5695 14.3541C15.4722 14.9719 15.335 15.8152 15.304 16.0632C15.2819 16.2391 15.2509 16.4962 15.304 16.7216C15.3527 16.9156 15.481 17.1095 15.773 17.2538C16.0252 17.3755 16.2552 17.4973 16.4455 17.5965C17.087 17.9257 17.1135 17.9437 18.2329 17.9437V18.8547C16.9012 18.8547 16.8702 18.8366 16.0429 18.4082C15.8836 18.3271 15.6934 18.2278 15.3881 18.079C14.8085 17.7994 14.5475 17.38 14.4413 16.9561C14.3395 16.5638 14.3838 16.203 14.4192 15.9505C14.4634 15.6123 14.6581 14.4037 14.751 13.822C15.0032 14.0114 15.2996 14.2143 15.5651 14.3586L15.5695 14.3541ZM23.4845 20.0001C23.1128 18.99 22.6085 18.1692 22.02 17.4928C22.02 17.4928 22.3076 17.0689 22.6085 16.7848C23.3473 17.6145 23.98 18.6427 24.418 19.9685L24.3251 20.0001H23.4845ZM28.2715 20.0001H29.0325L29.205 19.9099C28.2096 17.8761 29.966 15.5401 31.3508 13.6957C31.4968 13.4973 31.6428 13.3079 31.7888 13.105L31.7755 12.3383C31.395 12.0678 30.9526 11.7837 30.4881 11.5041C30.2845 11.3823 30.0766 11.2651 29.8598 11.1433C30.2226 10.8682 30.5013 10.4669 30.6916 10.0024C30.9305 9.42063 31.0411 8.73969 31.019 8.10384C31.0101 7.78817 30.9659 7.48151 30.8951 7.20192C31.5278 6.86821 31.7534 7.12977 32.0454 7.46347C32.4701 7.95502 32.9789 8.54127 34.1115 8.63597C35.3193 8.73518 35.8856 8.23461 36.5139 7.67994C37.2395 7.04408 38.0624 6.31804 40.6152 6.82762L41.0001 6.04747C38.4384 3.68895 37.4032 4.02717 36.3059 4.38343C35.5759 4.62244 34.8194 4.86596 33.1647 3.7566C31.6074 2.71037 30.2359 3.96404 29.6386 4.67204C29.1298 4.24363 28.1344 3.58523 26.7363 3.51759C25.1524 3.44093 23.4535 4.10835 22.405 4.52323C22.1306 4.63146 21.9006 4.72165 21.7546 4.76674C18.4806 5.77689 16.8525 4.55028 15.2067 3.31466C13.9768 2.39019 12.7424 1.46122 10.8754 1.29888C10.5834 0.906541 10.2958 0.644985 9.97281 0.455583C9.60117 0.239123 9.20742 0.139912 8.73402 0.0722684L8.21638 -0.00439453L8.22523 0.527736C8.22523 0.577342 8.22523 0.608909 8.22523 0.640476C8.22966 0.874974 8.23851 1.14104 8.18541 1.58298C7.57044 1.98433 6.7962 3.00801 6.19893 3.80169C5.88038 4.22559 5.61493 4.57283 5.51317 4.65851C5.4468 4.71714 5.35389 4.78478 5.25656 4.86145C4.64602 5.33946 3.73462 6.04747 4.07086 6.80508C4.11068 6.89527 4.17262 7.0035 4.25226 7.11173C4.46905 7.41838 4.83626 7.79718 5.23886 8.04972C5.70783 8.34284 6.23874 8.49166 6.71656 8.26618C6.78293 8.23461 6.84929 8.19403 6.91566 8.14893C7.14572 7.97757 7.03511 8.06325 7.07935 8.03168C7.64123 7.6168 7.99075 7.35975 8.68093 7.4274C9.40208 7.49955 9.86663 7.12075 10.1321 6.78253C10.3135 6.92233 10.5435 7.0982 10.7736 7.28309C11.0877 7.53563 11.7823 8.23461 12.4548 9.15006C12.9017 9.75885 13.3352 10.4578 13.6361 11.1794C14.313 12.7983 15.888 13.592 17.6577 14.4849C18.7151 15.017 19.8477 15.5852 20.8653 16.397C20.4052 17.0193 20.0247 17.7724 19.7593 18.6923L20.6131 18.9449C20.8343 18.1692 21.1573 17.5289 21.5422 16.9967C21.6882 16.7848 22.1351 16.3068 22.1351 16.3068C24.1127 14.3451 26.9708 14.4443 26.9796 14.4443L27.1566 13.574C27.1566 13.574 25.8868 13.0554 24.8471 11.5131C23.9003 10.1061 25.1745 8.13991 25.179 8.13089L24.4313 7.63484C24.4313 7.63484 22.8253 10.1106 24.1127 12.0227C24.6038 12.7487 25.1436 13.2808 25.617 13.6596C24.4534 13.8536 22.7766 14.3722 21.4537 15.716C20.3698 14.8502 19.1708 14.2459 18.0515 13.6822C16.4411 12.8705 14.9988 12.1489 14.4546 10.8366C14.1228 10.043 13.6494 9.28084 13.1627 8.62244C12.4371 7.63935 11.6761 6.87272 11.3222 6.58862C10.7294 6.1106 10.2648 5.77238 10.2648 5.77238L9.79584 5.42514L9.5879 5.97982C9.5879 5.97982 9.35784 6.60215 8.76942 6.54352C7.73857 6.4398 7.28729 6.77351 6.55729 7.31466C6.41129 7.42289 6.51747 7.34623 6.39802 7.43191C6.38475 7.44093 6.37147 7.44995 6.34935 7.45897C6.18565 7.53563 5.94232 7.44544 5.70341 7.29662C5.40256 7.10722 5.12826 6.83213 4.96899 6.60665C4.92917 6.54803 4.8982 6.49842 4.8805 6.45333C4.83626 6.34961 5.40699 5.90767 5.7919 5.60553C5.9025 5.51985 6.00426 5.44318 6.07947 5.37554C6.26087 5.22221 6.54844 4.8389 6.90238 4.37441C7.5262 3.54916 8.35796 2.44882 8.7296 2.32706L8.99505 2.24138L9.03487 1.96178C9.08796 1.59651 9.10566 1.32142 9.11451 1.09594C9.26493 1.14104 9.40208 1.19515 9.52596 1.26731C9.77814 1.41612 10.0126 1.64611 10.2648 2.0159L10.3887 2.20079L10.6055 2.21432C12.3265 2.30902 13.4989 3.18839 14.6669 4.06776C16.4897 5.43867 18.2992 6.80508 22.0023 5.65964C22.1882 5.60102 22.4271 5.50632 22.7191 5.39358C23.7013 5.00575 25.2896 4.37892 26.6876 4.44656C28.3998 4.53225 29.3422 5.65964 29.3466 5.66415L30.0545 5.61906C30.0545 5.61906 31.3287 3.63935 32.6692 4.53676C34.6778 5.88963 35.6467 5.57396 36.5714 5.27182C37.2439 5.05536 37.8854 4.84341 39.2127 5.76787C37.412 5.71376 36.6333 6.39921 35.9343 7.01703C35.4565 7.43642 35.0229 7.81973 34.1823 7.75209C33.4036 7.68895 33.0276 7.25152 32.709 6.88625C32.0852 6.16472 31.6118 5.62356 30.112 6.64273L29.8067 6.85017L29.9483 7.19741C30.0589 7.46798 30.1164 7.79718 30.1297 8.15344C30.1474 8.66753 30.0589 9.21319 29.8731 9.67317C29.7005 10.0881 29.4439 10.4218 29.1077 10.5661C29.0015 10.6112 28.8821 10.6382 28.7538 10.6427L28.5679 11.4996C29.059 11.7476 29.559 12.0272 30.0368 12.3113C30.3376 12.4917 30.6208 12.6675 30.8818 12.8389C30.8022 12.9426 30.7225 13.0508 30.6385 13.1636C29.1652 15.1207 27.3203 17.5785 28.2671 20.0136L28.2715 20.0001Z" fill="#F2F2F2"/>
<path fill-rule="evenodd" clip-rule="evenodd" d="M15.5695 14.3541C15.4722 14.9719 15.335 15.8152 15.304 16.0632C15.2819 16.2391 15.2509 16.4962 15.304 16.7216C15.3527 16.9156 15.481 17.1095 15.773 17.2538C16.0252 17.3755 16.2552 17.4973 16.4455 17.5965C17.087 17.9257 17.1135 17.9437 18.2329 17.9437V18.8547C16.9012 18.8547 16.8702 18.8366 16.0429 18.4082C15.8836 18.3271 15.6934 18.2278 15.3881 18.079C14.8085 17.7994 14.5475 17.38 14.4413 16.9561C14.3395 16.5638 14.3838 16.203 14.4192 15.9505C14.4634 15.6123 14.6581 14.4037 14.751 13.822C15.0032 14.0114 15.2996 14.2143 15.5651 14.3586L15.5695 14.3541ZM23.4845 20.0001C23.1128 18.99 22.6085 18.1692 22.02 17.4928C22.02 17.4928 22.3076 17.0689 22.6085 16.7848C23.3473 17.6145 23.98 18.6427 24.418 19.9685L24.3251 20.0001H23.4845ZM28.2715 20.0001H29.0325L29.205 19.9099C28.2096 17.8761 29.966 15.5401 31.3508 13.6957C31.4968 13.4973 31.6428 13.3079 31.7888 13.105L31.7755 12.3383C31.395 12.0678 30.9526 11.7837 30.4881 11.5041C30.2845 11.3823 30.0766 11.2651 29.8598 11.1433C30.2226 10.8682 30.5013 10.4669 30.6916 10.0024C30.9305 9.42063 31.0411 8.73969 31.019 8.10384C31.0101 7.78817 30.9659 7.48151 30.8951 7.20192C31.5278 6.86821 31.7534 7.12977 32.0454 7.46347C32.4701 7.95502 32.9789 8.54127 34.1115 8.63597C35.3193 8.73518 35.8856 8.23461 36.5139 7.67994C37.2395 7.04408 38.0624 6.31804 40.6152 6.82762L41.0001 6.04747C38.4384 3.68895 37.4032 4.02717 36.3059 4.38343C35.5759 4.62244 34.8194 4.86596 33.1647 3.7566C31.6074 2.71037 30.2359 3.96404 29.6386 4.67204C29.1298 4.24363 28.1344 3.58523 26.7363 3.51759C25.1524 3.44093 23.4535 4.10835 22.405 4.52323C22.1306 4.63146 21.9006 4.72165 21.7546 4.76674C18.4806 5.77689 16.8525 4.55028 15.2067 3.31466C13.9768 2.39019 12.7424 1.46122 10.8754 1.29888C10.5834 0.906541 10.2958 0.644985 9.97281 0.455583C9.60117 0.239123 9.20742 0.139912 8.73402 0.0722684L8.21638 -0.00439453L8.22523 0.527736C8.22523 0.577342 8.22523 0.608909 8.22523 0.640476C8.22966 0.874974 8.23851 1.14104 8.18541 1.58298C7.57044 1.98433 6.7962 3.00801 6.19893 3.80169C5.88038 4.22559 5.61493 4.57283 5.51317 4.65851C5.4468 4.71714 5.35389 4.78478 5.25656 4.86145C4.64602 5.33946 3.73462 6.04747 4.07086 6.80508C4.11068 6.89527 4.17262 7.0035 4.25226 7.11173C4.46905 7.41838 4.83626 7.79718 5.23886 8.04972C5.70783 8.34284 6.23874 8.49166 6.71656 8.26618C6.78293 8.23461 6.84929 8.19403 6.91566 8.14893C7.14572 7.97757 7.03511 8.06325 7.07935 8.03168C7.64123 7.6168 7.99075 7.35975 8.68093 7.4274C9.40208 7.49955 9.86663 7.12075 10.1321 6.78253C10.3135 6.92233 10.5435 7.0982 10.7736 7.28309C11.0877 7.53563 11.7823 8.23461 12.4548 9.15006C12.9017 9.75885 13.3352 10.4578 13.6361 11.1794C14.313 12.7983 15.888 13.592 17.6577 14.4849C18.7151 15.017 19.8477 15.5852 20.8653 16.397C20.4052 17.0193 20.0247 17.7724 19.7593 18.6923L20.6131 18.9449C20.8343 18.1692 21.1573 17.5289 21.5422 16.9967C21.6882 16.7848 22.1351 16.3068 22.1351 16.3068C24.1127 14.3451 26.9708 14.4443 26.9796 14.4443L27.1566 13.574C27.1566 13.574 25.8868 13.0554 24.8471 11.5131C23.9003 10.1061 25.1745 8.13991 25.179 8.13089L24.4313 7.63484C24.4313 7.63484 22.8253 10.1106 24.1127 12.0227C24.6038 12.7487 25.1436 13.2808 25.617 13.6596C24.4534 13.8536 22.7766 14.3722 21.4537 15.716C20.3698 14.8502 19.1708 14.2459 18.0515 13.6822C16.4411 12.8705 14.9988 12.1489 14.4546 10.8366C14.1228 10.043 13.6494 9.28084 13.1627 8.62244C12.4371 7.63935 11.6761 6.87272 11.3222 6.58862C10.7294 6.1106 10.2648 5.77238 10.2648 5.77238L9.79584 5.42514L9.5879 5.97982C9.5879 5.97982 9.35784 6.60215 8.76942 6.54352C7.73857 6.4398 7.28729 6.77351 6.55729 7.31466C6.41129 7.42289 6.51747 7.34623 6.39802 7.43191C6.38475 7.44093 6.37147 7.44995 6.34935 7.45897C6.18565 7.53563 5.94232 7.44544 5.70341 7.29662C5.40256 7.10722 5.12826 6.83213 4.96899 6.60665C4.92917 6.54803 4.8982 6.49842 4.8805 6.45333C4.83626 6.34961 5.40699 5.90767 5.7919 5.60553C5.9025 5.51985 6.00426 5.44318 6.07947 5.37554C6.26087 5.22221 6.54844 4.8389 6.90238 4.37441C7.5262 3.54916 8.35796 2.44882 8.7296 2.32706L8.99505 2.24138L9.03487 1.96178C9.08796 1.59651 9.10566 1.32142 9.11451 1.09594C9.26493 1.14104 9.40208 1.19515 9.52596 1.26731C9.77814 1.41612 10.0126 1.64611 10.2648 2.0159L10.3887 2.20079L10.6055 2.21432C12.3265 2.30902 13.4989 3.18839 14.6669 4.06776C16.4897 5.43867 18.2992 6.80508 22.0023 5.65964C22.1882 5.60102 22.4271 5.50632 22.7191 5.39358C23.7013 5.00575 25.2896 4.37892 26.6876 4.44656C28.3998 4.53225 29.3422 5.65964 29.3466 5.66415L30.0545 5.61906C30.0545 5.61906 31.3287 3.63935 32.6692 4.53676C34.6778 5.88963 35.6467 5.57396 36.5714 5.27182C37.2439 5.05536 37.8854 4.84341 39.2127 5.76787C37.412 5.71376 36.6333 6.39921 35.9343 7.01703C35.4565 7.43642 35.0229 7.81973 34.1823 7.75209C33.4036 7.68895 33.0276 7.25152 32.709 6.88625C32.0852 6.16472 31.6118 5.62356 30.112 6.64273L29.8067 6.85017L29.9483 7.19741C30.0589 7.46798 30.1164 7.79718 30.1297 8.15344C30.1474 8.66753 30.0589 9.21319 29.8731 9.67317C29.7005 10.0881 29.4439 10.4218 29.1077 10.5661C29.0015 10.6112 28.8821 10.6382 28.7538 10.6427L28.5679 11.4996C29.059 11.7476 29.559 12.0272 30.0368 12.3113C30.3376 12.4917 30.6208 12.6675 30.8818 12.8389C30.8022 12.9426 30.7225 13.0508 30.6385 13.1636C29.1652 15.1207 27.3203 17.5785 28.2671 20.0136L28.2715 20.0001Z" stroke="white" stroke-width="0.4" mask="url(#path-1-outside-1_250_4853)"/>
</g>
</g>
<defs>
<filter id="filter0_d_250_4853" x="0" y="0" width="45" height="28" filterUnits="userSpaceOnUse" color-interpolation-filters="sRGB">
<feFlood flood-opacity="0" result="BackgroundImageFix"/>
<feColorMatrix in="SourceAlpha" type="matrix" values="0 0 0 0 0 0 0 0 0 0 0 0 0 0 0 0 0 0 127 0" result="hardAlpha"/>
<feOffset dy="4"/>
<feGaussianBlur stdDeviation="2"/>
<feComposite in2="hardAlpha" operator="out"/>
<feColorMatrix type="matrix" values="0 0 0 0 0 0 0 0 0 0 0 0 0 0 0 0 0 0 0.25 0"/>
<feBlend mode="normal" in2="BackgroundImageFix" result="effect1_dropShadow_250_4853"/>
<feBlend mode="normal" in="SourceGraphic" in2="effect1_dropShadow_250_4853" result="shape"/>
</filter>
<clipPath id="clip0_250_4853">
<rect width="37" height="20" fill="white" transform="translate(4)"/>
</clipPath>
</defs>
</svg>
