<svg width="18" height="18" viewBox="0 0 18 18" fill="none" xmlns="http://www.w3.org/2000/svg">
<path d="M3.75 15.2502C3.75 15.2502 7.349 14.6822 8.296 13.7352C9.243 12.7882 15.623 6.40824 15.623 6.40824C16.46 5.57124 16.46 4.21424 15.623 3.37824C14.786 2.54124 13.429 2.54124 12.593 3.37824C12.593 3.37824 6.213 9.75824 5.266 10.7052C4.319 11.6522 3.751 15.2512 3.751 15.2512L3.75 15.2502Z" fill="white" fill-opacity="0.3"/>
<path d="M3.75 15.2502C3.75 15.2502 7.349 14.6822 8.296 13.7352C9.243 12.7882 15.623 6.40824 15.623 6.40824C16.46 5.57124 16.46 4.21424 15.623 3.37824C14.786 2.54124 13.429 2.54124 12.593 3.37824C12.593 3.37824 6.213 9.75824 5.266 10.7052C4.319 11.6522 3.751 15.2512 3.751 15.2512L3.75 15.2502Z" stroke="white" stroke-width="1.5" stroke-linecap="round" stroke-linejoin="round"/>
<path d="M8.25 2.75H1.75" stroke="white" stroke-width="1.5" stroke-linecap="round" stroke-linejoin="round"/>
<path d="M4.25 6.25H1.75" stroke="white" stroke-width="1.5" stroke-linecap="round" stroke-linejoin="round"/>
</svg>
