<svg width="18" height="18" viewBox="0 0 18 18" fill="none" xmlns="http://www.w3.org/2000/svg">
<path d="M16 7.206C15.703 7.368 15.362 7.461 15 7.461C14.103 7.461 13.295 6.869 13.007 6.023L12.739 5.219L11.941 4.955C11.071 4.67 10.5 3.858 10.5 2.961C10.5 2.62 10.582 2.292 10.732 2H4.75C3.231 2 2 3.231 2 4.75V13.25C2 14.77 3.231 16 4.75 16H13.25C14.769 16 16 14.77 16 13.25V7.206Z" fill="white" fill-opacity="0.4"/>
<path d="M10.657 7.01094L9.395 6.58094L8.974 5.30994C8.837 4.89994 8.162 4.89994 8.025 5.30994L7.604 6.58094L6.342 7.01094C6.138 7.07094 6 7.26994 6 7.47994C6 7.69994 6.138 7.89094 6.342 7.96094L7.604 8.38094L8.025 9.65994C8.093 9.85994 8.285 9.99994 8.5 9.99994C8.715 9.99994 8.906 9.85994 8.975 9.65994L9.396 8.38094L10.658 7.96094C10.862 7.89094 11 7.69994 11 7.47994C11 7.26994 10.861 7.07094 10.657 7.01094Z" fill="white"/>
<path d="M11.75 12C12.164 12 12.5 11.66 12.5 11.25C12.5 10.84 12.164 10.5 11.75 10.5C11.336 10.5 11 10.84 11 11.25C11 11.66 11.336 12 11.75 12Z" fill="white"/>
<path d="M17.589 2.39117L16.074 1.88117L15.569 0.370168C15.405 -0.118832 14.594 -0.118832 14.43 0.370168L13.925 1.88117L12.41 2.39117C12.165 2.47117 12 2.70117 12 2.96117C12 3.22117 12.165 3.45117 12.41 3.53117L13.925 4.03117L14.43 5.55017C14.512 5.79017 14.742 5.96117 15 5.96117C15.258 5.96117 15.487 5.79017 15.57 5.55017L16.075 4.03117L17.59 3.53117C17.835 3.45117 18 3.22017 18 2.96117C18 2.70117 17.834 2.47017 17.589 2.39117Z" fill="white"/>
</svg>
