<svg width="18" height="18" viewBox="0 0 18 18" fill="none" xmlns="http://www.w3.org/2000/svg">
<path d="M8.33504 1.74316C8.41404 2.14916 8.14904 2.54316 7.74204 2.62216C6.89204 2.78816 6.10004 3.12116 5.40304 3.58516C5.05804 3.81516 4.59204 3.72216 4.36304 3.37716C4.13304 3.03216 4.22704 2.56616 4.57104 2.33716C5.43004 1.76516 6.40604 1.35416 7.45604 1.15016C7.86204 1.07116 8.25604 1.33616 8.33504 1.74316Z" fill="white"/>
<path d="M3.38705 4.35117C3.73205 4.58117 3.82405 5.04717 3.59305 5.39117C3.11905 6.10017 2.78105 6.90517 2.61605 7.77217C2.53805 8.17917 2.14505 8.44617 1.73805 8.36817C1.33105 8.29017 1.06505 7.89717 1.14205 7.49017C1.34705 6.42117 1.76305 5.42917 2.34705 4.55717C2.57705 4.21317 3.04305 4.12017 3.38705 4.35117Z" fill="white" fill-opacity="0.4"/>
<path d="M9.66505 1.74316C9.74405 1.33616 10.1381 1.07116 10.5441 1.15016C11.5941 1.35416 12.5701 1.76516 13.4291 2.33716C13.7731 2.56616 13.8671 3.03216 13.6371 3.37716C13.4081 3.72216 12.9421 3.81516 12.5971 3.58516C11.9001 3.12116 11.1081 2.78816 10.2581 2.62216C9.85105 2.54316 9.58605 2.14916 9.66505 1.74316Z" fill="white" fill-opacity="0.4"/>
<path d="M14.613 4.35117C14.957 4.12017 15.423 4.21317 15.653 4.55717C16.237 5.42917 16.653 6.42117 16.858 7.49017C16.935 7.89717 16.669 8.29017 16.262 8.36817C15.855 8.44617 15.462 8.17917 15.384 7.77217C15.219 6.90517 14.881 6.10017 14.407 5.39117C14.176 5.04717 14.269 4.58117 14.613 4.35117Z" fill="white"/>
<path d="M13.6371 14.623C13.8671 14.968 13.7731 15.434 13.4291 15.663C12.5701 16.235 11.5941 16.646 10.5441 16.85C10.1381 16.929 9.74405 16.664 9.66505 16.258C9.58605 15.851 9.85105 15.457 10.2581 15.378C11.1081 15.212 11.9001 14.879 12.5971 14.415C12.9421 14.185 13.4081 14.279 13.6371 14.623Z" fill="white"/>
<path d="M16.262 9.63241C16.669 9.71041 16.935 10.1034 16.858 10.5104C16.653 11.5794 16.237 12.5724 15.653 13.4434C15.423 13.7884 14.957 13.8804 14.613 13.6494C14.269 13.4194 14.176 12.9534 14.407 12.6094C14.881 11.9014 15.219 11.0954 15.384 10.2284C15.462 9.82141 15.855 9.55541 16.262 9.63241Z" fill="white" fill-opacity="0.4"/>
<path d="M1.73797 9.63237C2.14497 9.55537 2.53797 9.82237 2.61597 10.2284C2.75297 10.9504 3.00997 11.6274 3.36497 12.2424C3.36897 12.2494 3.37397 12.2574 3.37797 12.2654C3.56397 12.6144 3.62397 13.0194 3.62597 13.3924C3.62697 13.7754 3.56797 14.1834 3.46497 14.5804C3.39997 14.8304 3.31397 15.0874 3.20897 15.3394C3.32197 15.3124 3.43497 15.2824 3.54697 15.2494C4.15997 15.0714 4.68097 14.8384 4.96897 14.6524C5.20497 14.4994 5.50697 14.4914 5.75097 14.6324C6.35997 14.9834 7.03097 15.2394 7.74297 15.3784C8.14897 15.4574 8.41397 15.8514 8.33497 16.2584C8.25597 16.6644 7.86197 16.9304 7.45497 16.8504C6.72497 16.7084 6.02897 16.4654 5.38497 16.1394C4.97997 16.3464 4.48197 16.5404 3.96497 16.6904C3.26097 16.8954 2.44897 17.0394 1.70897 16.9994C1.41397 16.9834 1.15497 16.7954 1.04997 16.5184C0.943968 16.2424 1.00997 15.9294 1.21997 15.7204C1.55897 15.3804 1.85597 14.8074 2.01297 14.2024C2.08997 13.9074 2.12697 13.6294 2.12597 13.3994C2.12397 13.1694 2.08597 13.0364 2.05697 12.9774C1.62397 12.2244 1.31097 11.3934 1.14197 10.5104C1.06497 10.1034 1.33097 9.71037 1.73797 9.63237Z" fill="white"/>
</svg>
