<svg width="369" height="254" viewBox="0 0 369 254" fill="none" xmlns="http://www.w3.org/2000/svg">
<rect x="60" width="309" height="40" rx="20" fill="white" fill-opacity="0.06"/>
<path d="M82.584 26V17.324H84.132V17.918V18.494C84.372 18.098 84.732 17.756 85.212 17.468C85.704 17.18 86.232 17.036 86.796 17.036C87.804 17.036 88.59 17.342 89.154 17.954C89.718 18.566 90 19.424 90 20.528V26H88.452V20.726C88.452 19.886 88.302 19.268 88.002 18.872C87.702 18.464 87.216 18.26 86.544 18.26C85.812 18.26 85.224 18.506 84.78 18.998C84.348 19.478 84.132 20.072 84.132 20.78V26H82.584ZM96.2228 26.27C94.9148 26.27 93.8828 25.868 93.1268 25.064C92.3828 24.26 92.0108 23.114 92.0108 21.626C92.0108 20.75 92.1848 19.964 92.5328 19.268C92.8928 18.572 93.3848 18.026 94.0088 17.63C94.6448 17.234 95.3528 17.036 96.1328 17.036C97.4048 17.036 98.3888 17.45 99.0848 18.278C99.7928 19.106 100.147 20.228 100.147 21.644V21.95H93.5588C93.5708 22.91 93.8288 23.672 94.3328 24.236C94.8368 24.788 95.4728 25.064 96.2408 25.064C96.8288 25.064 97.3328 24.932 97.7528 24.668C98.1728 24.392 98.4308 23.942 98.5268 23.318H100.057C99.9608 24.158 99.5888 24.86 98.9408 25.424C98.2928 25.988 97.3868 26.27 96.2228 26.27ZM98.4908 20.852C98.4908 20.06 98.2808 19.43 97.8608 18.962C97.4528 18.494 96.8768 18.26 96.1328 18.26C95.4248 18.26 94.8428 18.506 94.3868 18.998C93.9308 19.49 93.6728 20.108 93.6128 20.852H98.4908ZM106.015 26.27C105.211 26.27 104.479 26.096 103.819 25.748C103.171 25.4 102.655 24.878 102.271 24.182C101.899 23.486 101.713 22.64 101.713 21.644C101.713 20.744 101.905 19.946 102.289 19.25C102.673 18.554 103.195 18.014 103.855 17.63C104.527 17.234 105.271 17.036 106.087 17.036C107.119 17.036 107.983 17.33 108.679 17.918C109.387 18.494 109.783 19.268 109.867 20.24H108.265C108.193 19.652 107.959 19.178 107.563 18.818C107.179 18.446 106.675 18.26 106.051 18.26C105.511 18.26 105.031 18.41 104.611 18.71C104.203 18.998 103.885 19.4 103.657 19.916C103.429 20.432 103.315 21.008 103.315 21.644C103.315 22.676 103.567 23.504 104.071 24.128C104.575 24.752 105.247 25.064 106.087 25.064C106.723 25.064 107.245 24.89 107.653 24.542C108.061 24.194 108.307 23.708 108.391 23.084H109.921C109.837 24.056 109.453 24.83 108.769 25.406C108.097 25.982 107.179 26.27 106.015 26.27ZM115.576 26.27C114.268 26.27 113.236 25.868 112.48 25.064C111.736 24.26 111.364 23.114 111.364 21.626C111.364 20.75 111.538 19.964 111.886 19.268C112.246 18.572 112.738 18.026 113.362 17.63C113.998 17.234 114.706 17.036 115.486 17.036C116.758 17.036 117.742 17.45 118.438 18.278C119.146 19.106 119.5 20.228 119.5 21.644V21.95H112.912C112.924 22.91 113.182 23.672 113.686 24.236C114.19 24.788 114.826 25.064 115.594 25.064C116.182 25.064 116.686 24.932 117.106 24.668C117.526 24.392 117.784 23.942 117.88 23.318H119.41C119.314 24.158 118.942 24.86 118.294 25.424C117.646 25.988 116.74 26.27 115.576 26.27ZM117.844 20.852C117.844 20.06 117.634 19.43 117.214 18.962C116.806 18.494 116.23 18.26 115.486 18.26C114.778 18.26 114.196 18.506 113.74 18.998C113.284 19.49 113.026 20.108 112.966 20.852H117.844ZM124.667 26.27C123.515 26.27 122.609 25.988 121.949 25.424C121.301 24.848 120.965 24.086 120.941 23.138H122.453C122.477 23.738 122.681 24.212 123.065 24.56C123.461 24.896 124.001 25.064 124.685 25.064C125.285 25.064 125.765 24.938 126.125 24.686C126.497 24.422 126.683 24.074 126.683 23.642C126.683 22.946 126.179 22.502 125.171 22.31L123.857 22.058C123.029 21.902 122.381 21.614 121.913 21.194C121.445 20.774 121.211 20.24 121.211 19.592C121.211 19.1 121.355 18.662 121.643 18.278C121.931 17.894 122.327 17.594 122.831 17.378C123.347 17.15 123.929 17.036 124.577 17.036C125.621 17.036 126.443 17.282 127.043 17.774C127.643 18.254 127.973 18.938 128.033 19.826H126.503C126.443 19.31 126.233 18.92 125.873 18.656C125.525 18.392 125.057 18.26 124.469 18.26C123.953 18.26 123.539 18.374 123.227 18.602C122.915 18.83 122.759 19.13 122.759 19.502C122.759 19.838 122.879 20.102 123.119 20.294C123.359 20.486 123.731 20.63 124.235 20.726L125.585 20.978C126.413 21.134 127.055 21.416 127.511 21.824C127.979 22.232 128.213 22.784 128.213 23.48C128.213 23.996 128.069 24.47 127.781 24.902C127.493 25.322 127.079 25.658 126.539 25.91C126.011 26.15 125.387 26.27 124.667 26.27ZM130.2 15.686V13.832H131.982V15.686H130.2ZM130.326 17.324H131.874V26H130.326V17.324ZM137.605 26.09C136.885 26.09 136.291 25.892 135.823 25.496C135.367 25.088 135.139 24.434 135.139 23.534V18.602H133.519V17.324H135.139V14.462H136.687V17.324H138.487V18.602H136.687V23.372C136.687 23.852 136.795 24.194 137.011 24.398C137.239 24.602 137.557 24.704 137.965 24.704C138.145 24.704 138.361 24.686 138.613 24.65V25.982C138.289 26.054 137.953 26.09 137.605 26.09ZM144.071 26.27C143.243 26.27 142.505 26.078 141.857 25.694C141.209 25.31 140.705 24.77 140.345 24.074C139.985 23.366 139.805 22.556 139.805 21.644C139.805 20.756 139.985 19.964 140.345 19.268C140.705 18.56 141.209 18.014 141.857 17.63C142.505 17.234 143.243 17.036 144.071 17.036C144.887 17.036 145.619 17.234 146.267 17.63C146.915 18.014 147.419 18.56 147.779 19.268C148.151 19.964 148.337 20.756 148.337 21.644C148.337 22.556 148.151 23.366 147.779 24.074C147.419 24.77 146.915 25.31 146.267 25.694C145.619 26.078 144.887 26.27 144.071 26.27ZM144.071 25.064C144.887 25.064 145.535 24.752 146.015 24.128C146.495 23.504 146.735 22.676 146.735 21.644C146.735 20.624 146.489 19.808 145.997 19.196C145.517 18.572 144.875 18.26 144.071 18.26C143.267 18.26 142.619 18.572 142.127 19.196C141.647 19.808 141.407 20.624 141.407 21.644C141.407 22.676 141.647 23.504 142.127 24.128C142.607 24.752 143.255 25.064 144.071 25.064ZM154.707 26V13.4H156.255V17.756V18.494C156.495 18.062 156.855 17.714 157.335 17.45C157.815 17.174 158.343 17.036 158.919 17.036C159.927 17.036 160.713 17.342 161.277 17.954C161.841 18.566 162.123 19.424 162.123 20.528V26H160.575V20.726C160.575 19.886 160.419 19.268 160.107 18.872C159.795 18.464 159.297 18.26 158.613 18.26C157.893 18.26 157.317 18.506 156.885 18.998C156.465 19.478 156.255 20.072 156.255 20.78V26H154.707ZM167.14 26.27C166.288 26.27 165.574 26.03 164.998 25.55C164.434 25.07 164.152 24.428 164.152 23.624C164.152 22.844 164.416 22.238 164.944 21.806C165.484 21.362 166.18 21.068 167.032 20.924L168.886 20.636C169.21 20.588 169.438 20.498 169.57 20.366C169.702 20.234 169.768 20.036 169.768 19.772C169.768 19.304 169.606 18.938 169.282 18.674C168.958 18.398 168.538 18.26 168.022 18.26C167.374 18.26 166.876 18.422 166.528 18.746C166.18 19.058 165.994 19.49 165.97 20.042H164.422C164.446 19.502 164.596 19.004 164.872 18.548C165.148 18.092 165.544 17.726 166.06 17.45C166.588 17.174 167.2 17.036 167.896 17.036C168.964 17.036 169.792 17.33 170.38 17.918C170.98 18.506 171.28 19.304 171.28 20.312V26H169.804V25.568V24.83C169.588 25.286 169.246 25.64 168.778 25.892C168.322 26.144 167.776 26.27 167.14 26.27ZM167.356 25.064C168.052 25.064 168.628 24.848 169.084 24.416C169.54 23.984 169.768 23.42 169.768 22.724V21.446C169.672 21.59 169.354 21.716 168.814 21.824L167.554 22.058C166.354 22.286 165.754 22.808 165.754 23.624C165.754 24.056 165.904 24.404 166.204 24.668C166.516 24.932 166.9 25.064 167.356 25.064ZM178.206 26.27C177.606 26.27 177.054 26.138 176.55 25.874C176.046 25.598 175.656 25.238 175.38 24.794V25.532V26H173.832V13.4H175.38V17.792V18.494C175.68 18.074 176.076 17.726 176.568 17.45C177.072 17.174 177.63 17.036 178.242 17.036C179.058 17.036 179.766 17.234 180.366 17.63C180.978 18.026 181.44 18.578 181.752 19.286C182.076 19.982 182.238 20.774 182.238 21.662C182.238 22.562 182.07 23.36 181.734 24.056C181.41 24.752 180.942 25.298 180.33 25.694C179.718 26.078 179.01 26.27 178.206 26.27ZM177.954 25.064C178.758 25.064 179.4 24.752 179.88 24.128C180.372 23.492 180.618 22.67 180.618 21.662C180.618 20.654 180.372 19.838 179.88 19.214C179.4 18.578 178.758 18.26 177.954 18.26C177.162 18.26 176.52 18.566 176.028 19.178C175.536 19.778 175.29 20.6 175.29 21.644C175.29 22.316 175.404 22.91 175.632 23.426C175.86 23.942 176.172 24.344 176.568 24.632C176.976 24.92 177.438 25.064 177.954 25.064ZM184.326 13.4H185.874V26H184.326V13.4ZM190.993 26.27C190.141 26.27 189.427 26.03 188.851 25.55C188.287 25.07 188.005 24.428 188.005 23.624C188.005 22.844 188.269 22.238 188.797 21.806C189.337 21.362 190.033 21.068 190.885 20.924L192.739 20.636C193.063 20.588 193.291 20.498 193.423 20.366C193.555 20.234 193.621 20.036 193.621 19.772C193.621 19.304 193.459 18.938 193.135 18.674C192.811 18.398 192.391 18.26 191.875 18.26C191.227 18.26 190.729 18.422 190.381 18.746C190.033 19.058 189.847 19.49 189.823 20.042H188.275C188.299 19.502 188.449 19.004 188.725 18.548C189.001 18.092 189.397 17.726 189.913 17.45C190.441 17.174 191.053 17.036 191.749 17.036C192.817 17.036 193.645 17.33 194.233 17.918C194.833 18.506 195.133 19.304 195.133 20.312V26H193.657V25.568V24.83C193.441 25.286 193.099 25.64 192.631 25.892C192.175 26.144 191.629 26.27 190.993 26.27ZM191.209 25.064C191.905 25.064 192.481 24.848 192.937 24.416C193.393 23.984 193.621 23.42 193.621 22.724V21.446C193.525 21.59 193.207 21.716 192.667 21.824L191.407 22.058C190.207 22.286 189.607 22.808 189.607 23.624C189.607 24.056 189.757 24.404 190.057 24.668C190.369 24.932 190.753 25.064 191.209 25.064ZM197.686 26V17.324H199.234V17.702V18.764C199.462 18.248 199.81 17.834 200.278 17.522C200.758 17.198 201.316 17.036 201.952 17.036C202.12 17.036 202.252 17.042 202.348 17.054V18.584C202.18 18.56 202.018 18.548 201.862 18.548C201.01 18.548 200.356 18.788 199.9 19.268C199.456 19.748 199.234 20.462 199.234 21.41V26H197.686ZM211.484 26.27C210.68 26.27 209.948 26.096 209.288 25.748C208.64 25.4 208.124 24.878 207.74 24.182C207.368 23.486 207.182 22.64 207.182 21.644C207.182 20.744 207.374 19.946 207.758 19.25C208.142 18.554 208.664 18.014 209.324 17.63C209.996 17.234 210.74 17.036 211.556 17.036C212.588 17.036 213.452 17.33 214.148 17.918C214.856 18.494 215.252 19.268 215.336 20.24H213.734C213.662 19.652 213.428 19.178 213.032 18.818C212.648 18.446 212.144 18.26 211.52 18.26C210.98 18.26 210.5 18.41 210.08 18.71C209.672 18.998 209.354 19.4 209.126 19.916C208.898 20.432 208.784 21.008 208.784 21.644C208.784 22.676 209.036 23.504 209.54 24.128C210.044 24.752 210.716 25.064 211.556 25.064C212.192 25.064 212.714 24.89 213.122 24.542C213.53 24.194 213.776 23.708 213.86 23.084H215.39C215.306 24.056 214.922 24.83 214.238 25.406C213.566 25.982 212.648 26.27 211.484 26.27ZM221.081 26.27C220.253 26.27 219.515 26.078 218.867 25.694C218.219 25.31 217.715 24.77 217.355 24.074C216.995 23.366 216.815 22.556 216.815 21.644C216.815 20.756 216.995 19.964 217.355 19.268C217.715 18.56 218.219 18.014 218.867 17.63C219.515 17.234 220.253 17.036 221.081 17.036C221.897 17.036 222.629 17.234 223.277 17.63C223.925 18.014 224.429 18.56 224.789 19.268C225.161 19.964 225.347 20.756 225.347 21.644C225.347 22.556 225.161 23.366 224.789 24.074C224.429 24.77 223.925 25.31 223.277 25.694C222.629 26.078 221.897 26.27 221.081 26.27ZM221.081 25.064C221.897 25.064 222.545 24.752 223.025 24.128C223.505 23.504 223.745 22.676 223.745 21.644C223.745 20.624 223.499 19.808 223.007 19.196C222.527 18.572 221.885 18.26 221.081 18.26C220.277 18.26 219.629 18.572 219.137 19.196C218.657 19.808 218.417 20.624 218.417 21.644C218.417 22.676 218.657 23.504 219.137 24.128C219.617 24.752 220.265 25.064 221.081 25.064ZM227.445 26V17.324H228.993V17.918V18.494C229.233 18.098 229.593 17.756 230.073 17.468C230.565 17.18 231.093 17.036 231.657 17.036C232.665 17.036 233.451 17.342 234.015 17.954C234.579 18.566 234.861 19.424 234.861 20.528V26H233.313V20.726C233.313 19.886 233.163 19.268 232.863 18.872C232.563 18.464 232.077 18.26 231.405 18.26C230.673 18.26 230.085 18.506 229.641 18.998C229.209 19.478 228.993 20.072 228.993 20.78V26H227.445ZM244.708 26.27C243.688 26.27 242.908 25.976 242.368 25.388C241.84 24.8 241.576 23.954 241.576 22.85V17.324H243.124V22.526C243.124 23.378 243.28 24.014 243.592 24.434C243.904 24.854 244.408 25.064 245.104 25.064C245.812 25.064 246.358 24.806 246.742 24.29C247.126 23.774 247.318 23.048 247.318 22.112V17.324H248.848V26H247.336V25.478V24.794C247.132 25.25 246.79 25.61 246.31 25.874C245.83 26.138 245.296 26.27 244.708 26.27ZM251.51 26V17.324H253.058V17.918V18.494C253.298 18.098 253.658 17.756 254.138 17.468C254.63 17.18 255.158 17.036 255.722 17.036C256.73 17.036 257.516 17.342 258.08 17.954C258.644 18.566 258.926 19.424 258.926 20.528V26H257.378V20.726C257.378 19.886 257.228 19.268 256.928 18.872C256.628 18.464 256.142 18.26 255.47 18.26C254.738 18.26 254.15 18.506 253.706 18.998C253.274 19.478 253.058 20.072 253.058 20.78V26H251.51ZM267.734 26L264.404 17.324H266.096L268.31 23.606L268.454 24.02C268.55 24.308 268.598 24.452 268.598 24.452C268.598 24.452 268.646 24.308 268.742 24.02L268.886 23.606L271.046 17.324H272.666L269.372 26H267.734ZM277.752 26.27C276.444 26.27 275.412 25.868 274.656 25.064C273.912 24.26 273.54 23.114 273.54 21.626C273.54 20.75 273.714 19.964 274.062 19.268C274.422 18.572 274.914 18.026 275.538 17.63C276.174 17.234 276.882 17.036 277.662 17.036C278.934 17.036 279.918 17.45 280.614 18.278C281.322 19.106 281.676 20.228 281.676 21.644V21.95H275.088C275.1 22.91 275.358 23.672 275.862 24.236C276.366 24.788 277.002 25.064 277.77 25.064C278.358 25.064 278.862 24.932 279.282 24.668C279.702 24.392 279.96 23.942 280.056 23.318H281.586C281.49 24.158 281.118 24.86 280.47 25.424C279.822 25.988 278.916 26.27 277.752 26.27ZM280.02 20.852C280.02 20.06 279.81 19.43 279.39 18.962C278.982 18.494 278.406 18.26 277.662 18.26C276.954 18.26 276.372 18.506 275.916 18.998C275.46 19.49 275.202 20.108 275.142 20.852H280.02ZM286.773 26.09C286.053 26.09 285.459 25.892 284.991 25.496C284.535 25.088 284.307 24.434 284.307 23.534V18.602H282.687V17.324H284.307V14.462H285.855V17.324H287.655V18.602H285.855V23.372C285.855 23.852 285.963 24.194 286.179 24.398C286.407 24.602 286.725 24.704 287.133 24.704C287.313 24.704 287.529 24.686 287.781 24.65V25.982C287.457 26.054 287.121 26.09 286.773 26.09ZM293.203 26.27C291.895 26.27 290.863 25.868 290.107 25.064C289.363 24.26 288.991 23.114 288.991 21.626C288.991 20.75 289.165 19.964 289.513 19.268C289.873 18.572 290.365 18.026 290.989 17.63C291.625 17.234 292.333 17.036 293.113 17.036C294.385 17.036 295.369 17.45 296.065 18.278C296.773 19.106 297.127 20.228 297.127 21.644V21.95H290.539C290.551 22.91 290.809 23.672 291.313 24.236C291.817 24.788 292.453 25.064 293.221 25.064C293.809 25.064 294.313 24.932 294.733 24.668C295.153 24.392 295.411 23.942 295.507 23.318H297.037C296.941 24.158 296.569 24.86 295.921 25.424C295.273 25.988 294.367 26.27 293.203 26.27ZM295.471 20.852C295.471 20.06 295.261 19.43 294.841 18.962C294.433 18.494 293.857 18.26 293.113 18.26C292.405 18.26 291.823 18.506 291.367 18.998C290.911 19.49 290.653 20.108 290.593 20.852H295.471ZM299.252 26V17.324H300.8V17.702V18.764C301.028 18.248 301.376 17.834 301.844 17.522C302.324 17.198 302.882 17.036 303.518 17.036C303.686 17.036 303.818 17.042 303.914 17.054V18.584C303.746 18.56 303.584 18.548 303.428 18.548C302.576 18.548 301.922 18.788 301.466 19.268C301.022 19.748 300.8 20.462 300.8 21.41V26H299.252ZM305.366 15.686V13.832H307.148V15.686H305.366ZM305.492 17.324H307.04V26H305.492V17.324ZM309.693 26V17.324H311.241V17.918V18.494C311.481 18.098 311.841 17.756 312.321 17.468C312.813 17.18 313.341 17.036 313.905 17.036C314.913 17.036 315.699 17.342 316.263 17.954C316.827 18.566 317.109 19.424 317.109 20.528V26H315.561V20.726C315.561 19.886 315.411 19.268 315.111 18.872C314.811 18.464 314.325 18.26 313.653 18.26C312.921 18.26 312.333 18.506 311.889 18.998C311.457 19.478 311.241 20.072 311.241 20.78V26H309.693ZM322.126 26.27C321.274 26.27 320.56 26.03 319.984 25.55C319.42 25.07 319.138 24.428 319.138 23.624C319.138 22.844 319.402 22.238 319.93 21.806C320.47 21.362 321.166 21.068 322.018 20.924L323.872 20.636C324.196 20.588 324.424 20.498 324.556 20.366C324.688 20.234 324.754 20.036 324.754 19.772C324.754 19.304 324.592 18.938 324.268 18.674C323.944 18.398 323.524 18.26 323.008 18.26C322.36 18.26 321.862 18.422 321.514 18.746C321.166 19.058 320.98 19.49 320.956 20.042H319.408C319.432 19.502 319.582 19.004 319.858 18.548C320.134 18.092 320.53 17.726 321.046 17.45C321.574 17.174 322.186 17.036 322.882 17.036C323.95 17.036 324.778 17.33 325.366 17.918C325.966 18.506 326.266 19.304 326.266 20.312V26H324.79V25.568V24.83C324.574 25.286 324.232 25.64 323.764 25.892C323.308 26.144 322.762 26.27 322.126 26.27ZM322.342 25.064C323.038 25.064 323.614 24.848 324.07 24.416C324.526 23.984 324.754 23.42 324.754 22.724V21.446C324.658 21.59 324.34 21.716 323.8 21.824L322.54 22.058C321.34 22.286 320.74 22.808 320.74 23.624C320.74 24.056 320.89 24.404 321.19 24.668C321.502 24.932 321.886 25.064 322.342 25.064ZM328.818 26V17.324H330.366V17.702V18.764C330.594 18.248 330.942 17.834 331.41 17.522C331.89 17.198 332.448 17.036 333.084 17.036C333.252 17.036 333.384 17.042 333.48 17.054V18.584C333.312 18.56 333.15 18.548 332.994 18.548C332.142 18.548 331.488 18.788 331.032 19.268C330.588 19.748 330.366 20.462 330.366 21.41V26H328.818ZM334.933 15.686V13.832H336.715V15.686H334.933ZM335.059 17.324H336.607V26H335.059V17.324ZM342.968 26.27C342.14 26.27 341.402 26.078 340.754 25.694C340.106 25.31 339.602 24.77 339.242 24.074C338.882 23.366 338.702 22.556 338.702 21.644C338.702 20.756 338.882 19.964 339.242 19.268C339.602 18.56 340.106 18.014 340.754 17.63C341.402 17.234 342.14 17.036 342.968 17.036C343.784 17.036 344.516 17.234 345.164 17.63C345.812 18.014 346.316 18.56 346.676 19.268C347.048 19.964 347.234 20.756 347.234 21.644C347.234 22.556 347.048 23.366 346.676 24.074C346.316 24.77 345.812 25.31 345.164 25.694C344.516 26.078 343.784 26.27 342.968 26.27ZM342.968 25.064C343.784 25.064 344.432 24.752 344.912 24.128C345.392 23.504 345.632 22.676 345.632 21.644C345.632 20.624 345.386 19.808 344.894 19.196C344.414 18.572 343.772 18.26 342.968 18.26C342.164 18.26 341.516 18.572 341.024 19.196C340.544 19.808 340.304 20.624 340.304 21.644C340.304 22.676 340.544 23.504 341.024 24.128C341.504 24.752 342.152 25.064 342.968 25.064Z" fill="white"/>
<rect y="66" width="311" height="188" rx="40" fill="black" fill-opacity="0.36"/>
<path d="M22.056 95.288H23.704V97.032H22.056V95.288ZM22.552 98.296H23.208L23.64 102.92V106.488H22.104V102.92L22.552 98.296ZM27.6773 103H26.2213V91.8H27.6773V96.504H33.6293V91.8H35.0853V103H33.6293V97.736H27.6773V103ZM40.9175 103.24C40.1815 103.24 39.5255 103.069 38.9495 102.728C38.3735 102.387 37.9255 101.907 37.6055 101.288C37.2855 100.659 37.1255 99.9387 37.1255 99.128C37.1255 98.3387 37.2855 97.6347 37.6055 97.016C37.9255 96.3867 38.3735 95.9013 38.9495 95.56C39.5255 95.208 40.1815 95.032 40.9175 95.032C41.6428 95.032 42.2935 95.208 42.8695 95.56C43.4455 95.9013 43.8935 96.3867 44.2135 97.016C44.5442 97.6347 44.7095 98.3387 44.7095 99.128C44.7095 99.9387 44.5442 100.659 44.2135 101.288C43.8935 101.907 43.4455 102.387 42.8695 102.728C42.2935 103.069 41.6428 103.24 40.9175 103.24ZM40.9175 102.168C41.6428 102.168 42.2188 101.891 42.6455 101.336C43.0722 100.781 43.2855 100.045 43.2855 99.128C43.2855 98.2213 43.0668 97.496 42.6295 96.952C42.2028 96.3973 41.6322 96.12 40.9175 96.12C40.2028 96.12 39.6268 96.3973 39.1895 96.952C38.7628 97.496 38.5495 98.2213 38.5495 99.128C38.5495 100.045 38.7628 100.781 39.1895 101.336C39.6162 101.891 40.1922 102.168 40.9175 102.168ZM46.5746 91.8H47.9506V103H46.5746V91.8ZM52.501 103.24C51.7437 103.24 51.109 103.027 50.597 102.6C50.0957 102.173 49.845 101.603 49.845 100.888C49.845 100.195 50.0797 99.656 50.549 99.272C51.029 98.8773 51.6477 98.616 52.405 98.488L54.053 98.232C54.341 98.1893 54.5437 98.1093 54.661 97.992C54.7783 97.8747 54.837 97.6987 54.837 97.464C54.837 97.048 54.693 96.7227 54.405 96.488C54.117 96.2427 53.7437 96.12 53.285 96.12C52.709 96.12 52.2663 96.264 51.957 96.552C51.6477 96.8293 51.4823 97.2133 51.461 97.704H50.085C50.1063 97.224 50.2397 96.7813 50.485 96.376C50.7303 95.9707 51.0823 95.6453 51.541 95.4C52.0103 95.1547 52.5543 95.032 53.173 95.032C54.1223 95.032 54.8583 95.2933 55.381 95.816C55.9143 96.3387 56.181 97.048 56.181 97.944V103H54.869V102.616V101.96C54.677 102.365 54.373 102.68 53.957 102.904C53.5517 103.128 53.0663 103.24 52.501 103.24ZM52.693 102.168C53.3117 102.168 53.8237 101.976 54.229 101.592C54.6343 101.208 54.837 100.707 54.837 100.088V98.952C54.7517 99.08 54.469 99.192 53.989 99.288L52.869 99.496C51.8023 99.6987 51.269 100.163 51.269 100.888C51.269 101.272 51.4023 101.581 51.669 101.816C51.9463 102.051 52.2877 102.168 52.693 102.168ZM59.5856 99.992H58.9296L58.4976 95.368V91.8H60.0336V95.368L59.5856 99.992ZM60.0816 103H58.4336V101.256H60.0816V103ZM68.4869 95.288H70.1349V97.032H68.4869V95.288ZM70.0229 98.296C70.0229 99.0533 69.9162 99.672 69.7029 100.152C69.5002 100.632 69.0842 101.128 68.4549 101.64L68.0549 101.976C67.3509 102.531 66.9989 103.149 66.9989 103.832C66.9989 104.344 67.1749 104.765 67.5269 105.096C67.8789 105.427 68.3589 105.592 68.9669 105.592C69.6709 105.592 70.2255 105.363 70.6309 104.904C71.0362 104.456 71.2389 103.843 71.2389 103.064H72.6629C72.6629 103.821 72.5029 104.477 72.1829 105.032C71.8735 105.587 71.4362 106.008 70.8709 106.296C70.3162 106.595 69.6815 106.744 68.9669 106.744C68.3162 106.744 67.7295 106.616 67.2069 106.36C66.6842 106.104 66.2735 105.757 65.9749 105.32C65.6869 104.893 65.5429 104.429 65.5429 103.928C65.5429 103.32 65.6869 102.787 65.9749 102.328C66.2735 101.869 66.7002 101.416 67.2549 100.968L67.6869 100.616C68.0282 100.339 68.2682 100.024 68.4069 99.672C68.5562 99.32 68.6309 98.8613 68.6309 98.296H70.0229ZM74.3306 103V91.8H78.6986C79.808 91.8 80.7253 92.0453 81.4506 92.536C82.176 93.0267 82.5386 93.8427 82.5386 94.984C82.5386 96.1253 82.1813 96.9413 81.4666 97.432C80.7626 97.912 79.84 98.152 78.6986 98.152H75.7866V103H74.3306ZM78.6826 96.936C80.2613 96.936 81.0506 96.2853 81.0506 94.984C81.0506 93.672 80.2613 93.016 78.6826 93.016H75.7866V96.936H78.6826ZM87.0894 103.24C86.3534 103.24 85.6974 103.069 85.1214 102.728C84.5454 102.387 84.0974 101.907 83.7774 101.288C83.4574 100.659 83.2974 99.9387 83.2974 99.128C83.2974 98.3387 83.4574 97.6347 83.7774 97.016C84.0974 96.3867 84.5454 95.9013 85.1214 95.56C85.6974 95.208 86.3534 95.032 87.0894 95.032C87.8147 95.032 88.4654 95.208 89.0414 95.56C89.6174 95.9013 90.0654 96.3867 90.3854 97.016C90.716 97.6347 90.8814 98.3387 90.8814 99.128C90.8814 99.9387 90.716 100.659 90.3854 101.288C90.0654 101.907 89.6174 102.387 89.0414 102.728C88.4654 103.069 87.8147 103.24 87.0894 103.24ZM87.0894 102.168C87.8147 102.168 88.3907 101.891 88.8174 101.336C89.244 100.781 89.4574 100.045 89.4574 99.128C89.4574 98.2213 89.2387 97.496 88.8014 96.952C88.3747 96.3973 87.804 96.12 87.0894 96.12C86.3747 96.12 85.7987 96.3973 85.3614 96.952C84.9347 97.496 84.7214 98.2213 84.7214 99.128C84.7214 100.045 84.9347 100.781 85.3614 101.336C85.788 101.891 86.364 102.168 87.0894 102.168ZM95.8025 103.24C95.1198 103.24 94.5118 103.08 93.9785 102.76C93.4452 102.44 93.0238 101.971 92.7145 101.352C92.4052 100.733 92.2505 99.9973 92.2505 99.144C92.2505 98.3653 92.3945 97.6667 92.6825 97.048C92.9812 96.4187 93.4025 95.928 93.9465 95.576C94.4905 95.2133 95.1198 95.032 95.8345 95.032C96.4212 95.032 96.9278 95.1653 97.3545 95.432C97.7918 95.688 98.1118 95.9867 98.3145 96.328V95.704V91.8H99.6905V103H98.3145V102.552V101.928C98.1012 102.301 97.7652 102.616 97.3065 102.872C96.8585 103.117 96.3572 103.24 95.8025 103.24ZM96.0425 102.168C96.7358 102.168 97.3012 101.891 97.7385 101.336C98.1865 100.781 98.4105 100.045 98.4105 99.128C98.4105 98.2213 98.1918 97.496 97.7545 96.952C97.3172 96.3973 96.7465 96.12 96.0425 96.12C95.3385 96.12 94.7678 96.4027 94.3305 96.968C93.8932 97.5227 93.6745 98.248 93.6745 99.144C93.6745 100.051 93.8932 100.781 94.3305 101.336C94.7678 101.891 95.3385 102.168 96.0425 102.168ZM102.059 103V95.288H103.435V95.624V96.568C103.638 96.1093 103.947 95.7413 104.363 95.464C104.79 95.176 105.286 95.032 105.851 95.032C106 95.032 106.118 95.0373 106.203 95.048V96.408C106.054 96.3867 105.91 96.376 105.771 96.376C105.014 96.376 104.432 96.5893 104.027 97.016C103.632 97.4427 103.435 98.0773 103.435 98.92V103H102.059ZM108.806 91.864H110.518L108.822 93.928H107.67L108.806 91.864ZM107.606 95.288H108.982V103H107.606V95.288ZM113.532 103.24C112.775 103.24 112.14 103.027 111.628 102.6C111.127 102.173 110.876 101.603 110.876 100.888C110.876 100.195 111.111 99.656 111.58 99.272C112.06 98.8773 112.679 98.616 113.436 98.488L115.084 98.232C115.372 98.1893 115.575 98.1093 115.692 97.992C115.81 97.8747 115.868 97.6987 115.868 97.464C115.868 97.048 115.724 96.7227 115.436 96.488C115.148 96.2427 114.775 96.12 114.316 96.12C113.74 96.12 113.298 96.264 112.988 96.552C112.679 96.8293 112.514 97.2133 112.492 97.704H111.116C111.138 97.224 111.271 96.7813 111.516 96.376C111.762 95.9707 112.114 95.6453 112.572 95.4C113.042 95.1547 113.586 95.032 114.204 95.032C115.154 95.032 115.89 95.2933 116.412 95.816C116.946 96.3387 117.212 97.048 117.212 97.944V103H115.9V102.616V101.96C115.708 102.365 115.404 102.68 114.988 102.904C114.583 103.128 114.098 103.24 113.532 103.24ZM113.724 102.168C114.343 102.168 114.855 101.976 115.26 101.592C115.666 101.208 115.868 100.707 115.868 100.088V98.952C115.783 99.08 115.5 99.192 115.02 99.288L113.9 99.496C112.834 99.6987 112.3 100.163 112.3 100.888C112.3 101.272 112.434 101.581 112.7 101.816C112.978 102.051 113.319 102.168 113.724 102.168ZM122.185 103.24C121.161 103.24 120.356 102.989 119.769 102.488C119.193 101.976 118.894 101.299 118.873 100.456H120.217C120.238 100.989 120.42 101.411 120.761 101.72C121.113 102.019 121.593 102.168 122.201 102.168C122.734 102.168 123.161 102.056 123.481 101.832C123.812 101.597 123.977 101.288 123.977 100.904C123.977 100.285 123.529 99.8907 122.633 99.72L121.465 99.496C120.729 99.3573 120.153 99.1013 119.737 98.728C119.321 98.3547 119.113 97.88 119.113 97.304C119.113 96.8667 119.241 96.4773 119.497 96.136C119.753 95.7947 120.105 95.528 120.553 95.336C121.012 95.1333 121.529 95.032 122.105 95.032C123.033 95.032 123.764 95.2507 124.297 95.688C124.83 96.1147 125.124 96.7227 125.177 97.512H123.817C123.764 97.0533 123.577 96.7067 123.257 96.472C122.948 96.2373 122.532 96.12 122.009 96.12C121.55 96.12 121.182 96.2213 120.905 96.424C120.628 96.6267 120.489 96.8933 120.489 97.224C120.489 97.5227 120.596 97.7573 120.809 97.928C121.022 98.0987 121.353 98.2267 121.801 98.312L123.001 98.536C123.737 98.6747 124.308 98.9253 124.713 99.288C125.129 99.6507 125.337 100.141 125.337 100.76C125.337 101.219 125.209 101.64 124.953 102.024C124.697 102.397 124.329 102.696 123.849 102.92C123.38 103.133 122.825 103.24 122.185 103.24ZM131.012 106.376V95.288H132.388V95.848V96.344C132.623 95.9813 132.969 95.672 133.428 95.416C133.887 95.16 134.388 95.032 134.932 95.032C135.657 95.032 136.287 95.208 136.82 95.56C137.364 95.912 137.775 96.3973 138.052 97.016C138.34 97.6347 138.484 98.3387 138.484 99.128C138.484 99.9387 138.335 100.653 138.036 101.272C137.737 101.891 137.316 102.376 136.772 102.728C136.228 103.069 135.604 103.24 134.9 103.24C134.356 103.24 133.865 103.123 133.428 102.888C132.991 102.653 132.644 102.333 132.388 101.928V102.568V106.376H131.012ZM134.692 102.168C135.396 102.168 135.961 101.891 136.388 101.336C136.825 100.771 137.044 100.035 137.044 99.128C137.044 98.232 136.825 97.5067 136.388 96.952C135.961 96.3973 135.396 96.12 134.692 96.12C133.988 96.12 133.412 96.3973 132.964 96.952C132.527 97.496 132.308 98.2213 132.308 99.128C132.308 100.035 132.527 100.771 132.964 101.336C133.412 101.891 133.988 102.168 134.692 102.168ZM140.34 103V95.288H141.716V95.624V96.568C141.919 96.1093 142.228 95.7413 142.644 95.464C143.071 95.176 143.567 95.032 144.132 95.032C144.282 95.032 144.399 95.0373 144.484 95.048V96.408C144.335 96.3867 144.191 96.376 144.052 96.376C143.295 96.376 142.714 96.5893 142.308 97.016C141.914 97.4427 141.716 98.0773 141.716 98.92V103H140.34ZM148.996 103.24C148.26 103.24 147.604 103.069 147.028 102.728C146.452 102.387 146.004 101.907 145.684 101.288C145.364 100.659 145.204 99.9387 145.204 99.128C145.204 98.3387 145.364 97.6347 145.684 97.016C146.004 96.3867 146.452 95.9013 147.028 95.56C147.604 95.208 148.26 95.032 148.996 95.032C149.721 95.032 150.372 95.208 150.948 95.56C151.524 95.9013 151.972 96.3867 152.292 97.016C152.622 97.6347 152.788 98.3387 152.788 99.128C152.788 99.9387 152.622 100.659 152.292 101.288C151.972 101.907 151.524 102.387 150.948 102.728C150.372 103.069 149.721 103.24 148.996 103.24ZM148.996 102.168C149.721 102.168 150.297 101.891 150.724 101.336C151.15 100.781 151.364 100.045 151.364 99.128C151.364 98.2213 151.145 97.496 150.708 96.952C150.281 96.3973 149.71 96.12 148.996 96.12C148.281 96.12 147.705 96.3973 147.268 96.952C146.841 97.496 146.628 98.2213 146.628 99.128C146.628 100.045 146.841 100.781 147.268 101.336C147.694 101.891 148.27 102.168 148.996 102.168ZM154.653 106.376V95.288H156.029V95.848V96.344C156.263 95.9813 156.61 95.672 157.069 95.416C157.527 95.16 158.029 95.032 158.573 95.032C159.298 95.032 159.927 95.208 160.461 95.56C161.005 95.912 161.415 96.3973 161.693 97.016C161.981 97.6347 162.125 98.3387 162.125 99.128C162.125 99.9387 161.975 100.653 161.677 101.272C161.378 101.891 160.957 102.376 160.413 102.728C159.869 103.069 159.245 103.24 158.541 103.24C157.997 103.24 157.506 103.123 157.069 102.888C156.631 102.653 156.285 102.333 156.029 101.928V102.568V106.376H154.653ZM158.333 102.168C159.037 102.168 159.602 101.891 160.029 101.336C160.466 100.771 160.685 100.035 160.685 99.128C160.685 98.232 160.466 97.5067 160.029 96.952C159.602 96.3973 159.037 96.12 158.333 96.12C157.629 96.12 157.053 96.3973 156.605 96.952C156.167 97.496 155.949 98.2213 155.949 99.128C155.949 100.035 156.167 100.771 156.605 101.336C157.053 101.891 157.629 102.168 158.333 102.168ZM167.277 103.24C166.541 103.24 165.885 103.069 165.309 102.728C164.733 102.387 164.285 101.907 163.965 101.288C163.645 100.659 163.485 99.9387 163.485 99.128C163.485 98.3387 163.645 97.6347 163.965 97.016C164.285 96.3867 164.733 95.9013 165.309 95.56C165.885 95.208 166.541 95.032 167.277 95.032C168.002 95.032 168.653 95.208 169.229 95.56C169.805 95.9013 170.253 96.3867 170.573 97.016C170.904 97.6347 171.069 98.3387 171.069 99.128C171.069 99.9387 170.904 100.659 170.573 101.288C170.253 101.907 169.805 102.387 169.229 102.728C168.653 103.069 168.002 103.24 167.277 103.24ZM167.277 102.168C168.002 102.168 168.578 101.891 169.005 101.336C169.432 100.781 169.645 100.045 169.645 99.128C169.645 98.2213 169.426 97.496 168.989 96.952C168.562 96.3973 167.992 96.12 167.277 96.12C166.562 96.12 165.986 96.3973 165.549 96.952C165.122 97.496 164.909 98.2213 164.909 99.128C164.909 100.045 165.122 100.781 165.549 101.336C165.976 101.891 166.552 102.168 167.277 102.168ZM172.934 103V95.288H174.31V95.624V96.568C174.513 96.1093 174.822 95.7413 175.238 95.464C175.665 95.176 176.161 95.032 176.726 95.032C176.875 95.032 176.993 95.0373 177.078 95.048V96.408C176.929 96.3867 176.785 96.376 176.646 96.376C175.889 96.376 175.307 96.5893 174.902 97.016C174.507 97.4427 174.31 98.0773 174.31 98.92V103H172.934ZM181.621 103.24C180.907 103.24 180.256 103.085 179.669 102.776C179.093 102.467 178.635 102.003 178.293 101.384C177.963 100.765 177.797 100.013 177.797 99.128C177.797 98.328 177.968 97.6187 178.309 97C178.651 96.3813 179.115 95.9013 179.701 95.56C180.299 95.208 180.96 95.032 181.685 95.032C182.603 95.032 183.371 95.2933 183.989 95.816C184.619 96.328 184.971 97.016 185.045 97.88H183.621C183.557 97.3573 183.349 96.936 182.997 96.616C182.656 96.2853 182.208 96.12 181.653 96.12C181.173 96.12 180.747 96.2533 180.373 96.52C180.011 96.776 179.728 97.1333 179.525 97.592C179.323 98.0507 179.221 98.5627 179.221 99.128C179.221 100.045 179.445 100.781 179.893 101.336C180.341 101.891 180.939 102.168 181.685 102.168C182.251 102.168 182.715 102.013 183.077 101.704C183.44 101.395 183.659 100.963 183.733 100.408H185.093C185.019 101.272 184.677 101.96 184.069 102.472C183.472 102.984 182.656 103.24 181.621 103.24ZM186.744 93.832V92.184H188.328V93.832H186.744ZM186.856 95.288H188.232V103H186.856V95.288ZM193.886 103.24C193.15 103.24 192.494 103.069 191.918 102.728C191.342 102.387 190.894 101.907 190.574 101.288C190.254 100.659 190.094 99.9387 190.094 99.128C190.094 98.3387 190.254 97.6347 190.574 97.016C190.894 96.3867 191.342 95.9013 191.918 95.56C192.494 95.208 193.15 95.032 193.886 95.032C194.612 95.032 195.262 95.208 195.838 95.56C196.414 95.9013 196.862 96.3867 197.182 97.016C197.513 97.6347 197.678 98.3387 197.678 99.128C197.678 99.9387 197.513 100.659 197.182 101.288C196.862 101.907 196.414 102.387 195.838 102.728C195.262 103.069 194.612 103.24 193.886 103.24ZM193.886 102.168C194.612 102.168 195.188 101.891 195.614 101.336C196.041 100.781 196.254 100.045 196.254 99.128C196.254 98.2213 196.036 97.496 195.598 96.952C195.172 96.3973 194.601 96.12 193.886 96.12C193.172 96.12 192.596 96.3973 192.158 96.952C191.732 97.496 191.518 98.2213 191.518 99.128C191.518 100.045 191.732 100.781 192.158 101.336C192.585 101.891 193.161 102.168 193.886 102.168ZM199.543 103V95.288H200.919V95.816V96.328C201.133 95.976 201.453 95.672 201.879 95.416C202.317 95.16 202.786 95.032 203.287 95.032C204.183 95.032 204.882 95.304 205.383 95.848C205.885 96.392 206.135 97.1547 206.135 98.136V103H204.759V98.312C204.759 97.5653 204.626 97.016 204.359 96.664C204.093 96.3013 203.661 96.12 203.063 96.12C202.413 96.12 201.89 96.3387 201.495 96.776C201.111 97.2027 200.919 97.7307 200.919 98.36V103H199.543ZM210.595 103.24C209.837 103.24 209.203 103.027 208.691 102.6C208.189 102.173 207.939 101.603 207.939 100.888C207.939 100.195 208.173 99.656 208.643 99.272C209.123 98.8773 209.741 98.616 210.499 98.488L212.147 98.232C212.435 98.1893 212.637 98.1093 212.755 97.992C212.872 97.8747 212.931 97.6987 212.931 97.464C212.931 97.048 212.787 96.7227 212.499 96.488C212.211 96.2427 211.837 96.12 211.379 96.12C210.803 96.12 210.36 96.264 210.051 96.552C209.741 96.8293 209.576 97.2133 209.555 97.704H208.179C208.2 97.224 208.333 96.7813 208.579 96.376C208.824 95.9707 209.176 95.6453 209.635 95.4C210.104 95.1547 210.648 95.032 211.267 95.032C212.216 95.032 212.952 95.2933 213.475 95.816C214.008 96.3387 214.275 97.048 214.275 97.944V103H212.963V102.616V101.96C212.771 102.365 212.467 102.68 212.051 102.904C211.645 103.128 211.16 103.24 210.595 103.24ZM210.787 102.168C211.405 102.168 211.917 101.976 212.323 101.592C212.728 101.208 212.931 100.707 212.931 100.088V98.952C212.845 99.08 212.563 99.192 212.083 99.288L210.963 99.496C209.896 99.6987 209.363 100.163 209.363 100.888C209.363 101.272 209.496 101.581 209.763 101.816C210.04 102.051 210.381 102.168 210.787 102.168ZM216.543 103V95.288H217.919V95.624V96.568C218.122 96.1093 218.431 95.7413 218.847 95.464C219.274 95.176 219.77 95.032 220.335 95.032C220.485 95.032 220.602 95.0373 220.687 95.048V96.408C220.538 96.3867 220.394 96.376 220.255 96.376C219.498 96.376 218.917 96.5893 218.511 97.016C218.117 97.4427 217.919 98.0773 217.919 98.92V103H216.543ZM225.481 103V95.288H226.857V95.896V96.328C227.102 95.9333 227.417 95.6187 227.801 95.384C228.196 95.1493 228.633 95.032 229.113 95.032C229.636 95.032 230.094 95.16 230.489 95.416C230.894 95.672 231.209 96.0507 231.433 96.552C231.71 96.0827 232.062 95.7147 232.489 95.448C232.926 95.1707 233.412 95.032 233.945 95.032C234.756 95.032 235.406 95.2933 235.897 95.816C236.398 96.3387 236.649 97.1067 236.649 98.12V103H235.273V98.392C235.273 97.6347 235.145 97.0693 234.889 96.696C234.644 96.312 234.233 96.12 233.657 96.12C233.07 96.12 232.606 96.344 232.265 96.792C231.924 97.2293 231.753 97.768 231.753 98.408V103H230.377V98.44C230.377 97.6827 230.249 97.1067 229.993 96.712C229.748 96.3173 229.348 96.12 228.793 96.12C228.206 96.12 227.737 96.3493 227.385 96.808C227.033 97.256 226.857 97.8107 226.857 98.472V103H225.481ZM242.358 93.928H241.206L242.342 91.864H244.054L242.358 93.928ZM241.11 103.24C240.353 103.24 239.718 103.027 239.206 102.6C238.705 102.173 238.454 101.603 238.454 100.888C238.454 100.195 238.689 99.656 239.158 99.272C239.638 98.8773 240.257 98.616 241.014 98.488L242.662 98.232C242.95 98.1893 243.153 98.1093 243.27 97.992C243.388 97.8747 243.446 97.6987 243.446 97.464C243.446 97.048 243.302 96.7227 243.014 96.488C242.726 96.2427 242.353 96.12 241.894 96.12C241.318 96.12 240.876 96.264 240.566 96.552C240.257 96.8293 240.092 97.2133 240.07 97.704H238.694C238.716 97.224 238.849 96.7813 239.094 96.376C239.34 95.9707 239.692 95.6453 240.15 95.4C240.62 95.1547 241.164 95.032 241.782 95.032C242.732 95.032 243.468 95.2933 243.99 95.816C244.524 96.3387 244.79 97.048 244.79 97.944V103H243.478V102.616V101.96C243.286 102.365 242.982 102.68 242.566 102.904C242.161 103.128 241.676 103.24 241.11 103.24ZM241.302 102.168C241.921 102.168 242.433 101.976 242.838 101.592C243.244 101.208 243.446 100.707 243.446 100.088V98.952C243.361 99.08 243.078 99.192 242.598 99.288L241.478 99.496C240.412 99.6987 239.878 100.163 239.878 100.888C239.878 101.272 240.012 101.581 240.278 101.816C240.556 102.051 240.897 102.168 241.302 102.168ZM249.763 103.24C248.739 103.24 247.934 102.989 247.347 102.488C246.771 101.976 246.472 101.299 246.451 100.456H247.795C247.816 100.989 247.998 101.411 248.339 101.72C248.691 102.019 249.171 102.168 249.779 102.168C250.312 102.168 250.739 102.056 251.059 101.832C251.39 101.597 251.555 101.288 251.555 100.904C251.555 100.285 251.107 99.8907 250.211 99.72L249.043 99.496C248.307 99.3573 247.731 99.1013 247.315 98.728C246.899 98.3547 246.691 97.88 246.691 97.304C246.691 96.8667 246.819 96.4773 247.075 96.136C247.331 95.7947 247.683 95.528 248.131 95.336C248.59 95.1333 249.107 95.032 249.683 95.032C250.611 95.032 251.342 95.2507 251.875 95.688C252.408 96.1147 252.702 96.7227 252.755 97.512H251.395C251.342 97.0533 251.155 96.7067 250.835 96.472C250.526 96.2373 250.11 96.12 249.587 96.12C249.128 96.12 248.76 96.2213 248.483 96.424C248.206 96.6267 248.067 96.8933 248.067 97.224C248.067 97.5227 248.174 97.7573 248.387 97.928C248.6 98.0987 248.931 98.2267 249.379 98.312L250.579 98.536C251.315 98.6747 251.886 98.9253 252.291 99.288C252.707 99.6507 252.915 100.141 252.915 100.76C252.915 101.219 252.787 101.64 252.531 102.024C252.275 102.397 251.907 102.696 251.427 102.92C250.958 103.133 250.403 103.24 249.763 103.24ZM25.24 127.24C24.5573 127.24 23.9493 127.08 23.416 126.76C22.8827 126.44 22.4613 125.971 22.152 125.352C21.8427 124.733 21.688 123.997 21.688 123.144C21.688 122.365 21.832 121.667 22.12 121.048C22.4187 120.419 22.84 119.928 23.384 119.576C23.928 119.213 24.5573 119.032 25.272 119.032C25.8587 119.032 26.3653 119.165 26.792 119.432C27.2293 119.688 27.5493 119.987 27.752 120.328V119.704V115.8H29.128V127H27.752V126.552V125.928C27.5387 126.301 27.2027 126.616 26.744 126.872C26.296 127.117 25.7947 127.24 25.24 127.24ZM25.48 126.168C26.1733 126.168 26.7387 125.891 27.176 125.336C27.624 124.781 27.848 124.045 27.848 123.128C27.848 122.221 27.6293 121.496 27.192 120.952C26.7547 120.397 26.184 120.12 25.48 120.12C24.776 120.12 24.2053 120.403 23.768 120.968C23.3307 121.523 23.112 122.248 23.112 123.144C23.112 124.051 23.3307 124.781 23.768 125.336C24.2053 125.891 24.776 126.168 25.48 126.168ZM34.7605 127.24C33.5978 127.24 32.6805 126.883 32.0085 126.168C31.3472 125.453 31.0165 124.435 31.0165 123.112C31.0165 122.333 31.1712 121.635 31.4805 121.016C31.8005 120.397 32.2378 119.912 32.7925 119.56C33.3578 119.208 33.9872 119.032 34.6805 119.032C35.8112 119.032 36.6858 119.4 37.3045 120.136C37.9338 120.872 38.2485 121.869 38.2485 123.128V123.4H32.3925C32.4032 124.253 32.6325 124.931 33.0805 125.432C33.5285 125.923 34.0938 126.168 34.7765 126.168C35.2992 126.168 35.7472 126.051 36.1205 125.816C36.4938 125.571 36.7232 125.171 36.8085 124.616H38.1685C38.0832 125.363 37.7525 125.987 37.1765 126.488C36.6005 126.989 35.7952 127.24 34.7605 127.24ZM36.7765 122.424C36.7765 121.72 36.5898 121.16 36.2165 120.744C35.8538 120.328 35.3418 120.12 34.6805 120.12C34.0512 120.12 33.5338 120.339 33.1285 120.776C32.7232 121.213 32.4938 121.763 32.4405 122.424H36.7765ZM42.7794 127.08C42.1394 127.08 41.6114 126.904 41.1954 126.552C40.79 126.189 40.5874 125.608 40.5874 124.808V120.424H39.1474V119.288H40.5874V116.744H41.9634V119.288H43.5634V120.424H41.9634V124.664C41.9634 125.091 42.0594 125.395 42.2514 125.576C42.454 125.757 42.7367 125.848 43.0994 125.848C43.2594 125.848 43.4514 125.832 43.6754 125.8V126.984C43.3874 127.048 43.0887 127.08 42.7794 127.08ZM47.5166 127.24C46.7593 127.24 46.1246 127.027 45.6126 126.6C45.1113 126.173 44.8606 125.603 44.8606 124.888C44.8606 124.195 45.0953 123.656 45.5646 123.272C46.0446 122.877 46.6633 122.616 47.4206 122.488L49.0686 122.232C49.3566 122.189 49.5593 122.109 49.6766 121.992C49.794 121.875 49.8526 121.699 49.8526 121.464C49.8526 121.048 49.7086 120.723 49.4206 120.488C49.1326 120.243 48.7593 120.12 48.3006 120.12C47.7246 120.12 47.282 120.264 46.9726 120.552C46.6633 120.829 46.498 121.213 46.4766 121.704H45.1006C45.122 121.224 45.2553 120.781 45.5006 120.376C45.746 119.971 46.098 119.645 46.5566 119.4C47.026 119.155 47.57 119.032 48.1886 119.032C49.138 119.032 49.874 119.293 50.3966 119.816C50.93 120.339 51.1966 121.048 51.1966 121.944V127H49.8846V126.616V125.96C49.6926 126.365 49.3886 126.68 48.9726 126.904C48.5673 127.128 48.082 127.24 47.5166 127.24ZM47.7086 126.168C48.3273 126.168 48.8393 125.976 49.2446 125.592C49.65 125.208 49.8526 124.707 49.8526 124.088V122.952C49.7673 123.08 49.4846 123.192 49.0046 123.288L47.8846 123.496C46.818 123.699 46.2846 124.163 46.2846 124.888C46.2846 125.272 46.418 125.581 46.6846 125.816C46.962 126.051 47.3033 126.168 47.7086 126.168ZM53.4653 115.8H54.8413V127H53.4653V115.8ZM57.1996 115.8H58.5756V127H57.1996V115.8ZM64.198 127.24C63.0353 127.24 62.118 126.883 61.446 126.168C60.7847 125.453 60.454 124.435 60.454 123.112C60.454 122.333 60.6087 121.635 60.918 121.016C61.238 120.397 61.6753 119.912 62.23 119.56C62.7953 119.208 63.4247 119.032 64.118 119.032C65.2487 119.032 66.1233 119.4 66.742 120.136C67.3713 120.872 67.686 121.869 67.686 123.128V123.4H61.83C61.8407 124.253 62.07 124.931 62.518 125.432C62.966 125.923 63.5313 126.168 64.214 126.168C64.7367 126.168 65.1847 126.051 65.558 125.816C65.9313 125.571 66.1607 125.171 66.246 124.616H67.606C67.5207 125.363 67.19 125.987 66.614 126.488C66.038 126.989 65.2327 127.24 64.198 127.24ZM66.214 122.424C66.214 121.72 66.0273 121.16 65.654 120.744C65.2913 120.328 64.7793 120.12 64.118 120.12C63.4887 120.12 62.9713 120.339 62.566 120.776C62.1607 121.213 61.9313 121.763 61.878 122.424H66.214ZM72.2786 127.24C71.2546 127.24 70.4493 126.989 69.8626 126.488C69.2866 125.976 68.988 125.299 68.9666 124.456H70.3106C70.332 124.989 70.5133 125.411 70.8546 125.72C71.2066 126.019 71.6866 126.168 72.2946 126.168C72.828 126.168 73.2546 126.056 73.5746 125.832C73.9053 125.597 74.0706 125.288 74.0706 124.904C74.0706 124.285 73.6226 123.891 72.7266 123.72L71.5586 123.496C70.8226 123.357 70.2466 123.101 69.8306 122.728C69.4146 122.355 69.2066 121.88 69.2066 121.304C69.2066 120.867 69.3346 120.477 69.5906 120.136C69.8466 119.795 70.1986 119.528 70.6466 119.336C71.1053 119.133 71.6226 119.032 72.1986 119.032C73.1266 119.032 73.8573 119.251 74.3906 119.688C74.924 120.115 75.2173 120.723 75.2706 121.512H73.9106C73.8573 121.053 73.6706 120.707 73.3506 120.472C73.0413 120.237 72.6253 120.12 72.1026 120.12C71.644 120.12 71.276 120.221 70.9986 120.424C70.7213 120.627 70.5826 120.893 70.5826 121.224C70.5826 121.523 70.6893 121.757 70.9026 121.928C71.116 122.099 71.4466 122.227 71.8946 122.312L73.0946 122.536C73.8306 122.675 74.4013 122.925 74.8066 123.288C75.2226 123.651 75.4306 124.141 75.4306 124.76C75.4306 125.219 75.3026 125.64 75.0466 126.024C74.7906 126.397 74.4226 126.696 73.9426 126.92C73.4733 127.133 72.9186 127.24 72.2786 127.24ZM83.8099 127.24C82.7859 127.24 81.9805 126.989 81.3939 126.488C80.8179 125.976 80.5192 125.299 80.4979 124.456H81.8419C81.8632 124.989 82.0445 125.411 82.3859 125.72C82.7379 126.019 83.2179 126.168 83.8259 126.168C84.3592 126.168 84.7859 126.056 85.1059 125.832C85.4365 125.597 85.6019 125.288 85.6019 124.904C85.6019 124.285 85.1539 123.891 84.2579 123.72L83.0899 123.496C82.3539 123.357 81.7779 123.101 81.3619 122.728C80.9459 122.355 80.7379 121.88 80.7379 121.304C80.7379 120.867 80.8659 120.477 81.1219 120.136C81.3779 119.795 81.7299 119.528 82.1779 119.336C82.6365 119.133 83.1539 119.032 83.7299 119.032C84.6579 119.032 85.3885 119.251 85.9219 119.688C86.4552 120.115 86.7485 120.723 86.8019 121.512H85.4419C85.3885 121.053 85.2019 120.707 84.8819 120.472C84.5725 120.237 84.1565 120.12 83.6339 120.12C83.1752 120.12 82.8072 120.221 82.5299 120.424C82.2525 120.627 82.1139 120.893 82.1139 121.224C82.1139 121.523 82.2205 121.757 82.4339 121.928C82.6472 122.099 82.9779 122.227 83.4259 122.312L84.6259 122.536C85.3619 122.675 85.9325 122.925 86.3379 123.288C86.7539 123.651 86.9619 124.141 86.9619 124.76C86.9619 125.219 86.8339 125.64 86.5779 126.024C86.3219 126.397 85.9539 126.696 85.4739 126.92C85.0045 127.133 84.4499 127.24 83.8099 127.24ZM92.1363 127.24C91.4003 127.24 90.7443 127.069 90.1683 126.728C89.5923 126.387 89.1443 125.907 88.8243 125.288C88.5043 124.659 88.3443 123.939 88.3443 123.128C88.3443 122.339 88.5043 121.635 88.8243 121.016C89.1443 120.387 89.5923 119.901 90.1683 119.56C90.7443 119.208 91.4003 119.032 92.1363 119.032C92.8616 119.032 93.5123 119.208 94.0883 119.56C94.6643 119.901 95.1123 120.387 95.4323 121.016C95.7629 121.635 95.9283 122.339 95.9283 123.128C95.9283 123.939 95.7629 124.659 95.4323 125.288C95.1123 125.907 94.6643 126.387 94.0883 126.728C93.5123 127.069 92.8616 127.24 92.1363 127.24ZM92.1363 126.168C92.8616 126.168 93.4376 125.891 93.8643 125.336C94.2909 124.781 94.5043 124.045 94.5043 123.128C94.5043 122.221 94.2856 121.496 93.8483 120.952C93.4216 120.397 92.8509 120.12 92.1363 120.12C91.4216 120.12 90.8456 120.397 90.4083 120.952C89.9816 121.496 89.7682 122.221 89.7682 123.128C89.7682 124.045 89.9816 124.781 90.4083 125.336C90.8349 125.891 91.4109 126.168 92.1363 126.168ZM101.681 127.24C101.148 127.24 100.657 127.123 100.209 126.888C99.7614 126.643 99.4147 126.323 99.1694 125.928V126.584V127H97.7934V115.8H99.1694V119.704V120.328C99.436 119.955 99.788 119.645 100.225 119.4C100.673 119.155 101.169 119.032 101.713 119.032C102.439 119.032 103.068 119.208 103.601 119.56C104.145 119.912 104.556 120.403 104.833 121.032C105.121 121.651 105.265 122.355 105.265 123.144C105.265 123.944 105.116 124.653 104.817 125.272C104.529 125.891 104.113 126.376 103.569 126.728C103.025 127.069 102.396 127.24 101.681 127.24ZM101.457 126.168C102.172 126.168 102.743 125.891 103.169 125.336C103.607 124.771 103.825 124.04 103.825 123.144C103.825 122.248 103.607 121.523 103.169 120.968C102.743 120.403 102.172 120.12 101.457 120.12C100.753 120.12 100.183 120.392 99.7454 120.936C99.308 121.469 99.0894 122.2 99.0894 123.128C99.0894 123.725 99.1907 124.253 99.3934 124.712C99.596 125.171 99.8734 125.528 100.225 125.784C100.588 126.04 100.999 126.168 101.457 126.168ZM107.122 127V119.288H108.498V119.624V120.568C108.7 120.109 109.01 119.741 109.426 119.464C109.852 119.176 110.348 119.032 110.914 119.032C111.063 119.032 111.18 119.037 111.266 119.048V120.408C111.116 120.387 110.972 120.376 110.834 120.376C110.076 120.376 109.495 120.589 109.09 121.016C108.695 121.443 108.498 122.077 108.498 122.92V127H107.122ZM115.745 127.24C114.582 127.24 113.665 126.883 112.993 126.168C112.332 125.453 112.001 124.435 112.001 123.112C112.001 122.333 112.156 121.635 112.465 121.016C112.785 120.397 113.222 119.912 113.777 119.56C114.342 119.208 114.972 119.032 115.665 119.032C116.796 119.032 117.67 119.4 118.289 120.136C118.918 120.872 119.233 121.869 119.233 123.128V123.4H113.377C113.388 124.253 113.617 124.931 114.065 125.432C114.513 125.923 115.078 126.168 115.761 126.168C116.284 126.168 116.732 126.051 117.105 125.816C117.478 125.571 117.708 125.171 117.793 124.616H119.153C119.068 125.363 118.737 125.987 118.161 126.488C117.585 126.989 116.78 127.24 115.745 127.24ZM117.761 122.424C117.761 121.72 117.574 121.16 117.201 120.744C116.838 120.328 116.326 120.12 115.665 120.12C115.036 120.12 114.518 120.339 114.113 120.776C113.708 121.213 113.478 121.763 113.425 122.424H117.761ZM124.918 115.8H126.294V127H124.918V115.8ZM130.845 127.24C130.087 127.24 129.453 127.027 128.941 126.6C128.439 126.173 128.189 125.603 128.189 124.888C128.189 124.195 128.423 123.656 128.893 123.272C129.373 122.877 129.991 122.616 130.749 122.488L132.397 122.232C132.685 122.189 132.887 122.109 133.005 121.992C133.122 121.875 133.181 121.699 133.181 121.464C133.181 121.048 133.037 120.723 132.749 120.488C132.461 120.243 132.087 120.12 131.629 120.12C131.053 120.12 130.61 120.264 130.301 120.552C129.991 120.829 129.826 121.213 129.805 121.704H128.429C128.45 121.224 128.583 120.781 128.829 120.376C129.074 119.971 129.426 119.645 129.885 119.4C130.354 119.155 130.898 119.032 131.517 119.032C132.466 119.032 133.202 119.293 133.725 119.816C134.258 120.339 134.525 121.048 134.525 121.944V127H133.213V126.616V125.96C133.021 126.365 132.717 126.68 132.301 126.904C131.895 127.128 131.41 127.24 130.845 127.24ZM131.037 126.168C131.655 126.168 132.167 125.976 132.573 125.592C132.978 125.208 133.181 124.707 133.181 124.088V122.952C133.095 123.08 132.813 123.192 132.333 123.288L131.213 123.496C130.146 123.699 129.613 124.163 129.613 124.888C129.613 125.272 129.746 125.581 130.013 125.816C130.29 126.051 130.631 126.168 131.037 126.168ZM143.918 127.24C143.204 127.24 142.553 127.085 141.966 126.776C141.39 126.467 140.932 126.003 140.59 125.384C140.26 124.765 140.094 124.013 140.094 123.128C140.094 122.328 140.265 121.619 140.606 121C140.948 120.381 141.412 119.901 141.998 119.56C142.596 119.208 143.257 119.032 143.982 119.032C144.9 119.032 145.668 119.293 146.286 119.816C146.916 120.328 147.268 121.016 147.342 121.88H145.918C145.854 121.357 145.646 120.936 145.294 120.616C144.953 120.285 144.505 120.12 143.95 120.12C143.47 120.12 143.044 120.253 142.67 120.52C142.308 120.776 142.025 121.133 141.822 121.592C141.62 122.051 141.518 122.563 141.518 123.128C141.518 124.045 141.742 124.781 142.19 125.336C142.638 125.891 143.236 126.168 143.982 126.168C144.548 126.168 145.012 126.013 145.374 125.704C145.737 125.395 145.956 124.963 146.03 124.408H147.39C147.316 125.272 146.974 125.96 146.366 126.472C145.769 126.984 144.953 127.24 143.918 127.24ZM152.449 127.24C151.713 127.24 151.057 127.069 150.481 126.728C149.905 126.387 149.457 125.907 149.137 125.288C148.817 124.659 148.657 123.939 148.657 123.128C148.657 122.339 148.817 121.635 149.137 121.016C149.457 120.387 149.905 119.901 150.481 119.56C151.057 119.208 151.713 119.032 152.449 119.032C153.174 119.032 153.825 119.208 154.401 119.56C154.977 119.901 155.425 120.387 155.745 121.016C156.075 121.635 156.241 122.339 156.241 123.128C156.241 123.939 156.075 124.659 155.745 125.288C155.425 125.907 154.977 126.387 154.401 126.728C153.825 127.069 153.174 127.24 152.449 127.24ZM152.449 126.168C153.174 126.168 153.75 125.891 154.177 125.336C154.603 124.781 154.817 124.045 154.817 123.128C154.817 122.221 154.598 121.496 154.161 120.952C153.734 120.397 153.163 120.12 152.449 120.12C151.734 120.12 151.158 120.397 150.721 120.952C150.294 121.496 150.081 122.221 150.081 123.128C150.081 124.045 150.294 124.781 150.721 125.336C151.147 125.891 151.723 126.168 152.449 126.168ZM158.106 127V119.288H159.482V119.816V120.328C159.695 119.976 160.015 119.672 160.442 119.416C160.879 119.16 161.349 119.032 161.85 119.032C162.746 119.032 163.445 119.304 163.946 119.848C164.447 120.392 164.698 121.155 164.698 122.136V127H163.322V122.312C163.322 121.565 163.189 121.016 162.922 120.664C162.655 120.301 162.223 120.12 161.626 120.12C160.975 120.12 160.453 120.339 160.058 120.776C159.674 121.203 159.482 121.731 159.482 122.36V127H158.106ZM170.021 127.24C169.339 127.24 168.731 127.08 168.197 126.76C167.664 126.44 167.243 125.971 166.933 125.352C166.624 124.733 166.469 123.997 166.469 123.144C166.469 122.365 166.613 121.667 166.901 121.048C167.2 120.419 167.621 119.928 168.165 119.576C168.709 119.213 169.339 119.032 170.053 119.032C170.64 119.032 171.147 119.165 171.573 119.432C172.011 119.688 172.331 119.987 172.533 120.328V119.704V115.8H173.909V127H172.533V126.552V125.928C172.32 126.301 171.984 126.616 171.525 126.872C171.077 127.117 170.576 127.24 170.021 127.24ZM170.261 126.168C170.955 126.168 171.52 125.891 171.957 125.336C172.405 124.781 172.629 124.045 172.629 123.128C172.629 122.221 172.411 121.496 171.973 120.952C171.536 120.397 170.965 120.12 170.261 120.12C169.557 120.12 168.987 120.403 168.549 120.968C168.112 121.523 167.893 122.248 167.893 123.144C167.893 124.051 168.112 124.781 168.549 125.336C168.987 125.891 169.557 126.168 170.261 126.168ZM176.166 117.832V116.184H177.75V117.832H176.166ZM176.278 119.288H177.654V127H176.278V119.288ZM183.34 127.24C182.625 127.24 181.975 127.085 181.388 126.776C180.812 126.467 180.353 126.003 180.012 125.384C179.681 124.765 179.516 124.013 179.516 123.128C179.516 122.328 179.687 121.619 180.028 121C180.369 120.381 180.833 119.901 181.42 119.56C182.017 119.208 182.679 119.032 183.404 119.032C184.321 119.032 185.089 119.293 185.708 119.816C186.337 120.328 186.689 121.016 186.764 121.88H185.34C185.276 121.357 185.068 120.936 184.716 120.616C184.375 120.285 183.927 120.12 183.372 120.12C182.892 120.12 182.465 120.253 182.092 120.52C181.729 120.776 181.447 121.133 181.244 121.592C181.041 122.051 180.94 122.563 180.94 123.128C180.94 124.045 181.164 124.781 181.612 125.336C182.06 125.891 182.657 126.168 183.404 126.168C183.969 126.168 184.433 126.013 184.796 125.704C185.159 125.395 185.377 124.963 185.452 124.408H186.812C186.737 125.272 186.396 125.96 185.788 126.472C185.191 126.984 184.375 127.24 183.34 127.24ZM188.463 117.832V116.184H190.047V117.832H188.463ZM188.575 119.288H189.951V127H188.575V119.288ZM196.133 117.928H194.981L196.117 115.864H197.829L196.133 117.928ZM195.605 127.24C194.869 127.24 194.213 127.069 193.637 126.728C193.061 126.387 192.613 125.907 192.293 125.288C191.973 124.659 191.813 123.939 191.813 123.128C191.813 122.339 191.973 121.635 192.293 121.016C192.613 120.387 193.061 119.901 193.637 119.56C194.213 119.208 194.869 119.032 195.605 119.032C196.33 119.032 196.981 119.208 197.557 119.56C198.133 119.901 198.581 120.387 198.901 121.016C199.232 121.635 199.397 122.339 199.397 123.128C199.397 123.939 199.232 124.659 198.901 125.288C198.581 125.907 198.133 126.387 197.557 126.728C196.981 127.069 196.33 127.24 195.605 127.24ZM195.605 126.168C196.33 126.168 196.906 125.891 197.333 125.336C197.76 124.781 197.973 124.045 197.973 123.128C197.973 122.221 197.754 121.496 197.317 120.952C196.89 120.397 196.32 120.12 195.605 120.12C194.89 120.12 194.314 120.397 193.877 120.952C193.45 121.496 193.237 122.221 193.237 123.128C193.237 124.045 193.45 124.781 193.877 125.336C194.304 125.891 194.88 126.168 195.605 126.168ZM201.262 127V119.288H202.638V119.816V120.328C202.851 119.976 203.171 119.672 203.598 119.416C204.035 119.16 204.505 119.032 205.006 119.032C205.902 119.032 206.601 119.304 207.102 119.848C207.603 120.392 207.854 121.155 207.854 122.136V127H206.478V122.312C206.478 121.565 206.345 121.016 206.078 120.664C205.811 120.301 205.379 120.12 204.782 120.12C204.131 120.12 203.609 120.339 203.214 120.776C202.83 121.203 202.638 121.731 202.638 122.36V127H201.262ZM216.974 127.24C216.292 127.24 215.684 127.08 215.15 126.76C214.617 126.44 214.196 125.971 213.886 125.352C213.577 124.733 213.422 123.997 213.422 123.144C213.422 122.365 213.566 121.667 213.854 121.048C214.153 120.419 214.574 119.928 215.118 119.576C215.662 119.213 216.292 119.032 217.006 119.032C217.593 119.032 218.1 119.165 218.526 119.432C218.964 119.688 219.284 119.987 219.486 120.328V119.704V115.8H220.862V127H219.486V126.552V125.928C219.273 126.301 218.937 126.616 218.478 126.872C218.03 127.117 217.529 127.24 216.974 127.24ZM217.214 126.168C217.908 126.168 218.473 125.891 218.91 125.336C219.358 124.781 219.582 124.045 219.582 123.128C219.582 122.221 219.364 121.496 218.926 120.952C218.489 120.397 217.918 120.12 217.214 120.12C216.51 120.12 215.94 120.403 215.502 120.968C215.065 121.523 214.846 122.248 214.846 123.144C214.846 124.051 215.065 124.781 215.502 125.336C215.94 125.891 216.51 126.168 217.214 126.168ZM226.495 127.24C225.332 127.24 224.415 126.883 223.743 126.168C223.082 125.453 222.751 124.435 222.751 123.112C222.751 122.333 222.906 121.635 223.215 121.016C223.535 120.397 223.972 119.912 224.527 119.56C225.092 119.208 225.722 119.032 226.415 119.032C227.546 119.032 228.42 119.4 229.039 120.136C229.668 120.872 229.983 121.869 229.983 123.128V123.4H224.127C224.138 124.253 224.367 124.931 224.815 125.432C225.263 125.923 225.828 126.168 226.511 126.168C227.034 126.168 227.482 126.051 227.855 125.816C228.228 125.571 228.458 125.171 228.543 124.616H229.903C229.818 125.363 229.487 125.987 228.911 126.488C228.335 126.989 227.53 127.24 226.495 127.24ZM228.511 122.424C228.511 121.72 228.324 121.16 227.951 120.744C227.588 120.328 227.076 120.12 226.415 120.12C225.786 120.12 225.268 120.339 224.863 120.776C224.458 121.213 224.228 121.763 224.175 122.424H228.511ZM238.17 127.08C237.53 127.08 237.002 126.904 236.586 126.552C236.181 126.189 235.978 125.608 235.978 124.808V120.424H234.538V119.288H235.978V116.744H237.354V119.288H238.954V120.424H237.354V124.664C237.354 125.091 237.45 125.395 237.642 125.576C237.845 125.757 238.127 125.848 238.49 125.848C238.65 125.848 238.842 125.832 239.066 125.8V126.984C238.778 127.048 238.479 127.08 238.17 127.08ZM243.403 127.24C242.497 127.24 241.803 126.979 241.323 126.456C240.854 125.933 240.619 125.181 240.619 124.2V119.288H241.995V123.912C241.995 124.669 242.134 125.235 242.411 125.608C242.689 125.981 243.137 126.168 243.755 126.168C244.385 126.168 244.87 125.939 245.211 125.48C245.553 125.021 245.723 124.376 245.723 123.544V119.288H247.083V127H245.739V126.536V125.928C245.558 126.333 245.254 126.653 244.827 126.888C244.401 127.123 243.926 127.24 243.403 127.24ZM25.512 151.24C24.7973 151.24 24.1467 151.085 23.56 150.776C22.984 150.467 22.5253 150.003 22.184 149.384C21.8533 148.765 21.688 148.013 21.688 147.128C21.688 146.328 21.8587 145.619 22.2 145C22.5413 144.381 23.0053 143.901 23.592 143.56C24.1893 143.208 24.8507 143.032 25.576 143.032C26.4933 143.032 27.2613 143.293 27.88 143.816C28.5093 144.328 28.8613 145.016 28.936 145.88H27.512C27.448 145.357 27.24 144.936 26.888 144.616C26.5467 144.285 26.0987 144.12 25.544 144.12C25.064 144.12 24.6373 144.253 24.264 144.52C23.9013 144.776 23.6187 145.133 23.416 145.592C23.2133 146.051 23.112 146.563 23.112 147.128C23.112 148.045 23.336 148.781 23.784 149.336C24.232 149.891 24.8293 150.168 25.576 150.168C26.1413 150.168 26.6053 150.013 26.968 149.704C27.3307 149.395 27.5493 148.963 27.624 148.408H28.984C28.9093 149.272 28.568 149.96 27.96 150.472C27.3627 150.984 26.5467 151.24 25.512 151.24ZM32.9385 151.24C32.1812 151.24 31.5465 151.027 31.0345 150.6C30.5332 150.173 30.2825 149.603 30.2825 148.888C30.2825 148.195 30.5172 147.656 30.9865 147.272C31.4665 146.877 32.0852 146.616 32.8425 146.488L34.4905 146.232C34.7785 146.189 34.9812 146.109 35.0985 145.992C35.2158 145.875 35.2745 145.699 35.2745 145.464C35.2745 145.048 35.1305 144.723 34.8425 144.488C34.5545 144.243 34.1812 144.12 33.7225 144.12C33.1465 144.12 32.7038 144.264 32.3945 144.552C32.0852 144.829 31.9198 145.213 31.8985 145.704H30.5225C30.5438 145.224 30.6772 144.781 30.9225 144.376C31.1678 143.971 31.5198 143.645 31.9785 143.4C32.4478 143.155 32.9918 143.032 33.6105 143.032C34.5598 143.032 35.2958 143.293 35.8185 143.816C36.3518 144.339 36.6185 145.048 36.6185 145.944V151H35.3065V150.616V149.96C35.1145 150.365 34.8105 150.68 34.3945 150.904C33.9892 151.128 33.5038 151.24 32.9385 151.24ZM33.1305 150.168C33.7492 150.168 34.2612 149.976 34.6665 149.592C35.0718 149.208 35.2745 148.707 35.2745 148.088V146.952C35.1892 147.08 34.9065 147.192 34.4265 147.288L33.3065 147.496C32.2398 147.699 31.7065 148.163 31.7065 148.888C31.7065 149.272 31.8398 149.581 32.1065 149.816C32.3838 150.051 32.7252 150.168 33.1305 150.168ZM42.7751 151.24C42.2418 151.24 41.7511 151.123 41.3031 150.888C40.8551 150.643 40.5085 150.323 40.2631 149.928V150.584V151H38.8871V139.8H40.2631V143.704V144.328C40.5298 143.955 40.8818 143.645 41.3191 143.4C41.7671 143.155 42.2631 143.032 42.8071 143.032C43.5325 143.032 44.1618 143.208 44.6951 143.56C45.2391 143.912 45.6498 144.403 45.9271 145.032C46.2151 145.651 46.3591 146.355 46.3591 147.144C46.3591 147.944 46.2098 148.653 45.9111 149.272C45.6231 149.891 45.2071 150.376 44.6631 150.728C44.1191 151.069 43.4898 151.24 42.7751 151.24ZM42.5511 150.168C43.2658 150.168 43.8365 149.891 44.2631 149.336C44.7005 148.771 44.9191 148.04 44.9191 147.144C44.9191 146.248 44.7005 145.523 44.2631 144.968C43.8365 144.403 43.2658 144.12 42.5511 144.12C41.8471 144.12 41.2765 144.392 40.8391 144.936C40.4018 145.469 40.1831 146.2 40.1831 147.128C40.1831 147.725 40.2845 148.253 40.4871 148.712C40.6898 149.171 40.9671 149.528 41.3191 149.784C41.6818 150.04 42.0925 150.168 42.5511 150.168ZM50.4073 151.24C49.6499 151.24 49.0153 151.027 48.5033 150.6C48.0019 150.173 47.7513 149.603 47.7513 148.888C47.7513 148.195 47.9859 147.656 48.4553 147.272C48.9353 146.877 49.5539 146.616 50.3113 146.488L51.9593 146.232C52.2473 146.189 52.4499 146.109 52.5673 145.992C52.6846 145.875 52.7433 145.699 52.7433 145.464C52.7433 145.048 52.5993 144.723 52.3113 144.488C52.0233 144.243 51.6499 144.12 51.1913 144.12C50.6153 144.12 50.1726 144.264 49.8633 144.552C49.5539 144.829 49.3886 145.213 49.3673 145.704H47.9913C48.0126 145.224 48.1459 144.781 48.3913 144.376C48.6366 143.971 48.9886 143.645 49.4473 143.4C49.9166 143.155 50.4606 143.032 51.0793 143.032C52.0286 143.032 52.7646 143.293 53.2873 143.816C53.8206 144.339 54.0873 145.048 54.0873 145.944V151H52.7753V150.616V149.96C52.5833 150.365 52.2793 150.68 51.8633 150.904C51.4579 151.128 50.9726 151.24 50.4073 151.24ZM50.5993 150.168C51.2179 150.168 51.7299 149.976 52.1353 149.592C52.5406 149.208 52.7433 148.707 52.7433 148.088V146.952C52.6579 147.08 52.3753 147.192 51.8953 147.288L50.7753 147.496C49.7086 147.699 49.1753 148.163 49.1753 148.888C49.1753 149.272 49.3086 149.581 49.5753 149.816C49.8526 150.051 50.1939 150.168 50.5993 150.168ZM56.3559 139.8H57.7319V151H56.3559V139.8ZM60.0903 139.8H61.4663V151H60.0903V139.8ZM67.1206 151.24C66.3846 151.24 65.7286 151.069 65.1526 150.728C64.5766 150.387 64.1286 149.907 63.8086 149.288C63.4886 148.659 63.3286 147.939 63.3286 147.128C63.3286 146.339 63.4886 145.635 63.8086 145.016C64.1286 144.387 64.5766 143.901 65.1526 143.56C65.7286 143.208 66.3846 143.032 67.1206 143.032C67.846 143.032 68.4966 143.208 69.0726 143.56C69.6486 143.901 70.0966 144.387 70.4166 145.016C70.7473 145.635 70.9126 146.339 70.9126 147.128C70.9126 147.939 70.7473 148.659 70.4166 149.288C70.0966 149.907 69.6486 150.387 69.0726 150.728C68.4966 151.069 67.846 151.24 67.1206 151.24ZM67.1206 150.168C67.846 150.168 68.422 149.891 68.8486 149.336C69.2753 148.781 69.4886 148.045 69.4886 147.128C69.4886 146.221 69.27 145.496 68.8326 144.952C68.406 144.397 67.8353 144.12 67.1206 144.12C66.406 144.12 65.83 144.397 65.3926 144.952C64.966 145.496 64.7526 146.221 64.7526 147.128C64.7526 148.045 64.966 148.781 65.3926 149.336C65.8193 149.891 66.3953 150.168 67.1206 150.168ZM74.5114 147.992C74.5114 147.235 74.6127 146.616 74.8154 146.136C75.0287 145.656 75.45 145.16 76.0794 144.648L76.4794 144.312C77.1834 143.757 77.5354 143.139 77.5354 142.456C77.5354 141.944 77.3594 141.523 77.0074 141.192C76.6554 140.861 76.1754 140.696 75.5674 140.696C74.8634 140.696 74.3087 140.925 73.9034 141.384C73.498 141.832 73.2954 142.445 73.2954 143.224H71.8714C71.8714 142.467 72.026 141.811 72.3354 141.256C72.6554 140.701 73.0927 140.28 73.6474 139.992C74.2127 139.693 74.8527 139.544 75.5674 139.544C76.218 139.544 76.8047 139.672 77.3274 139.928C77.85 140.184 78.2554 140.531 78.5434 140.968C78.842 141.395 78.9914 141.859 78.9914 142.36C78.9914 142.968 78.842 143.501 78.5434 143.96C78.2554 144.419 77.834 144.872 77.2794 145.32L76.8474 145.672C76.506 145.949 76.2607 146.264 76.1114 146.616C75.9727 146.968 75.9034 147.427 75.9034 147.992H74.5114ZM76.0474 151H74.3994V149.256H76.0474V151ZM22.44 199V187.8H26.808C27.9173 187.8 28.8347 188.045 29.56 188.536C30.2853 189.027 30.648 189.843 30.648 190.984C30.648 192.125 30.2907 192.941 29.576 193.432C28.872 193.912 27.9493 194.152 26.808 194.152H23.896V199H22.44ZM26.792 192.936C28.3707 192.936 29.16 192.285 29.16 190.984C29.16 189.672 28.3707 189.016 26.792 189.016H23.896V192.936H26.792ZM35.1988 199.24C34.4628 199.24 33.8068 199.069 33.2308 198.728C32.6548 198.387 32.2068 197.907 31.8868 197.288C31.5668 196.659 31.4068 195.939 31.4068 195.128C31.4068 194.339 31.5668 193.635 31.8868 193.016C32.2068 192.387 32.6548 191.901 33.2308 191.56C33.8068 191.208 34.4628 191.032 35.1988 191.032C35.9241 191.032 36.5748 191.208 37.1508 191.56C37.7268 191.901 38.1748 192.387 38.4948 193.016C38.8254 193.635 38.9908 194.339 38.9908 195.128C38.9908 195.939 38.8254 196.659 38.4948 197.288C38.1748 197.907 37.7268 198.387 37.1508 198.728C36.5748 199.069 35.9241 199.24 35.1988 199.24ZM35.1988 198.168C35.9241 198.168 36.5001 197.891 36.9268 197.336C37.3534 196.781 37.5668 196.045 37.5668 195.128C37.5668 194.221 37.3481 193.496 36.9108 192.952C36.4841 192.397 35.9134 192.12 35.1988 192.12C34.4841 192.12 33.9081 192.397 33.4708 192.952C33.0441 193.496 32.8307 194.221 32.8307 195.128C32.8307 196.045 33.0441 196.781 33.4708 197.336C33.8974 197.891 34.4734 198.168 35.1988 198.168ZM40.8559 199V191.288H42.2319V191.624V192.568C42.4345 192.109 42.7439 191.741 43.1599 191.464C43.5865 191.176 44.0825 191.032 44.6479 191.032C44.7972 191.032 44.9145 191.037 44.9999 191.048V192.408C44.8505 192.387 44.7065 192.376 44.5679 192.376C43.8105 192.376 43.2292 192.589 42.8239 193.016C42.4292 193.443 42.2319 194.077 42.2319 194.92V199H40.8559ZM53.0574 199.24C51.8947 199.24 50.9774 198.883 50.3054 198.168C49.644 197.453 49.3134 196.435 49.3134 195.112C49.3134 194.333 49.468 193.635 49.7774 193.016C50.0974 192.397 50.5347 191.912 51.0894 191.56C51.6547 191.208 52.284 191.032 52.9774 191.032C54.108 191.032 54.9827 191.4 55.6014 192.136C56.2307 192.872 56.5454 193.869 56.5454 195.128V195.4H50.6894C50.7 196.253 50.9294 196.931 51.3774 197.432C51.8254 197.923 52.3907 198.168 53.0734 198.168C53.596 198.168 54.044 198.051 54.4174 197.816C54.7907 197.571 55.02 197.171 55.1054 196.616H56.4654C56.38 197.363 56.0494 197.987 55.4734 198.488C54.8974 198.989 54.092 199.24 53.0574 199.24ZM55.0734 194.424C55.0734 193.72 54.8867 193.16 54.5134 192.744C54.1507 192.328 53.6387 192.12 52.9774 192.12C52.348 192.12 51.8307 192.339 51.4254 192.776C51.02 193.213 50.7907 193.763 50.7374 194.424H55.0734ZM58.434 189.832V188.184H60.018V189.832H58.434ZM59.922 191.288V200.488C59.922 201.053 59.7513 201.549 59.41 201.976C59.0687 202.413 58.5247 202.632 57.778 202.632C57.4793 202.632 57.2233 202.605 57.01 202.552V201.32C57.138 201.363 57.2713 201.384 57.41 201.384C57.7727 201.384 58.05 201.283 58.242 201.08C58.4447 200.877 58.546 200.541 58.546 200.072V191.288H59.922ZM65.5574 199.24C64.3947 199.24 63.4774 198.883 62.8054 198.168C62.144 197.453 61.8134 196.435 61.8134 195.112C61.8134 194.333 61.968 193.635 62.2774 193.016C62.5974 192.397 63.0347 191.912 63.5894 191.56C64.1547 191.208 64.784 191.032 65.4774 191.032C66.608 191.032 67.4827 191.4 68.1014 192.136C68.7307 192.872 69.0454 193.869 69.0454 195.128V195.4H63.1894C63.2 196.253 63.4294 196.931 63.8774 197.432C64.3254 197.923 64.8907 198.168 65.5734 198.168C66.096 198.168 66.544 198.051 66.9174 197.816C67.2907 197.571 67.52 197.171 67.6054 196.616H68.9654C68.88 197.363 68.5494 197.987 67.9734 198.488C67.3974 198.989 66.592 199.24 65.5574 199.24ZM67.5734 194.424C67.5734 193.72 67.3867 193.16 67.0134 192.744C66.6507 192.328 66.1387 192.12 65.4774 192.12C64.848 192.12 64.3307 192.339 63.9254 192.776C63.52 193.213 63.2907 193.763 63.2374 194.424H67.5734ZM70.934 199V191.288H72.31V191.896V192.328C72.5553 191.933 72.87 191.619 73.254 191.384C73.6487 191.149 74.086 191.032 74.566 191.032C75.0887 191.032 75.5473 191.16 75.942 191.416C76.3473 191.672 76.662 192.051 76.886 192.552C77.1633 192.083 77.5153 191.715 77.942 191.448C78.3793 191.171 78.8647 191.032 79.398 191.032C80.2087 191.032 80.8593 191.293 81.35 191.816C81.8513 192.339 82.102 193.107 82.102 194.12V199H80.726V194.392C80.726 193.635 80.598 193.069 80.342 192.696C80.0967 192.312 79.686 192.12 79.11 192.12C78.5233 192.12 78.0593 192.344 77.718 192.792C77.3767 193.229 77.206 193.768 77.206 194.408V199H75.83V194.44C75.83 193.683 75.702 193.107 75.446 192.712C75.2007 192.317 74.8007 192.12 74.246 192.12C73.6593 192.12 73.19 192.349 72.838 192.808C72.486 193.256 72.31 193.811 72.31 194.472V199H70.934ZM84.3715 202.376V191.288H85.7475V191.848V192.344C85.9822 191.981 86.3288 191.672 86.7875 191.416C87.2462 191.16 87.7475 191.032 88.2915 191.032C89.0168 191.032 89.6462 191.208 90.1795 191.56C90.7235 191.912 91.1342 192.397 91.4115 193.016C91.6995 193.635 91.8435 194.339 91.8435 195.128C91.8435 195.939 91.6942 196.653 91.3955 197.272C91.0968 197.891 90.6755 198.376 90.1315 198.728C89.5875 199.069 88.9635 199.24 88.2595 199.24C87.7155 199.24 87.2248 199.123 86.7875 198.888C86.3502 198.653 86.0035 198.333 85.7475 197.928V198.568V202.376H84.3715ZM88.0515 198.168C88.7555 198.168 89.3208 197.891 89.7475 197.336C90.1848 196.771 90.4035 196.035 90.4035 195.128C90.4035 194.232 90.1848 193.507 89.7475 192.952C89.3208 192.397 88.7555 192.12 88.0515 192.12C87.3475 192.12 86.7715 192.397 86.3235 192.952C85.8862 193.496 85.6675 194.221 85.6675 195.128C85.6675 196.035 85.8862 196.771 86.3235 197.336C86.7715 197.891 87.3475 198.168 88.0515 198.168ZM93.6996 187.8H95.0756V199H93.6996V187.8ZM100.73 199.24C99.994 199.24 99.338 199.069 98.762 198.728C98.186 198.387 97.738 197.907 97.418 197.288C97.098 196.659 96.938 195.939 96.938 195.128C96.938 194.339 97.098 193.635 97.418 193.016C97.738 192.387 98.186 191.901 98.762 191.56C99.338 191.208 99.994 191.032 100.73 191.032C101.455 191.032 102.106 191.208 102.682 191.56C103.258 191.901 103.706 192.387 104.026 193.016C104.357 193.635 104.522 194.339 104.522 195.128C104.522 195.939 104.357 196.659 104.026 197.288C103.706 197.907 103.258 198.387 102.682 198.728C102.106 199.069 101.455 199.24 100.73 199.24ZM100.73 198.168C101.455 198.168 102.031 197.891 102.458 197.336C102.885 196.781 103.098 196.045 103.098 195.128C103.098 194.221 102.879 193.496 102.442 192.952C102.015 192.397 101.445 192.12 100.73 192.12C100.015 192.12 99.4393 192.397 99.002 192.952C98.5753 193.496 98.362 194.221 98.362 195.128C98.362 196.045 98.5753 196.781 99.002 197.336C99.4287 197.891 100.005 198.168 100.73 198.168ZM106.275 200.728C106.552 200.643 106.76 200.493 106.899 200.28C107.038 200.067 107.107 199.72 107.107 199.24V199H106.259V197.144H108.083V199.176C108.083 200.627 107.48 201.443 106.275 201.624V200.728ZM115.924 191.288H117.572V193.032H115.924V191.288ZM117.46 194.296C117.46 195.053 117.354 195.672 117.14 196.152C116.938 196.632 116.522 197.128 115.892 197.64L115.492 197.976C114.788 198.531 114.436 199.149 114.436 199.832C114.436 200.344 114.612 200.765 114.964 201.096C115.316 201.427 115.796 201.592 116.404 201.592C117.108 201.592 117.663 201.363 118.068 200.904C118.474 200.456 118.676 199.843 118.676 199.064H120.1C120.1 199.821 119.94 200.477 119.62 201.032C119.311 201.587 118.874 202.008 118.308 202.296C117.754 202.595 117.119 202.744 116.404 202.744C115.754 202.744 115.167 202.616 114.644 202.36C114.122 202.104 113.711 201.757 113.412 201.32C113.124 200.893 112.98 200.429 112.98 199.928C112.98 199.32 113.124 198.787 113.412 198.328C113.711 197.869 114.138 197.416 114.692 196.968L115.124 196.616C115.466 196.339 115.706 196.024 115.844 195.672C115.994 195.32 116.068 194.861 116.068 194.296H117.46ZM126.768 198.584V197.928C126.534 198.344 126.198 198.669 125.76 198.904C125.323 199.128 124.827 199.24 124.272 199.24C123.558 199.24 122.928 199.08 122.384 198.76C121.84 198.44 121.419 197.971 121.12 197.352C120.822 196.733 120.672 195.997 120.672 195.144C120.672 194.365 120.816 193.667 121.104 193.048C121.403 192.419 121.824 191.928 122.368 191.576C122.912 191.213 123.547 191.032 124.272 191.032C124.848 191.032 125.36 191.16 125.808 191.416C126.267 191.661 126.608 191.965 126.832 192.328V191.656V191.288H128.144V202.376H126.768V198.584ZM124.448 198.168C125.152 198.168 125.723 197.896 126.16 197.352C126.608 196.797 126.832 196.061 126.832 195.144C126.832 194.227 126.614 193.496 126.176 192.952C125.75 192.397 125.184 192.12 124.48 192.12C123.766 192.12 123.19 192.403 122.752 192.968C122.315 193.523 122.096 194.248 122.096 195.144C122.096 196.051 122.31 196.781 122.736 197.336C123.174 197.891 123.744 198.168 124.448 198.168ZM133.185 199.24C132.278 199.24 131.585 198.979 131.105 198.456C130.635 197.933 130.401 197.181 130.401 196.2V191.288H131.777V195.912C131.777 196.669 131.915 197.235 132.193 197.608C132.47 197.981 132.918 198.168 133.536 198.168C134.166 198.168 134.651 197.939 134.993 197.48C135.334 197.021 135.505 196.376 135.505 195.544V191.288H136.865V199H135.521V198.536V197.928C135.339 198.333 135.035 198.653 134.609 198.888C134.182 199.123 133.707 199.24 133.185 199.24ZM142.975 189.928H141.823L142.959 187.864H144.671L142.975 189.928ZM142.495 199.24C141.332 199.24 140.415 198.883 139.743 198.168C139.082 197.453 138.751 196.435 138.751 195.112C138.751 194.333 138.906 193.635 139.215 193.016C139.535 192.397 139.972 191.912 140.527 191.56C141.092 191.208 141.722 191.032 142.415 191.032C143.546 191.032 144.42 191.4 145.039 192.136C145.668 192.872 145.983 193.869 145.983 195.128V195.4H140.127C140.138 196.253 140.367 196.931 140.815 197.432C141.263 197.923 141.828 198.168 142.511 198.168C143.034 198.168 143.482 198.051 143.855 197.816C144.228 197.571 144.458 197.171 144.543 196.616H145.903C145.818 197.363 145.487 197.987 144.911 198.488C144.335 198.989 143.53 199.24 142.495 199.24ZM144.511 194.424C144.511 193.72 144.324 193.16 143.951 192.744C143.588 192.328 143.076 192.12 142.415 192.12C141.786 192.12 141.268 192.339 140.863 192.776C140.458 193.213 140.228 193.763 140.175 194.424H144.511ZM154.372 199.24C153.348 199.24 152.543 198.989 151.956 198.488C151.38 197.976 151.082 197.299 151.06 196.456H152.404C152.426 196.989 152.607 197.411 152.948 197.72C153.3 198.019 153.78 198.168 154.388 198.168C154.922 198.168 155.348 198.056 155.668 197.832C155.999 197.597 156.164 197.288 156.164 196.904C156.164 196.285 155.716 195.891 154.82 195.72L153.652 195.496C152.916 195.357 152.34 195.101 151.924 194.728C151.508 194.355 151.3 193.88 151.3 193.304C151.3 192.867 151.428 192.477 151.684 192.136C151.94 191.795 152.292 191.528 152.74 191.336C153.199 191.133 153.716 191.032 154.292 191.032C155.22 191.032 155.951 191.251 156.484 191.688C157.018 192.115 157.311 192.723 157.364 193.512H156.004C155.951 193.053 155.764 192.707 155.444 192.472C155.135 192.237 154.719 192.12 154.196 192.12C153.738 192.12 153.37 192.221 153.092 192.424C152.815 192.627 152.676 192.893 152.676 193.224C152.676 193.523 152.783 193.757 152.996 193.928C153.21 194.099 153.54 194.227 153.988 194.312L155.188 194.536C155.924 194.675 156.495 194.925 156.9 195.288C157.316 195.651 157.524 196.141 157.524 196.76C157.524 197.219 157.396 197.64 157.14 198.024C156.884 198.397 156.516 198.696 156.036 198.92C155.567 199.133 155.012 199.24 154.372 199.24ZM160.603 187.864H162.315L160.619 189.928H159.467L160.603 187.864ZM159.403 191.288H160.779V199H159.403V191.288ZM163.137 199V191.288H164.513V191.816V192.328C164.726 191.976 165.046 191.672 165.473 191.416C165.91 191.16 166.38 191.032 166.881 191.032C167.777 191.032 168.476 191.304 168.977 191.848C169.478 192.392 169.729 193.155 169.729 194.136V199H168.353V194.312C168.353 193.565 168.22 193.016 167.953 192.664C167.686 192.301 167.254 192.12 166.657 192.12C166.006 192.12 165.484 192.339 165.089 192.776C164.705 193.203 164.513 193.731 164.513 194.36V199H163.137ZM174.654 199.08C174.014 199.08 173.486 198.904 173.07 198.552C172.665 198.189 172.462 197.608 172.462 196.808V192.424H171.022V191.288H172.462V188.744H173.838V191.288H175.438V192.424H173.838V196.664C173.838 197.091 173.934 197.395 174.126 197.576C174.329 197.757 174.612 197.848 174.974 197.848C175.134 197.848 175.326 197.832 175.55 197.8V198.984C175.262 199.048 174.964 199.08 174.654 199.08ZM180.402 199.24C179.666 199.24 179.01 199.069 178.434 198.728C177.858 198.387 177.41 197.907 177.09 197.288C176.77 196.659 176.61 195.939 176.61 195.128C176.61 194.339 176.77 193.635 177.09 193.016C177.41 192.387 177.858 191.901 178.434 191.56C179.01 191.208 179.666 191.032 180.402 191.032C181.127 191.032 181.778 191.208 182.354 191.56C182.93 191.901 183.378 192.387 183.698 193.016C184.029 193.635 184.194 194.339 184.194 195.128C184.194 195.939 184.029 196.659 183.698 197.288C183.378 197.907 182.93 198.387 182.354 198.728C181.778 199.069 181.127 199.24 180.402 199.24ZM180.402 198.168C181.127 198.168 181.703 197.891 182.13 197.336C182.557 196.781 182.77 196.045 182.77 195.128C182.77 194.221 182.551 193.496 182.114 192.952C181.687 192.397 181.117 192.12 180.402 192.12C179.687 192.12 179.111 192.397 178.674 192.952C178.247 193.496 178.034 194.221 178.034 195.128C178.034 196.045 178.247 196.781 178.674 197.336C179.101 197.891 179.677 198.168 180.402 198.168ZM186.059 199V191.288H187.435V191.896V192.328C187.68 191.933 187.995 191.619 188.379 191.384C188.774 191.149 189.211 191.032 189.691 191.032C190.214 191.032 190.672 191.16 191.067 191.416C191.472 191.672 191.787 192.051 192.011 192.552C192.288 192.083 192.64 191.715 193.067 191.448C193.504 191.171 193.99 191.032 194.523 191.032C195.334 191.032 195.984 191.293 196.475 191.816C196.976 192.339 197.227 193.107 197.227 194.12V199H195.851V194.392C195.851 193.635 195.723 193.069 195.467 192.696C195.222 192.312 194.811 192.12 194.235 192.12C193.648 192.12 193.184 192.344 192.843 192.792C192.502 193.229 192.331 193.768 192.331 194.408V199H190.955V194.44C190.955 193.683 190.827 193.107 190.571 192.712C190.326 192.317 189.926 192.12 189.371 192.12C188.784 192.12 188.315 192.349 187.963 192.808C187.611 193.256 187.435 193.811 187.435 194.472V199H186.059ZM201.689 199.24C200.931 199.24 200.297 199.027 199.785 198.6C199.283 198.173 199.033 197.603 199.033 196.888C199.033 196.195 199.267 195.656 199.737 195.272C200.217 194.877 200.835 194.616 201.593 194.488L203.241 194.232C203.529 194.189 203.731 194.109 203.849 193.992C203.966 193.875 204.025 193.699 204.025 193.464C204.025 193.048 203.881 192.723 203.593 192.488C203.305 192.243 202.931 192.12 202.473 192.12C201.897 192.12 201.454 192.264 201.145 192.552C200.835 192.829 200.67 193.213 200.649 193.704H199.273C199.294 193.224 199.427 192.781 199.673 192.376C199.918 191.971 200.27 191.645 200.729 191.4C201.198 191.155 201.742 191.032 202.361 191.032C203.31 191.032 204.046 191.293 204.569 191.816C205.102 192.339 205.369 193.048 205.369 193.944V199H204.057V198.616V197.96C203.865 198.365 203.561 198.68 203.145 198.904C202.739 199.128 202.254 199.24 201.689 199.24ZM201.881 198.168C202.499 198.168 203.011 197.976 203.417 197.592C203.822 197.208 204.025 196.707 204.025 196.088V194.952C203.939 195.08 203.657 195.192 203.177 195.288L202.057 195.496C200.99 195.699 200.457 196.163 200.457 196.888C200.457 197.272 200.59 197.581 200.857 197.816C201.134 198.051 201.475 198.168 201.881 198.168ZM210.341 199.24C209.317 199.24 208.512 198.989 207.925 198.488C207.349 197.976 207.05 197.299 207.029 196.456H208.373C208.394 196.989 208.576 197.411 208.917 197.72C209.269 198.019 209.749 198.168 210.357 198.168C210.89 198.168 211.317 198.056 211.637 197.832C211.968 197.597 212.133 197.288 212.133 196.904C212.133 196.285 211.685 195.891 210.789 195.72L209.621 195.496C208.885 195.357 208.309 195.101 207.893 194.728C207.477 194.355 207.269 193.88 207.269 193.304C207.269 192.867 207.397 192.477 207.653 192.136C207.909 191.795 208.261 191.528 208.709 191.336C209.168 191.133 209.685 191.032 210.261 191.032C211.189 191.032 211.92 191.251 212.453 191.688C212.986 192.115 213.28 192.723 213.333 193.512H211.973C211.92 193.053 211.733 192.707 211.413 192.472C211.104 192.237 210.688 192.12 210.165 192.12C209.706 192.12 209.338 192.221 209.061 192.424C208.784 192.627 208.645 192.893 208.645 193.224C208.645 193.523 208.752 193.757 208.965 193.928C209.178 194.099 209.509 194.227 209.957 194.312L211.157 194.536C211.893 194.675 212.464 194.925 212.869 195.288C213.285 195.651 213.493 196.141 213.493 196.76C213.493 197.219 213.365 197.64 213.109 198.024C212.853 198.397 212.485 198.696 212.005 198.92C211.536 199.133 210.981 199.24 210.341 199.24ZM222.432 199.24C221.27 199.24 220.352 198.883 219.68 198.168C219.019 197.453 218.688 196.435 218.688 195.112C218.688 194.333 218.843 193.635 219.152 193.016C219.472 192.397 219.91 191.912 220.464 191.56C221.03 191.208 221.659 191.032 222.352 191.032C223.483 191.032 224.358 191.4 224.976 192.136C225.606 192.872 225.92 193.869 225.92 195.128V195.4H220.064C220.075 196.253 220.304 196.931 220.752 197.432C221.2 197.923 221.766 198.168 222.448 198.168C222.971 198.168 223.419 198.051 223.792 197.816C224.166 197.571 224.395 197.171 224.48 196.616H225.84C225.755 197.363 225.424 197.987 224.848 198.488C224.272 198.989 223.467 199.24 222.432 199.24ZM224.448 194.424C224.448 193.72 224.262 193.16 223.888 192.744C223.526 192.328 223.014 192.12 222.352 192.12C221.723 192.12 221.206 192.339 220.8 192.776C220.395 193.213 220.166 193.763 220.112 194.424H224.448ZM230.513 199.24C229.489 199.24 228.684 198.989 228.097 198.488C227.521 197.976 227.222 197.299 227.201 196.456H228.545C228.566 196.989 228.748 197.411 229.089 197.72C229.441 198.019 229.921 198.168 230.529 198.168C231.062 198.168 231.489 198.056 231.809 197.832C232.14 197.597 232.305 197.288 232.305 196.904C232.305 196.285 231.857 195.891 230.961 195.72L229.793 195.496C229.057 195.357 228.481 195.101 228.065 194.728C227.649 194.355 227.441 193.88 227.441 193.304C227.441 192.867 227.569 192.477 227.825 192.136C228.081 191.795 228.433 191.528 228.881 191.336C229.34 191.133 229.857 191.032 230.433 191.032C231.361 191.032 232.092 191.251 232.625 191.688C233.158 192.115 233.452 192.723 233.505 193.512H232.145C232.092 193.053 231.905 192.707 231.585 192.472C231.276 192.237 230.86 192.12 230.337 192.12C229.878 192.12 229.51 192.221 229.233 192.424C228.956 192.627 228.817 192.893 228.817 193.224C228.817 193.523 228.924 193.757 229.137 193.928C229.35 194.099 229.681 194.227 230.129 194.312L231.329 194.536C232.065 194.675 232.636 194.925 233.041 195.288C233.457 195.651 233.665 196.141 233.665 196.76C233.665 197.219 233.537 197.64 233.281 198.024C233.025 198.397 232.657 198.696 232.177 198.92C231.708 199.133 231.153 199.24 230.513 199.24ZM238.186 199.08C237.546 199.08 237.018 198.904 236.602 198.552C236.196 198.189 235.994 197.608 235.994 196.808V192.424H234.554V191.288H235.994V188.744H237.37V191.288H238.97V192.424H237.37V196.664C237.37 197.091 237.466 197.395 237.658 197.576C237.86 197.757 238.143 197.848 238.506 197.848C238.666 197.848 238.858 197.832 239.082 197.8V198.984C238.794 199.048 238.495 199.08 238.186 199.08ZM244.171 189.928H243.019L244.155 187.864H245.867L244.171 189.928ZM242.923 199.24C242.166 199.24 241.531 199.027 241.019 198.6C240.518 198.173 240.267 197.603 240.267 196.888C240.267 196.195 240.502 195.656 240.971 195.272C241.451 194.877 242.07 194.616 242.827 194.488L244.475 194.232C244.763 194.189 244.966 194.109 245.083 193.992C245.2 193.875 245.259 193.699 245.259 193.464C245.259 193.048 245.115 192.723 244.827 192.488C244.539 192.243 244.166 192.12 243.707 192.12C243.131 192.12 242.688 192.264 242.379 192.552C242.07 192.829 241.904 193.213 241.883 193.704H240.507C240.528 193.224 240.662 192.781 240.907 192.376C241.152 191.971 241.504 191.645 241.963 191.4C242.432 191.155 242.976 191.032 243.595 191.032C244.544 191.032 245.28 191.293 245.803 191.816C246.336 192.339 246.603 193.048 246.603 193.944V199H245.291V198.616V197.96C245.099 198.365 244.795 198.68 244.379 198.904C243.974 199.128 243.488 199.24 242.923 199.24ZM243.115 198.168C243.734 198.168 244.246 197.976 244.651 197.592C245.056 197.208 245.259 196.707 245.259 196.088V194.952C245.174 195.08 244.891 195.192 244.411 195.288L243.291 195.496C242.224 195.699 241.691 196.163 241.691 196.888C241.691 197.272 241.824 197.581 242.091 197.816C242.368 198.051 242.71 198.168 243.115 198.168ZM22.184 223V215.288H23.56V215.896V216.328C23.8053 215.933 24.12 215.619 24.504 215.384C24.8987 215.149 25.336 215.032 25.816 215.032C26.3387 215.032 26.7973 215.16 27.192 215.416C27.5973 215.672 27.912 216.051 28.136 216.552C28.4133 216.083 28.7653 215.715 29.192 215.448C29.6293 215.171 30.1147 215.032 30.648 215.032C31.4587 215.032 32.1093 215.293 32.6 215.816C33.1013 216.339 33.352 217.107 33.352 218.12V223H31.976V218.392C31.976 217.635 31.848 217.069 31.592 216.696C31.3467 216.312 30.936 216.12 30.36 216.12C29.7733 216.12 29.3093 216.344 28.968 216.792C28.6267 217.229 28.456 217.768 28.456 218.408V223H27.08V218.44C27.08 217.683 26.952 217.107 26.696 216.712C26.4507 216.317 26.0507 216.12 25.496 216.12C24.9093 216.12 24.44 216.349 24.088 216.808C23.736 217.256 23.56 217.811 23.56 218.472V223H22.184ZM38.9175 223.24C38.1815 223.24 37.5255 223.069 36.9495 222.728C36.3735 222.387 35.9255 221.907 35.6055 221.288C35.2855 220.659 35.1255 219.939 35.1255 219.128C35.1255 218.339 35.2855 217.635 35.6055 217.016C35.9255 216.387 36.3735 215.901 36.9495 215.56C37.5255 215.208 38.1815 215.032 38.9175 215.032C39.6428 215.032 40.2935 215.208 40.8695 215.56C41.4455 215.901 41.8935 216.387 42.2135 217.016C42.5442 217.635 42.7095 218.339 42.7095 219.128C42.7095 219.939 42.5442 220.659 42.2135 221.288C41.8935 221.907 41.4455 222.387 40.8695 222.728C40.2935 223.069 39.6428 223.24 38.9175 223.24ZM38.9175 222.168C39.6428 222.168 40.2188 221.891 40.6455 221.336C41.0722 220.781 41.2855 220.045 41.2855 219.128C41.2855 218.221 41.0668 217.496 40.6295 216.952C40.2028 216.397 39.6322 216.12 38.9175 216.12C38.2028 216.12 37.6268 216.397 37.1895 216.952C36.7628 217.496 36.5495 218.221 36.5495 219.128C36.5495 220.045 36.7628 220.781 37.1895 221.336C37.6162 221.891 38.1922 222.168 38.9175 222.168ZM47.2786 223.24C46.2546 223.24 45.4493 222.989 44.8626 222.488C44.2866 221.976 43.988 221.299 43.9666 220.456H45.3106C45.332 220.989 45.5133 221.411 45.8546 221.72C46.2066 222.019 46.6866 222.168 47.2946 222.168C47.828 222.168 48.2546 222.056 48.5746 221.832C48.9053 221.597 49.0706 221.288 49.0706 220.904C49.0706 220.285 48.6226 219.891 47.7266 219.72L46.5586 219.496C45.8226 219.357 45.2466 219.101 44.8306 218.728C44.4146 218.355 44.2066 217.88 44.2066 217.304C44.2066 216.867 44.3346 216.477 44.5906 216.136C44.8466 215.795 45.1986 215.528 45.6466 215.336C46.1053 215.133 46.6226 215.032 47.1986 215.032C48.1266 215.032 48.8573 215.251 49.3906 215.688C49.924 216.115 50.2173 216.723 50.2706 217.512H48.9106C48.8573 217.053 48.6706 216.707 48.3506 216.472C48.0413 216.237 47.6253 216.12 47.1026 216.12C46.644 216.12 46.276 216.221 45.9986 216.424C45.7213 216.627 45.5826 216.893 45.5826 217.224C45.5826 217.523 45.6893 217.757 45.9026 217.928C46.116 218.099 46.4466 218.227 46.8946 218.312L48.0946 218.536C48.8306 218.675 49.4013 218.925 49.8066 219.288C50.2226 219.651 50.4306 220.141 50.4306 220.76C50.4306 221.219 50.3026 221.64 50.0466 222.024C49.7906 222.397 49.4226 222.696 48.9426 222.92C48.4733 223.133 47.9186 223.24 47.2786 223.24ZM54.9513 223.08C54.3113 223.08 53.7833 222.904 53.3673 222.552C52.9619 222.189 52.7593 221.608 52.7593 220.808V216.424H51.3193V215.288H52.7593V212.744H54.1353V215.288H55.7352V216.424H54.1353V220.664C54.1353 221.091 54.2313 221.395 54.4233 221.576C54.6259 221.757 54.9086 221.848 55.2713 221.848C55.4313 221.848 55.6233 221.832 55.8473 221.8V222.984C55.5593 223.048 55.2606 223.08 54.9513 223.08ZM57.4965 223V215.288H58.8725V215.624V216.568C59.0752 216.109 59.3845 215.741 59.8005 215.464C60.2272 215.176 60.7232 215.032 61.2885 215.032C61.4378 215.032 61.5552 215.037 61.6405 215.048V216.408C61.4912 216.387 61.3472 216.376 61.2085 216.376C60.4512 216.376 59.8698 216.589 59.4645 217.016C59.0698 217.443 58.8725 218.077 58.8725 218.92V223H57.4965ZM65.0948 223.24C64.3374 223.24 63.7028 223.027 63.1908 222.6C62.6894 222.173 62.4388 221.603 62.4388 220.888C62.4388 220.195 62.6734 219.656 63.1428 219.272C63.6228 218.877 64.2414 218.616 64.9988 218.488L66.6468 218.232C66.9348 218.189 67.1374 218.109 67.2548 217.992C67.3721 217.875 67.4308 217.699 67.4308 217.464C67.4308 217.048 67.2868 216.723 66.9988 216.488C66.7108 216.243 66.3374 216.12 65.8788 216.12C65.3028 216.12 64.8601 216.264 64.5508 216.552C64.2414 216.829 64.0761 217.213 64.0548 217.704H62.6788C62.7001 217.224 62.8334 216.781 63.0788 216.376C63.3241 215.971 63.6761 215.645 64.1348 215.4C64.6041 215.155 65.1481 215.032 65.7668 215.032C66.7161 215.032 67.4521 215.293 67.9748 215.816C68.5081 216.339 68.7748 217.048 68.7748 217.944V223H67.4628V222.616V221.96C67.2708 222.365 66.9668 222.68 66.5508 222.904C66.1454 223.128 65.6601 223.24 65.0948 223.24ZM65.2868 222.168C65.9054 222.168 66.4174 221.976 66.8228 221.592C67.2281 221.208 67.4308 220.707 67.4308 220.088V218.952C67.3454 219.08 67.0628 219.192 66.5828 219.288L65.4628 219.496C64.3961 219.699 63.8628 220.163 63.8628 220.888C63.8628 221.272 63.9961 221.581 64.2628 221.816C64.5401 222.051 64.8814 222.168 65.2868 222.168ZM71.0434 223V215.288H72.4194V215.816V216.328C72.6327 215.976 72.9527 215.672 73.3794 215.416C73.8167 215.16 74.286 215.032 74.7874 215.032C75.6834 215.032 76.382 215.304 76.8834 215.848C77.3847 216.392 77.6354 217.155 77.6354 218.136V223H76.2594V218.312C76.2594 217.565 76.126 217.016 75.8594 216.664C75.5927 216.301 75.1607 216.12 74.5634 216.12C73.9127 216.12 73.39 216.339 72.9954 216.776C72.6114 217.203 72.4194 217.731 72.4194 218.36V223H71.0434ZM82.9588 223.24C82.2761 223.24 81.6681 223.08 81.1348 222.76C80.6014 222.44 80.1801 221.971 79.8708 221.352C79.5614 220.733 79.4068 219.997 79.4068 219.144C79.4068 218.365 79.5508 217.667 79.8388 217.048C80.1374 216.419 80.5588 215.928 81.1028 215.576C81.6468 215.213 82.2761 215.032 82.9908 215.032C83.5774 215.032 84.0841 215.165 84.5108 215.432C84.9481 215.688 85.2681 215.987 85.4708 216.328V215.704V211.8H86.8468V223H85.4708V222.552V221.928C85.2574 222.301 84.9214 222.616 84.4628 222.872C84.0148 223.117 83.5134 223.24 82.9588 223.24ZM83.1988 222.168C83.8921 222.168 84.4574 221.891 84.8948 221.336C85.3428 220.781 85.5668 220.045 85.5668 219.128C85.5668 218.221 85.3481 217.496 84.9108 216.952C84.4734 216.397 83.9028 216.12 83.1988 216.12C82.4948 216.12 81.9241 216.403 81.4868 216.968C81.0494 217.523 80.8307 218.248 80.8307 219.144C80.8307 220.051 81.0494 220.781 81.4868 221.336C81.9241 221.891 82.4948 222.168 83.1988 222.168ZM92.5113 223.24C91.7753 223.24 91.1193 223.069 90.5433 222.728C89.9673 222.387 89.5193 221.907 89.1993 221.288C88.8793 220.659 88.7193 219.939 88.7193 219.128C88.7193 218.339 88.8793 217.635 89.1993 217.016C89.5193 216.387 89.9673 215.901 90.5433 215.56C91.1193 215.208 91.7753 215.032 92.5113 215.032C93.2366 215.032 93.8873 215.208 94.4633 215.56C95.0393 215.901 95.4873 216.387 95.8073 217.016C96.1379 217.635 96.3033 218.339 96.3033 219.128C96.3033 219.939 96.1379 220.659 95.8073 221.288C95.4873 221.907 95.0393 222.387 94.4633 222.728C93.8873 223.069 93.2366 223.24 92.5113 223.24ZM92.5113 222.168C93.2366 222.168 93.8126 221.891 94.2393 221.336C94.6659 220.781 94.8793 220.045 94.8793 219.128C94.8793 218.221 94.6606 217.496 94.2233 216.952C93.7966 216.397 93.2259 216.12 92.5113 216.12C91.7966 216.12 91.2206 216.397 90.7833 216.952C90.3566 217.496 90.1432 218.221 90.1432 219.128C90.1432 220.045 90.3566 220.781 90.7833 221.336C91.2099 221.891 91.7859 222.168 92.5113 222.168ZM99.902 219.992C99.902 219.235 100.003 218.616 100.206 218.136C100.419 217.656 100.841 217.16 101.47 216.648L101.87 216.312C102.574 215.757 102.926 215.139 102.926 214.456C102.926 213.944 102.75 213.523 102.398 213.192C102.046 212.861 101.566 212.696 100.958 212.696C100.254 212.696 99.6993 212.925 99.294 213.384C98.8887 213.832 98.686 214.445 98.686 215.224H97.262C97.262 214.467 97.4167 213.811 97.726 213.256C98.046 212.701 98.4833 212.28 99.038 211.992C99.6033 211.693 100.243 211.544 100.958 211.544C101.609 211.544 102.195 211.672 102.718 211.928C103.241 212.184 103.646 212.531 103.934 212.968C104.233 213.395 104.382 213.859 104.382 214.36C104.382 214.968 104.233 215.501 103.934 215.96C103.646 216.419 103.225 216.872 102.67 217.32L102.238 217.672C101.897 217.949 101.651 218.264 101.502 218.616C101.363 218.968 101.294 219.427 101.294 219.992H99.902ZM101.438 223H99.79V221.256H101.438V223Z" fill="white"/>
</svg>
