<svg width="17" height="17" viewBox="0 0 17 17" fill="none" xmlns="http://www.w3.org/2000/svg">
<path d="M14.0833 0.75H2.41667C1.49619 0.75 0.75 1.49619 0.75 2.41667V14.0833C0.75 15.0038 1.49619 15.75 2.41667 15.75H14.0833C15.0038 15.75 15.75 15.0038 15.75 14.0833V2.41667C15.75 1.49619 15.0038 0.75 14.0833 0.75Z" stroke="#474747" stroke-width="1.5" stroke-linecap="round" stroke-linejoin="round"/>
<path d="M5.3335 6.58325C6.02385 6.58325 6.5835 6.02361 6.5835 5.33325C6.5835 4.6429 6.02385 4.08325 5.3335 4.08325C4.64314 4.08325 4.0835 4.6429 4.0835 5.33325C4.0835 6.02361 4.64314 6.58325 5.3335 6.58325Z" stroke="#474747" stroke-width="1.5" stroke-linecap="round" stroke-linejoin="round"/>
<path d="M15.2502 10.3333L11.5835 6.58325L1.5835 14.9166" stroke="#474747" stroke-width="1.5" stroke-linecap="round" stroke-linejoin="round"/>
</svg>
