<svg width="18" height="18" viewBox="0 0 18 18" fill="none" xmlns="http://www.w3.org/2000/svg">
<path d="M9 1.5C7.725 1.5 6.75 2.4 6.75 3.45V8.55C6.75 9.6 7.725 10.5 9 10.5C10.275 10.5 11.25 9.6 11.25 8.55V3.45C11.25 2.4 10.275 1.5 9 1.5Z" stroke="#474747" stroke-width="1.5" stroke-linecap="round" stroke-linejoin="round"/>
<path d="M14.25 7.5V8.25C14.25 9.64239 13.6969 10.9777 12.7123 11.9623C11.7277 12.9469 10.3924 13.5 9 13.5C7.60761 13.5 6.27226 12.9469 5.28769 11.9623C4.30312 10.9777 3.75 9.64239 3.75 8.25V7.5M9 13.8V16.275M6 16.5H12" stroke="#474747" stroke-width="1.5" stroke-linecap="round" stroke-linejoin="round"/>
</svg>
