<svg width="300" height="679" viewBox="0 0 300 679" fill="none" xmlns="http://www.w3.org/2000/svg">
<g clip-path="url(#clip0_234_2904)">
<path d="M2.58325 349.942L33.2761 347.221" stroke="white" stroke-linecap="round" stroke-linejoin="round"/>
<path d="M7.99133 390.454L38.3254 385.032" stroke="white" stroke-linecap="round" stroke-linejoin="round"/>
<path d="M16.9648 430.33L46.701 422.251" stroke="white" stroke-linecap="round" stroke-linejoin="round"/>
<path d="M45.2878 506.93L73.1326 493.739" stroke="white" stroke-linecap="round" stroke-linejoin="round"/>
<path d="M64.4143 543.051L90.9819 527.454" stroke="white" stroke-linecap="round" stroke-linejoin="round"/>
<path d="M86.6553 577.347L111.745 559.463" stroke="white" stroke-linecap="round" stroke-linejoin="round"/>
<path d="M139.784 639.383L161.336 617.365" stroke="white" stroke-linecap="round" stroke-linejoin="round"/>
<path d="M170.255 666.639L189.767 642.805" stroke="white" stroke-linecap="round" stroke-linejoin="round"/>
<path d="M203.013 691.101L220.346 665.633" stroke="white" stroke-linecap="round" stroke-linejoin="round"/>
<path d="M86.6553 40.8799L111.745 58.7643" stroke="white" stroke-linecap="round" stroke-linejoin="round"/>
<path d="M64.4143 75.1758L90.9819 90.7729" stroke="white" stroke-linecap="round" stroke-linejoin="round"/>
<path d="M45.2878 111.297L73.1326 124.488" stroke="white" stroke-linecap="round" stroke-linejoin="round"/>
<path d="M16.9648 187.897L46.701 195.982" stroke="white" stroke-linecap="round" stroke-linejoin="round"/>
<path d="M7.99133 227.773L38.3254 233.195" stroke="white" stroke-linecap="round" stroke-linejoin="round"/>
<path d="M2.58325 268.285L33.2761 271.006" stroke="white" stroke-linecap="round" stroke-linejoin="round"/>
<path d="M112.997 611.277L109.834 607.581L110.59 606.934L110.78 607.156C110.885 607.278 110.964 607.377 111.021 607.453C110.966 607.182 110.988 606.903 111.086 606.616C111.185 606.32 111.359 606.065 111.608 605.852C112.031 605.49 112.473 605.341 112.934 605.406C113.395 605.46 113.824 605.719 114.22 606.183L116.22 608.519L115.464 609.166L113.556 606.937C112.994 606.28 112.456 606.172 111.942 606.611C111.662 606.851 111.518 607.142 111.51 607.483C111.503 607.824 111.621 608.138 111.864 608.423L113.753 610.63L112.997 611.277ZM118.965 606.383C118.603 606.693 118.212 606.886 117.793 606.962C117.373 607.039 116.959 606.997 116.548 606.837C116.139 606.667 115.766 606.387 115.43 605.995C115.099 605.607 114.886 605.199 114.792 604.769C114.693 604.333 114.713 603.914 114.854 603.512C114.99 603.104 115.236 602.748 115.593 602.443C115.949 602.139 116.34 601.95 116.763 601.879C117.182 601.802 117.6 601.847 118.014 602.012C118.425 602.172 118.796 602.446 119.127 602.832C119.463 603.224 119.68 603.638 119.779 604.074C119.874 604.503 119.851 604.92 119.71 605.323C119.569 605.725 119.321 606.079 118.965 606.383ZM118.455 605.788C118.781 605.509 118.936 605.165 118.921 604.755C118.9 604.34 118.71 603.921 118.348 603.499C117.99 603.081 117.608 602.835 117.201 602.761C116.794 602.677 116.43 602.772 116.109 603.046C115.788 603.321 115.635 603.668 115.65 604.088C115.666 604.497 115.853 604.911 116.21 605.328C116.571 605.75 116.955 606.004 117.363 606.088C117.765 606.167 118.129 606.066 118.455 605.788ZM122.425 603.213L117.857 600.719L118.682 600.013L121.79 601.837C121.899 601.903 122.055 602.003 122.258 602.137C122.198 602.004 122.125 601.833 122.042 601.622L120.698 598.288L121.492 597.609L123.265 602.494L122.425 603.213ZM121.517 596.463L120.786 595.608L121.625 594.889L122.357 595.744L121.517 596.463ZM122.119 597.073L122.875 596.426L126.037 600.122L125.282 600.769L122.119 597.073ZM128.81 597.962C128.245 598.446 127.648 598.656 127.021 598.593C126.399 598.526 125.817 598.176 125.278 597.545C124.955 597.168 124.744 596.767 124.645 596.341C124.545 595.906 124.561 595.491 124.691 595.097C124.822 594.694 125.058 594.347 125.4 594.055C125.95 593.585 126.53 593.397 127.14 593.492C127.747 593.582 128.309 593.929 128.827 594.535L128.964 594.695L126.199 597.061C126.523 597.428 126.877 597.636 127.263 597.685C127.648 597.734 127.997 597.626 128.308 597.36C128.541 597.16 128.692 596.934 128.76 596.683C128.827 596.432 128.778 596.169 128.614 595.894L129.378 595.241C129.655 595.648 129.753 596.097 129.672 596.59C129.591 597.083 129.304 597.54 128.81 597.962ZM127.698 594.839C127.437 594.534 127.144 594.362 126.819 594.322C126.494 594.283 126.186 594.387 125.896 594.635C125.616 594.875 125.463 595.169 125.436 595.519C125.413 595.864 125.516 596.195 125.743 596.512L127.698 594.839ZM131.255 595.659L128.093 591.963L128.849 591.316L129.058 591.56C129.158 591.678 129.232 591.769 129.279 591.834C129.23 591.55 129.244 591.273 129.322 591.004C129.406 590.73 129.569 590.488 129.814 590.279C130.048 590.079 130.314 589.962 130.611 589.928C130.908 589.894 131.197 589.948 131.476 590.088C131.424 589.77 131.446 589.456 131.541 589.145C131.642 588.83 131.82 588.563 132.074 588.345C132.456 588.019 132.875 587.885 133.332 587.945C133.789 587.994 134.22 588.256 134.625 588.729L136.625 591.066L135.869 591.712L133.987 589.513C133.407 588.837 132.878 588.702 132.4 589.112C132.15 589.325 132.034 589.597 132.051 589.926C132.064 590.25 132.197 590.56 132.449 590.855L134.318 593.039L133.555 593.692L131.679 591.501C131.095 590.819 130.57 590.678 130.101 591.079C129.847 591.297 129.728 591.569 129.745 591.899C129.762 592.228 129.901 592.546 130.163 592.851L132.012 595.012L131.255 595.659ZM139.699 588.647C139.43 588.878 139.143 589.027 138.838 589.093C138.529 589.155 138.236 589.137 137.958 589.039C138.029 589.111 138.125 589.219 138.247 589.361L138.404 589.544L137.647 590.191L133.073 584.846L133.829 584.199L135.398 586.032L135.671 586.366C135.637 586.069 135.672 585.775 135.775 585.484C135.879 585.193 136.063 584.934 136.328 584.707C136.659 584.424 137.023 584.257 137.422 584.208C137.825 584.154 138.227 584.216 138.626 584.394C139.021 584.567 139.385 584.847 139.716 585.235C140.051 585.626 140.274 586.031 140.384 586.448C140.494 586.866 140.49 587.267 140.369 587.652C140.254 588.032 140.031 588.364 139.699 588.647ZM139.022 588.195C139.343 587.921 139.496 587.574 139.481 587.155C139.462 586.73 139.278 586.314 138.929 585.907C138.577 585.495 138.194 585.249 137.782 585.17C137.371 585.081 137.002 585.175 136.676 585.454C136.361 585.724 136.21 586.069 136.225 586.488C136.236 586.902 136.42 587.318 136.777 587.735C137.125 588.143 137.507 588.388 137.924 588.474C138.34 588.558 138.707 588.465 139.022 588.195ZM142.116 586.369L138.953 582.674L139.709 582.027L139.885 582.233C140.05 582.426 140.17 582.572 140.244 582.667C140.149 582.361 140.139 582.056 140.215 581.753C140.286 581.445 140.457 581.175 140.727 580.944C140.804 580.879 140.864 580.831 140.909 580.802L141.55 581.55C141.48 581.583 141.397 581.64 141.301 581.723C140.96 582.015 140.777 582.338 140.755 582.693C140.737 583.043 140.898 583.416 141.238 583.814L142.872 585.722L142.116 586.369ZM146.434 582.887C145.869 583.37 145.273 583.58 144.646 583.517C144.024 583.45 143.442 583.1 142.902 582.47C142.58 582.092 142.369 581.691 142.269 581.265C142.17 580.83 142.185 580.416 142.316 580.021C142.447 579.619 142.683 579.271 143.024 578.979C143.574 578.509 144.155 578.322 144.765 578.417C145.371 578.506 145.933 578.854 146.452 579.459L146.589 579.62L143.824 581.985C144.147 582.352 144.502 582.561 144.888 582.609C145.273 582.659 145.621 582.55 145.932 582.285C146.166 582.085 146.317 581.858 146.385 581.607C146.451 581.356 146.403 581.093 146.239 580.819L147.002 580.165C147.28 580.572 147.378 581.022 147.297 581.514C147.216 582.006 146.928 582.464 146.434 582.887ZM145.323 579.764C145.062 579.459 144.769 579.286 144.444 579.247C144.119 579.207 143.811 579.311 143.521 579.56C143.241 579.799 143.088 580.093 143.06 580.443C143.038 580.788 143.14 581.119 143.367 581.437L145.323 579.764Z" fill="white"/>
<path d="M31.5083 471.087C31.1056 471.234 30.7092 471.273 30.3192 471.201C29.9354 471.128 29.5856 470.941 29.2696 470.644C28.9599 470.343 28.7118 469.938 28.5253 469.429C28.3481 468.944 28.2827 468.482 28.3294 468.045C28.3761 467.607 28.5231 467.229 28.7704 466.909C29.0177 466.591 29.3427 466.358 29.7455 466.211C30.0916 466.084 30.415 466.051 30.7157 466.112C31.0227 466.172 31.2794 466.288 31.4858 466.463C31.4387 466.373 31.3829 466.24 31.3184 466.064L30.4897 463.799L31.4337 463.453L33.8508 470.059L32.9068 470.405L32.8205 470.169C32.7537 469.987 32.7117 469.852 32.6943 469.766C32.6554 470.029 32.5344 470.284 32.3317 470.529C32.1289 470.775 31.8545 470.961 31.5083 471.087ZM31.4373 470.279C31.8212 470.138 32.0794 469.869 32.212 469.471C32.3486 469.064 32.3238 468.606 32.1373 468.097C31.9508 467.587 31.6785 467.223 31.3202 467.004C30.962 466.786 30.5878 466.748 30.1976 466.891C29.8075 467.033 29.544 467.308 29.4074 467.715C29.2748 468.113 29.3006 468.564 29.4847 469.067C29.6711 469.576 29.9446 469.943 30.3052 470.168C30.6635 470.387 31.0408 470.423 31.4373 470.279ZM33.1412 464.231L32.7544 463.173L33.7928 462.794L34.1796 463.851L33.1412 464.231ZM33.4914 465.012L34.4259 464.67L36.0971 469.238L35.1626 469.58L33.4914 465.012ZM39.4684 468.176C39.0216 468.339 38.5906 468.39 38.1754 468.329C37.7665 468.264 37.3978 468.085 37.0692 467.791C36.7382 467.491 36.4784 467.083 36.2896 466.568C36.1147 466.089 36.0611 465.631 36.129 465.192C36.2009 464.745 36.3762 464.357 36.655 464.026C36.9337 463.696 37.2902 463.452 37.7244 463.292C38.3097 463.079 38.8436 463.065 39.326 463.253C39.8146 463.438 40.1809 463.786 40.4246 464.296L39.4617 464.648C39.322 464.364 39.1201 464.163 38.856 464.045C38.5982 463.926 38.3088 463.925 37.9878 464.041C37.5913 464.187 37.3248 464.463 37.1882 464.869C37.0492 465.27 37.0718 465.721 37.256 466.224C37.4425 466.735 37.7159 467.102 38.0765 467.327C38.441 467.542 38.8246 467.577 39.2274 467.43C39.5609 467.308 39.795 467.119 39.9297 466.863C40.0682 466.598 40.0958 466.303 40.0121 465.976L40.9561 465.632C41.0974 466.193 41.0411 466.702 40.7872 467.159C40.5373 467.607 40.0978 467.946 39.4684 468.176ZM40.4976 461.54L40.1109 460.483L41.1492 460.104L41.536 461.16L40.4976 461.54ZM40.8478 462.321L41.7823 461.98L43.4536 466.548L42.519 466.889L40.8478 462.321ZM46.8059 465.493C46.1074 465.748 45.4753 465.737 44.9098 465.459C44.3504 465.179 43.9281 464.648 43.6426 463.868C43.4723 463.402 43.4148 462.952 43.4701 462.519C43.5293 462.076 43.6889 461.693 43.9488 461.37C44.2126 461.038 44.5554 460.795 44.977 460.64C45.6567 460.392 46.2659 460.419 46.8046 460.721C47.3411 461.017 47.7462 461.539 48.0202 462.288L48.0927 462.486L44.6755 463.736C44.8498 464.193 45.1092 464.512 45.4536 464.693C45.798 464.873 46.1622 464.894 46.5461 464.753C46.8356 464.647 47.0557 464.488 47.2064 464.276C47.3572 464.065 47.4036 463.801 47.3458 463.487L48.2897 463.142C48.4075 463.619 48.3422 464.075 48.0939 464.508C47.8457 464.941 47.4164 465.27 46.8059 465.493ZM46.8564 462.178C46.7183 461.801 46.5039 461.538 46.2134 461.387C45.9228 461.236 45.5981 461.226 45.2394 461.358C44.8933 461.484 44.6464 461.706 44.4987 462.025C44.3574 462.34 44.3377 462.686 44.4397 463.063L46.8564 462.178ZM49.9031 464.189L48.2319 459.621L49.1664 459.28L49.2769 459.582C49.3298 459.726 49.367 459.838 49.3883 459.915C49.4416 459.632 49.5519 459.378 49.7192 459.152C49.8928 458.925 50.1307 458.756 50.4327 458.645C50.7222 458.539 51.0121 458.523 51.3025 458.595C51.593 458.667 51.8443 458.817 52.0566 459.046C52.1195 458.731 52.2501 458.444 52.4483 458.187C52.6527 457.926 52.9123 457.738 53.2269 457.623C53.6989 457.451 54.1383 457.472 54.5452 457.687C54.9561 457.894 55.2686 458.289 55.4827 458.875L56.5393 461.763L55.6048 462.104L54.6103 459.386C54.3042 458.549 53.8552 458.239 53.2637 458.456C52.9553 458.568 52.7517 458.782 52.6526 459.096C52.5513 459.404 52.5674 459.74 52.7009 460.106L53.6885 462.805L52.7445 463.15L51.7535 460.442C51.445 459.598 51.0013 459.283 50.4223 459.495C50.1076 459.61 49.9008 459.824 49.8018 460.139C49.7028 460.453 49.7224 460.799 49.8604 461.177L50.8376 463.847L49.9031 464.189ZM60.2658 460.571C59.9323 460.693 59.6112 460.731 59.3025 460.687C58.9916 460.637 58.7231 460.518 58.4972 460.329C58.538 460.421 58.5907 460.555 58.6551 460.731L58.738 460.958L57.8034 461.3L55.3863 454.693L56.3209 454.352L57.1496 456.617L57.2886 457.026C57.3608 456.736 57.4962 456.472 57.695 456.236C57.8938 455.999 58.1568 455.82 58.4841 455.701C58.8932 455.551 59.293 455.523 59.6836 455.616C60.0806 455.705 60.435 455.904 60.7471 456.211C61.0568 456.512 61.2991 456.9 61.4741 457.379C61.6513 457.864 61.7186 458.32 61.6759 458.749C61.6332 459.179 61.4882 459.553 61.2409 459.872C60.9999 460.188 60.6749 460.421 60.2658 460.571ZM59.7888 459.91C60.1853 459.765 60.4498 459.494 60.5825 459.096C60.7128 458.691 60.6859 458.238 60.5018 457.734C60.3153 457.225 60.043 456.861 59.6847 456.642C59.3305 456.415 58.952 456.375 58.5492 456.522C58.159 456.665 57.8976 456.935 57.765 457.333C57.6301 457.725 57.657 458.179 57.8457 458.695C58.0299 459.199 58.3022 459.563 58.6627 459.788C59.0233 460.012 59.3987 460.054 59.7888 459.91ZM63.3254 459.28L61.6541 454.713L62.5886 454.371L62.6819 454.626C62.7693 454.865 62.8307 455.042 62.8658 455.158C62.8841 454.837 62.9817 454.548 63.1587 454.291C63.3334 454.027 63.5875 453.835 63.9211 453.712C64.0154 453.678 64.089 453.654 64.1416 453.643L64.48 454.567C64.4039 454.574 64.3061 454.599 64.1865 454.642C63.7648 454.797 63.4813 455.036 63.3359 455.361C63.1968 455.682 63.2171 456.089 63.3966 456.58L64.2599 458.939L63.3254 459.28ZM68.5895 457.526C67.8909 457.782 67.2588 457.771 66.6932 457.492C66.134 457.212 65.7116 456.682 65.4261 455.902C65.2558 455.436 65.1983 454.986 65.2535 454.552C65.3128 454.11 65.4724 453.726 65.7322 453.403C65.9961 453.072 66.3389 452.828 66.7605 452.674C67.4402 452.425 68.0494 452.452 68.5881 452.755C69.1245 453.051 69.5298 453.573 69.8037 454.322L69.8762 454.52L66.459 455.769C66.6333 456.227 66.8927 456.546 67.2371 456.726C67.5816 456.907 67.9457 456.927 68.3296 456.787C68.619 456.681 68.8392 456.522 68.9899 456.311C69.1406 456.098 69.1871 455.835 69.1293 455.521L70.0733 455.176C70.1909 455.654 70.1257 456.109 69.8775 456.542C69.6292 456.975 69.1999 457.303 68.5895 457.526ZM68.6398 454.213C68.5017 453.835 68.2874 453.571 67.9968 453.42C67.7063 453.27 67.3817 453.26 67.0229 453.392C66.6768 453.518 66.43 453.74 66.2823 454.058C66.1409 454.374 66.1212 454.72 66.2233 455.096L68.6398 454.213Z" fill="white"/>
<path d="M110.289 9.92916L113.458 6.23926L114.213 6.88735L114.004 7.13131C113.903 7.24827 113.824 7.335 113.766 7.39166C114.04 7.2996 114.316 7.27154 114.595 7.3074C114.877 7.3476 115.141 7.47245 115.385 7.68201C115.619 7.88276 115.776 8.12742 115.855 8.41599C115.934 8.70455 115.925 8.99737 115.829 9.29451C116.135 9.19518 116.449 9.16898 116.771 9.21582C117.098 9.26699 117.388 9.40165 117.642 9.61987C118.024 9.94724 118.22 10.3409 118.232 10.8009C118.252 11.2601 118.059 11.7261 117.653 12.1988L115.649 14.5317L114.895 13.8836L116.78 11.6879C117.361 11.0119 117.413 10.4688 116.935 10.0585C116.685 9.84467 116.4 9.77131 116.077 9.83864C115.758 9.90079 115.473 10.0793 115.219 10.3741L113.347 12.5545L112.584 11.8998L114.463 9.71179C115.048 9.03069 115.107 8.48942 114.639 8.08784C114.385 7.86962 114.097 7.79417 113.774 7.86143C113.451 7.92868 113.159 8.11482 112.897 8.41977L111.043 10.5773L110.289 9.92916ZM117.625 16.4405C117.397 16.2441 117.223 16.015 117.103 15.7533C116.988 15.4959 116.947 15.2306 116.978 14.9574C117.015 14.6886 117.131 14.4398 117.328 14.2112C117.887 13.5606 118.658 13.5424 119.64 14.1566L120.426 14.6456C120.586 14.7475 120.716 14.797 120.815 14.7943C120.924 14.7907 121.024 14.7356 121.116 14.6288C121.269 14.451 121.327 14.2541 121.293 14.0383C121.257 13.8224 121.135 13.625 120.926 13.4461C120.677 13.2322 120.424 13.1255 120.168 13.1259C119.916 13.1308 119.692 13.2382 119.494 13.448L118.724 12.7868C118.945 12.561 119.201 12.406 119.494 12.322C119.791 12.2329 120.1 12.2285 120.42 12.3087C120.748 12.3882 121.066 12.5589 121.371 12.8208C121.864 13.2441 122.124 13.6924 122.15 14.1655C122.182 14.6429 121.995 15.118 121.589 15.5906L119.591 17.916L118.874 17.3005L119.025 17.1251C119.082 17.0591 119.181 16.9541 119.322 16.8104C119.06 16.9207 118.781 16.9466 118.487 16.8881C118.192 16.8298 117.905 16.6805 117.625 16.4405ZM118.276 15.992C118.556 16.232 118.861 16.3442 119.193 16.3285C119.528 16.3077 119.818 16.1551 120.063 15.8705L120.482 15.3825C120.374 15.3955 120.188 15.3289 119.925 15.1826L119.411 14.8867C118.825 14.5512 118.394 14.5435 118.119 14.8637C117.966 15.0416 117.907 15.2337 117.942 15.4401C117.976 15.6465 118.088 15.8305 118.276 15.992ZM120.61 18.7903L123.779 15.1007L124.535 15.7488L124.358 15.9546C124.191 16.1478 124.067 16.288 123.983 16.3751C124.272 16.2343 124.572 16.1783 124.883 16.2069C125.198 16.2304 125.49 16.3579 125.76 16.5893C125.837 16.6547 125.892 16.7075 125.929 16.7474L125.287 17.4947C125.244 17.4313 125.175 17.3579 125.078 17.2753C124.737 16.9829 124.39 16.8525 124.036 16.8841C123.687 16.9201 123.342 17.1363 123.002 17.5326L121.365 19.4388L120.61 18.7903ZM123.032 20.8697L123.588 20.2211L127.447 19.6932L127.871 19.6468L125.766 17.8395L126.277 17.245L129.198 19.7527L128.635 20.4082L124.797 20.9277C124.599 20.9524 124.45 20.9663 124.351 20.9686L126.6 22.9004L126.09 23.4948L123.032 20.8697ZM128.34 25.6392C127.979 25.3292 127.729 24.9728 127.589 24.5701C127.449 24.1674 127.426 23.7515 127.522 23.3209C127.627 22.8903 127.848 22.4791 128.184 22.0879C128.516 21.7014 128.887 21.4286 129.298 21.2693C129.714 21.1047 130.13 21.0614 130.549 21.1387C130.973 21.2106 131.364 21.4 131.719 21.7053C132.075 22.0106 132.321 22.3678 132.456 22.7752C132.596 23.1779 132.616 23.5969 132.516 24.0321C132.421 24.4619 132.207 24.87 131.875 25.2565C131.539 25.6477 131.163 25.926 130.748 26.0906C130.338 26.2498 129.922 26.2908 129.502 26.2135C129.083 26.1362 128.696 25.9445 128.34 25.6392ZM128.851 25.0447C129.176 25.3238 129.54 25.4243 129.943 25.3462C130.35 25.2635 130.735 25.0107 131.097 24.5886C131.455 24.172 131.64 23.7569 131.651 23.3425C131.672 22.9274 131.522 22.5827 131.202 22.3075C130.881 22.0323 130.515 21.9341 130.103 22.013C129.7 22.091 129.32 22.3392 128.962 22.7558C128.599 23.1771 128.408 23.5961 128.388 24.0104C128.371 24.4209 128.525 24.7649 128.851 25.0447Z" fill="white"/>
<path d="M28.1018 150.621L29.5009 146.81L28.6233 146.489L28.9004 145.734L29.7779 146.056L30.0446 145.329C30.2154 144.864 30.4771 144.549 30.8297 144.386C31.1823 144.223 31.5599 144.215 31.9625 144.363C32.1513 144.433 32.3139 144.524 32.4503 144.638L32.1663 145.412C32.0623 145.346 31.9631 145.295 31.8688 145.26C31.6675 145.186 31.4895 145.185 31.3347 145.257C31.1799 145.329 31.0644 145.468 30.9882 145.676L30.7215 146.402L31.6746 146.752L31.3976 147.506L30.4445 147.157L29.0454 150.968L28.1018 150.621ZM32.6546 152.463C31.9563 152.208 31.4813 151.79 31.2294 151.213C30.9837 150.638 31.0041 149.96 31.2904 149.18C31.4612 148.714 31.7079 148.334 32.0306 148.038C32.3618 147.739 32.7311 147.549 33.1383 147.471C33.5542 147.388 33.9729 147.423 34.3944 147.578C35.0738 147.828 35.5214 148.241 35.7373 148.82C35.9554 149.393 35.9271 150.053 35.6524 150.801L35.5796 150.999L32.1638 149.746C32.0015 150.208 31.9935 150.619 32.1395 150.979C32.2856 151.339 32.5505 151.59 32.9342 151.731C33.2236 151.837 33.4943 151.858 33.7464 151.793C33.9985 151.729 34.2039 151.558 34.3628 151.281L35.3064 151.627C35.0876 152.068 34.7434 152.374 34.2741 152.544C33.8047 152.714 33.2648 152.688 32.6546 152.463ZM34.8347 149.967C34.9733 149.589 34.9803 149.249 34.8558 148.946C34.7313 148.644 34.4898 148.427 34.1312 148.295C33.7852 148.169 33.4531 148.179 33.1349 148.325C32.8231 148.475 32.5844 148.727 32.4191 149.08L34.8347 149.967ZM38.212 154.503C37.8786 154.381 37.6083 154.203 37.4012 153.969C37.1964 153.73 37.0686 153.466 37.018 153.176C36.9896 153.273 36.9431 153.409 36.8785 153.585L36.7954 153.812L35.8612 153.468L38.2853 146.865L39.2195 147.208L38.3884 149.472L38.2301 149.874C38.4728 149.699 38.7465 149.586 39.0512 149.533C39.3559 149.48 39.6718 149.514 39.999 149.635C40.4078 149.785 40.7315 150.021 40.9698 150.344C41.2145 150.669 41.3568 151.05 41.3967 151.486C41.4389 151.915 41.3723 152.368 41.1969 152.847C41.019 153.331 40.7752 153.723 40.4651 154.023C40.1551 154.323 39.8027 154.515 39.408 154.598C39.0196 154.684 38.6209 154.653 38.212 154.503ZM38.2745 153.69C38.6709 153.836 39.0482 153.799 39.4067 153.581C39.7675 153.357 40.0403 152.993 40.2249 152.49C40.4119 151.98 40.4393 151.527 40.3071 151.128C40.1835 150.726 39.9204 150.451 39.5178 150.304C39.1277 150.161 38.7535 150.199 38.3951 150.416C38.0389 150.628 37.7661 150.992 37.5769 151.508C37.3921 152.011 37.3648 152.465 37.4947 152.869C37.6246 153.274 37.8845 153.547 38.2745 153.69ZM41.381 155.494L43.0571 150.928L43.9913 151.271L43.8978 151.526C43.8101 151.765 43.7422 151.939 43.6944 152.051C43.9155 151.817 44.1768 151.66 44.4782 151.578C44.7819 151.489 45.1004 151.506 45.4338 151.629C45.5282 151.663 45.5994 151.693 45.6474 151.717L45.308 152.642C45.2457 152.598 45.1548 152.554 45.0353 152.51C44.6138 152.355 44.2428 152.355 43.9223 152.508C43.6082 152.664 43.361 152.988 43.1809 153.478L42.3152 155.837L41.381 155.494ZM46.5324 157.555C45.8341 157.299 45.3591 156.882 45.1072 156.305C44.8615 155.729 44.8819 155.051 45.1682 154.272C45.339 153.806 45.5857 153.426 45.9084 153.131C46.2396 152.831 46.6089 152.641 47.0161 152.562C47.432 152.48 47.8507 152.515 48.2722 152.67C48.9516 152.92 49.3992 153.333 49.6151 153.912C49.8332 154.485 49.8049 155.145 49.5302 155.893L49.4574 156.092L46.0416 154.838C45.8793 155.3 45.8712 155.711 46.0173 156.071C46.1634 156.431 46.4282 156.683 46.812 156.823C47.1013 156.929 47.3721 156.95 47.6241 156.886C47.8763 156.821 48.0817 156.65 48.2406 156.373L49.1842 156.72C48.9653 157.16 48.6212 157.466 48.1518 157.636C47.6824 157.806 47.1426 157.779 46.5324 157.555ZM48.7125 155.058C48.8511 154.681 48.858 154.341 48.7335 154.038C48.609 153.736 48.3676 153.519 48.009 153.387C47.663 153.26 47.3309 153.27 47.0127 153.417C46.7008 153.567 46.4622 153.819 46.2969 154.172L48.7125 155.058ZM49.739 158.561L51.4151 153.995L52.3493 154.337L52.2557 154.592C52.1681 154.831 52.1003 155.006 52.0524 155.117C52.2735 154.884 52.5348 154.727 52.8362 154.644C53.1398 154.556 53.4584 154.573 53.7918 154.695C53.8862 154.73 53.9573 154.76 54.0053 154.785L53.666 155.709C53.6037 155.664 53.5128 155.62 53.3933 155.577C52.9718 155.423 52.6008 155.422 52.2803 155.576C51.9661 155.731 51.719 156.054 51.5389 156.545L50.6732 158.903L49.739 158.561ZM54.9093 160.629C54.4627 160.465 54.1033 160.219 53.8311 159.891C53.559 159.563 53.3924 159.18 53.3313 158.744C53.2788 158.304 53.3415 157.841 53.5192 157.357C53.6947 156.879 53.9469 156.494 54.2758 156.2C54.607 155.901 54.9826 155.714 55.4024 155.64C55.8246 155.559 56.2559 155.6 56.6962 155.761C57.1365 155.923 57.4917 156.171 57.7614 156.506C58.0336 156.833 58.199 157.219 58.2578 157.661C58.3189 158.098 58.2618 158.555 58.0863 159.032C57.9085 159.517 57.654 159.909 57.3228 160.208C56.9939 160.502 56.6195 160.685 56.1997 160.76C55.7797 160.834 55.3496 160.79 54.9093 160.629ZM55.1794 159.893C55.582 160.041 55.9583 160.007 56.3081 159.793C56.6603 159.573 56.9322 159.202 57.1238 158.68C57.3131 158.164 57.3405 157.71 57.206 157.318C57.0801 156.922 56.819 156.652 56.4227 156.506C56.0263 156.361 55.6489 156.397 55.2905 156.615C54.9406 156.829 54.671 157.194 54.4817 157.711C54.2901 158.232 54.2572 158.692 54.3831 159.087C54.5114 159.477 54.7768 159.745 55.1794 159.893Z" fill="white"/>
<path d="M2.81447 311.207C2.07066 311.207 1.48096 310.979 1.0454 310.524C0.616532 310.068 0.4021 309.425 0.4021 308.594C0.4021 308.099 0.502615 307.656 0.703646 307.268C0.911381 306.873 1.19282 306.567 1.54798 306.353C1.90983 306.132 2.31524 306.021 2.76421 306.021C3.48792 306.021 4.05081 306.256 4.45287 306.725C4.85493 307.187 5.05597 307.817 5.05597 308.614V308.825H1.41731C1.42401 309.315 1.55803 309.703 1.81937 309.991C2.08071 310.279 2.41576 310.423 2.82452 310.423C3.13277 310.423 3.39411 310.35 3.60854 310.202C3.82297 310.054 3.957 309.823 4.0106 309.509H5.01576C4.96215 309.998 4.74437 310.403 4.36241 310.725C3.98045 311.046 3.46447 311.207 2.81447 311.207ZM4.00055 308.112C4.00055 307.71 3.88999 307.388 3.66885 307.147C3.44772 306.906 3.14617 306.785 2.76421 306.785C2.39565 306.785 2.08741 306.909 1.83947 307.157C1.59823 307.405 1.46086 307.723 1.42736 308.112H4.00055ZM6.17114 311.046V306.182H7.16624V306.474C7.16624 306.634 7.16289 306.762 7.15619 306.856C7.29021 306.614 7.48789 306.417 7.74924 306.263C8.01731 306.102 8.31545 306.021 8.64383 306.021C9.19999 306.021 9.6322 306.195 9.94047 306.544C10.2554 306.886 10.4129 307.361 10.4129 307.971V311.046H9.41779V308.112C9.41779 307.247 9.07937 306.815 8.40259 306.815C8.03401 306.815 7.73586 306.943 7.50799 307.197C7.28016 307.452 7.16624 307.767 7.16624 308.142V311.046H6.17114ZM13.8672 311.207C13.1234 311.207 12.5338 310.979 12.0982 310.524C11.6693 310.068 11.4549 309.425 11.4549 308.594C11.4549 308.099 11.5554 307.656 11.7564 307.268C11.9642 306.873 12.2456 306.567 12.6007 306.353C12.9626 306.132 13.3681 306.021 13.817 306.021C14.5407 306.021 15.1036 306.256 15.5056 306.725C15.9077 307.187 16.1087 307.817 16.1087 308.614V308.825H12.4701C12.4768 309.315 12.6108 309.703 12.8721 309.991C13.1335 310.279 13.4686 310.423 13.8773 310.423C14.1856 310.423 14.4469 310.35 14.6613 310.202C14.8758 310.054 15.0098 309.823 15.0634 309.509H16.0685C16.0149 309.998 15.7971 310.403 15.4152 310.725C15.0332 311.046 14.5173 311.207 13.8672 311.207ZM15.0533 308.112C15.0533 307.71 14.9427 307.388 14.7216 307.147C14.5005 306.906 14.1989 306.785 13.817 306.785C13.4485 306.785 13.1402 306.909 12.8922 307.157C12.651 307.405 12.5137 307.723 12.4801 308.112H15.0533ZM17.2239 311.046V306.182H18.219V306.454C18.219 306.708 18.2157 306.896 18.209 307.016C18.3363 306.722 18.5273 306.484 18.7819 306.303C19.0365 306.115 19.3415 306.021 19.6966 306.021C19.7971 306.021 19.8742 306.025 19.9278 306.032V307.016C19.8541 306.996 19.7536 306.986 19.6262 306.986C19.1772 306.986 18.8288 307.114 18.5809 307.368C18.3396 307.622 18.219 308.011 18.219 308.534V311.046H17.2239ZM22.7904 311.207C22.3146 311.207 21.8925 311.099 21.524 310.885C21.1554 310.671 20.8672 310.37 20.6595 309.981C20.4585 309.586 20.358 309.13 20.358 308.614C20.358 308.105 20.4618 307.656 20.6696 307.268C20.8773 306.873 21.1654 306.567 21.534 306.353C21.9025 306.132 22.3213 306.021 22.7904 306.021C23.2595 306.021 23.6783 306.132 24.0469 306.353C24.4154 306.567 24.7036 306.873 24.9113 307.268C25.119 307.656 25.2229 308.105 25.2229 308.614C25.2229 309.13 25.119 309.586 24.9113 309.981C24.7036 310.37 24.4154 310.671 24.0469 310.885C23.6783 311.099 23.2595 311.207 22.7904 311.207ZM22.7904 310.423C23.2193 310.423 23.561 310.262 23.8157 309.941C24.0703 309.612 24.1977 309.17 24.1977 308.614C24.1977 308.065 24.067 307.629 23.8057 307.308C23.551 306.979 23.2126 306.815 22.7904 306.815C22.3683 306.815 22.0265 306.979 21.7652 307.308C21.5105 307.629 21.3832 308.065 21.3832 308.614C21.3832 309.17 21.5105 309.612 21.7652 309.941C22.0198 310.262 22.3616 310.423 22.7904 310.423Z" fill="white"/>
<path d="M98.5824 298.678H58.3763C53.0384 298.678 48.7113 303.004 48.7113 308.34C48.7113 313.677 53.0384 318.003 58.3763 318.003H98.5824C103.92 318.003 108.247 313.677 108.247 308.34C108.247 303.004 103.92 298.678 98.5824 298.678Z" fill="black" fill-opacity="0.37"/>
<path d="M57.8218 310.397C57.4559 310.397 57.1311 310.319 56.8476 310.165C56.5692 310.01 56.3502 309.784 56.1904 309.484C56.0306 309.181 55.9507 308.817 55.9507 308.394C55.9507 308.003 56.0332 307.658 56.1981 307.359C56.3682 307.055 56.5976 306.82 56.8862 306.655C57.1749 306.491 57.4971 306.408 57.8527 306.408C58.3321 306.408 58.7213 306.539 59.0203 306.802C59.3244 307.065 59.4971 307.413 59.5383 307.846H58.7497C58.7239 307.604 58.6311 307.405 58.4713 307.25C58.3167 307.096 58.1079 307.019 57.845 307.019C57.5203 307.019 57.2548 307.148 57.0486 307.405C56.8424 307.658 56.7393 307.99 56.7393 308.402C56.7393 308.82 56.8399 309.157 57.0409 309.415C57.2471 309.668 57.5151 309.794 57.845 309.794C58.1182 309.794 58.3373 309.719 58.5022 309.569C58.6723 309.415 58.7703 309.208 58.796 308.951H59.5692C59.5228 309.394 59.3476 309.747 59.0435 310.01C58.7445 310.267 58.3373 310.397 57.8218 310.397ZM62.0049 310.397C61.6389 310.397 61.3142 310.314 61.0307 310.149C60.7472 309.985 60.5255 309.753 60.3657 309.454C60.2111 309.15 60.1338 308.799 60.1338 308.402C60.1338 308.01 60.2137 307.666 60.3734 307.366C60.5333 307.063 60.7549 306.828 61.0384 306.663C61.3219 306.493 61.6441 306.408 62.0049 306.408C62.3657 306.408 62.6879 306.493 62.9714 306.663C63.2549 306.828 63.4766 307.063 63.6363 307.366C63.7961 307.666 63.876 308.01 63.876 308.402C63.876 308.799 63.7961 309.15 63.6363 309.454C63.4766 309.753 63.2549 309.985 62.9714 310.149C62.6879 310.314 62.3657 310.397 62.0049 310.397ZM62.0049 309.794C62.3348 309.794 62.5977 309.67 62.7935 309.423C62.9895 309.17 63.0874 308.83 63.0874 308.402C63.0874 307.979 62.9868 307.645 62.7858 307.397C62.59 307.145 62.3296 307.019 62.0049 307.019C61.6801 307.019 61.4173 307.145 61.2162 307.397C61.0204 307.645 60.9224 307.979 60.9224 308.402C60.9224 308.83 61.0204 309.17 61.2162 309.423C61.4122 309.67 61.675 309.794 62.0049 309.794ZM64.7225 310.273V306.532H65.488V306.756C65.488 306.879 65.4854 306.978 65.4802 307.049C65.5833 306.864 65.7354 306.712 65.9364 306.593C66.1426 306.47 66.372 306.408 66.6246 306.408C67.0524 306.408 67.3849 306.542 67.622 306.81C67.8642 307.073 67.9854 307.438 67.9854 307.907V310.273H67.2199V308.016C67.2199 307.351 66.9596 307.019 66.439 307.019C66.1555 307.019 65.9262 307.117 65.7509 307.312C65.5756 307.508 65.488 307.751 65.488 308.039V310.273H64.7225ZM70.3952 310.397C69.89 310.397 69.4906 310.273 69.1968 310.026C68.903 309.778 68.7457 309.443 68.7251 309.021H69.4906C69.5009 309.263 69.5834 309.456 69.738 309.6C69.8977 309.74 70.1169 309.809 70.3952 309.809C70.6375 309.809 70.8308 309.76 70.9751 309.662C71.1194 309.559 71.1916 309.42 71.1916 309.245C71.1916 309.106 71.1375 308.995 71.0292 308.912C70.9261 308.825 70.7664 308.76 70.5499 308.719L70.0318 308.619C69.6555 308.547 69.3642 308.42 69.1581 308.24C68.9571 308.054 68.8566 307.815 68.8566 307.521C68.8566 307.31 68.9184 307.119 69.0421 306.949C69.1709 306.779 69.3462 306.647 69.5679 306.555C69.7947 306.457 70.0524 306.408 70.3411 306.408C70.805 306.408 71.1735 306.518 71.4468 306.74C71.7251 306.962 71.8746 307.264 71.8952 307.645H71.1298C71.1091 307.438 71.0266 307.279 70.8823 307.165C70.738 307.052 70.5472 306.995 70.3102 306.995C70.104 306.995 69.9364 307.042 69.8076 307.134C69.6839 307.222 69.622 307.338 69.622 307.482C69.622 307.621 69.671 307.73 69.7689 307.807C69.8668 307.879 70.0266 307.936 70.2483 307.977L70.7818 308.078C71.153 308.145 71.439 308.271 71.6401 308.456C71.8462 308.636 71.9493 308.879 71.9493 309.183C71.9493 309.409 71.8849 309.616 71.756 309.801C71.6323 309.987 71.4519 310.134 71.2148 310.242C70.9828 310.345 70.7096 310.397 70.3952 310.397ZM74.1008 310.397C73.6832 310.397 73.3534 310.267 73.1111 310.01C72.874 309.753 72.7554 309.386 72.7554 308.912V306.532H73.5286V308.766C73.5286 309.446 73.7915 309.786 74.3173 309.786C74.6008 309.786 74.8225 309.688 74.9822 309.492C75.142 309.291 75.2219 309.013 75.2219 308.657V306.532H75.9796V310.273H75.2296V310.072C75.2296 309.927 75.2323 309.822 75.2374 309.755C75.1446 309.951 74.9977 310.108 74.7966 310.227C74.6008 310.34 74.3688 310.397 74.1008 310.397ZM77.0604 304.862H77.826V310.273H77.0604V304.862ZM80.349 310.327C80.0033 310.327 79.7304 310.234 79.5294 310.049C79.3283 309.858 79.2278 309.564 79.2278 309.168V307.15H78.4701V306.532H79.2278V305.248H80.001V306.532H80.8283V307.15H80.001V309.075C80.001 309.471 80.1835 309.67 80.55 309.67C80.6374 309.67 80.7301 309.662 80.8283 309.647V310.265C80.6737 310.306 80.5136 310.327 80.349 310.327ZM82.6732 310.397C82.4412 310.397 82.2247 310.35 82.0237 310.257C81.8281 310.165 81.6703 310.031 81.552 309.855C81.4384 309.68 81.3819 309.477 81.3819 309.245C81.3819 308.585 81.8227 308.188 82.7041 308.054L83.4077 307.946C83.5523 307.925 83.6528 307.89 83.7093 307.838C83.7711 307.781 83.8021 307.699 83.8021 307.591C83.8021 307.41 83.7379 307.266 83.6088 307.158C83.4796 307.049 83.3095 306.995 83.0984 306.995C82.8456 306.995 82.6446 307.059 82.4953 307.189C82.3508 307.318 82.2734 307.492 82.2634 307.714H81.4825C81.4979 307.472 81.5698 307.253 81.699 307.057C81.8281 306.856 82.0059 306.699 82.2325 306.586C82.4644 306.467 82.735 306.408 83.0443 306.408C83.5446 306.408 83.9203 306.539 84.1732 306.802C84.4307 307.065 84.5598 307.436 84.5598 307.915V310.273H83.833V310.095C83.833 310.028 83.8384 309.917 83.8484 309.763C83.7502 309.958 83.601 310.113 83.4 310.227C83.199 310.34 82.9569 310.397 82.6732 310.397ZM82.8278 309.809C83.1116 309.809 83.3459 309.722 83.5314 309.546C83.717 309.366 83.8098 309.131 83.8098 308.843V308.348C83.7533 308.41 83.6111 308.464 83.3845 308.51L82.9361 308.595C82.4258 308.694 82.1706 308.905 82.1706 309.229C82.1706 309.409 82.2325 309.552 82.3562 309.655C82.4799 309.757 82.6368 309.809 82.8278 309.809Z" fill="white"/>
<path d="M97.2294 307.374L100.322 305.152V309.983L97.2294 307.809V307.326V307.374ZM91.6237 304.186H95.9729C96.2296 304.186 96.4748 304.288 96.6565 304.468C96.8374 304.65 96.9394 304.895 96.9394 305.152V309.983C96.9394 310.24 96.8374 310.485 96.6565 310.666C96.4748 310.847 96.2296 310.949 95.9729 310.949H91.6237C91.367 310.949 91.1219 310.847 90.9402 310.666C90.7593 310.485 90.6572 310.24 90.6572 309.983V305.152C90.6572 304.621 91.0925 304.186 91.6237 304.186Z" stroke="white" stroke-linecap="round" stroke-linejoin="round"/>
<path d="M156.332 496.398L122.553 518.2C118.069 521.094 116.78 527.075 119.675 531.558C122.57 536.042 128.552 537.33 133.037 534.436L166.816 512.634C171.3 509.74 172.589 503.759 169.694 499.276C166.799 494.792 160.816 493.504 156.332 496.398Z" fill="black" fill-opacity="0.37"/>
<path d="M128.445 528.346C128.137 528.545 127.822 528.656 127.5 528.679C127.182 528.701 126.875 528.629 126.579 528.464C126.28 528.296 126.015 528.034 125.787 527.679C125.574 527.349 125.456 527.015 125.433 526.674C125.41 526.327 125.476 526.005 125.629 525.71C125.782 525.415 126.008 525.171 126.307 524.978C126.709 524.718 127.108 524.618 127.502 524.676C127.9 524.732 128.233 524.931 128.503 525.272L127.84 525.7C127.687 525.51 127.502 525.394 127.284 525.35C127.069 525.305 126.852 525.353 126.632 525.495C126.359 525.671 126.206 525.923 126.172 526.252C126.136 526.576 126.23 526.911 126.453 527.257C126.68 527.608 126.947 527.837 127.256 527.945C127.566 528.045 127.86 528.006 128.137 527.827C128.367 527.679 128.51 527.497 128.568 527.282C128.627 527.06 128.597 526.834 128.479 526.604L129.128 526.184C129.33 526.582 129.374 526.973 129.261 527.359C129.15 527.738 128.878 528.067 128.445 528.346ZM131.959 526.078C131.651 526.277 131.334 526.383 131.006 526.398C130.679 526.413 130.366 526.338 130.07 526.174C129.776 526.003 129.52 525.75 129.305 525.417C129.093 525.088 128.972 524.754 128.944 524.417C128.913 524.074 128.973 523.757 129.121 523.465C129.268 523.168 129.492 522.922 129.795 522.727C130.098 522.531 130.415 522.428 130.745 522.417C131.073 522.401 131.387 522.479 131.686 522.647C131.982 522.812 132.237 523.058 132.449 523.388C132.664 523.721 132.787 524.059 132.818 524.4C132.846 524.738 132.786 525.054 132.637 525.346C132.488 525.638 132.262 525.882 131.959 526.078ZM131.632 525.572C131.909 525.392 132.063 525.146 132.093 524.832C132.121 524.513 132.019 524.175 131.787 523.815C131.557 523.46 131.291 523.233 130.988 523.134C130.686 523.028 130.4 523.064 130.127 523.239C129.854 523.416 129.701 523.664 129.67 523.985C129.639 524.3 129.738 524.634 129.967 524.989C130.2 525.348 130.467 525.581 130.768 525.687C131.067 525.789 131.354 525.75 131.632 525.572ZM134.175 524.5L132.145 521.357L132.789 520.942L132.91 521.131C132.977 521.234 133.028 521.318 133.063 521.381C133.049 521.169 133.094 520.959 133.198 520.751C133.305 520.535 133.464 520.358 133.676 520.222C134.036 519.99 134.388 519.922 134.733 520.018C135.078 520.108 135.379 520.35 135.633 520.744L136.916 522.731L136.273 523.146L135.049 521.25C134.688 520.691 134.289 520.553 133.852 520.835C133.614 520.989 133.474 521.195 133.433 521.455C133.392 521.715 133.45 521.966 133.606 522.208L134.818 524.085L134.175 524.5ZM139.008 521.528C138.584 521.802 138.181 521.915 137.8 521.866C137.419 521.818 137.105 521.621 136.858 521.277L137.501 520.863C137.641 521.061 137.816 521.178 138.024 521.216C138.234 521.246 138.455 521.185 138.689 521.035C138.893 520.903 139.028 520.757 139.096 520.596C139.162 520.432 139.147 520.276 139.052 520.129C138.977 520.012 138.871 519.948 138.735 519.938C138.602 519.92 138.432 519.953 138.228 520.035L137.738 520.232C137.383 520.375 137.07 520.427 136.798 520.387C136.529 520.341 136.314 520.194 136.155 519.946C136.041 519.769 135.989 519.575 136.001 519.366C136.017 519.152 136.093 518.948 136.229 518.749C136.366 518.544 136.556 518.363 136.798 518.206C137.188 517.955 137.558 517.848 137.908 517.886C138.262 517.921 138.551 518.093 138.776 518.403L138.132 518.818C138.003 518.656 137.847 518.566 137.664 518.549C137.481 518.532 137.29 518.588 137.092 518.716C136.918 518.829 136.802 518.958 136.744 519.106C136.688 519.247 136.7 519.378 136.778 519.499C136.853 519.616 136.953 519.68 137.077 519.692C137.198 519.7 137.364 519.66 137.572 519.575L138.075 519.37C138.423 519.225 138.731 519.176 139.001 519.223C139.272 519.263 139.49 519.411 139.655 519.666C139.778 519.857 139.836 520.065 139.829 520.29C139.825 520.513 139.753 520.735 139.613 520.954C139.474 521.166 139.272 521.358 139.008 521.528ZM142.121 519.519C141.77 519.745 141.424 519.816 141.08 519.731C140.741 519.643 140.443 519.4 140.186 519.002L138.894 517.001L139.544 516.582L140.756 518.459C141.125 519.03 141.53 519.173 141.972 518.888C142.21 518.735 142.343 518.532 142.371 518.281C142.396 518.025 142.312 517.749 142.12 517.45L140.966 515.664L141.603 515.253L143.633 518.396L143.003 518.803L142.894 518.634C142.815 518.513 142.76 518.423 142.728 518.363C142.756 518.578 142.718 518.79 142.614 518.999C142.511 519.2 142.346 519.374 142.121 519.519ZM141.605 513.264L142.248 512.849L145.184 517.395L144.54 517.81L141.605 513.264ZM147.333 516.073C147.043 516.26 146.763 516.33 146.493 516.283C146.221 516.232 145.977 516.04 145.761 515.706L144.667 514.011L144.03 514.422L143.695 513.903L144.332 513.492L143.636 512.413L144.285 511.994L144.981 513.073L145.676 512.624L146.012 513.144L145.317 513.592L146.361 515.209C146.576 515.542 146.838 515.61 147.145 515.412C147.219 515.364 147.292 515.307 147.367 515.241L147.702 515.76C147.595 515.88 147.471 515.983 147.333 516.073ZM149.323 514.871C149.129 514.997 148.921 515.075 148.702 515.106C148.487 515.134 148.283 515.107 148.088 515.024C147.898 514.938 147.739 514.798 147.613 514.603C147.256 514.049 147.411 513.476 148.079 512.886L148.611 512.413C148.721 512.318 148.786 512.233 148.805 512.159C148.827 512.078 148.808 511.992 148.749 511.901C148.652 511.749 148.519 511.664 148.352 511.642C148.185 511.621 148.013 511.668 147.835 511.783C147.623 511.919 147.489 512.082 147.434 512.272C147.382 512.458 147.412 512.648 147.523 512.839L146.868 513.263C146.75 513.051 146.691 512.828 146.693 512.593C146.692 512.355 146.756 512.126 146.886 511.908C147.016 511.683 147.211 511.486 147.471 511.318C147.892 511.047 148.279 510.954 148.634 511.037C148.993 511.119 149.302 511.36 149.562 511.763L150.841 513.744L150.23 514.138L150.134 513.989C150.097 513.932 150.042 513.836 149.967 513.701C149.991 513.918 149.949 514.129 149.842 514.333C149.734 514.538 149.562 514.717 149.323 514.871ZM149.134 514.293C149.373 514.139 149.522 513.938 149.583 513.691C149.641 513.438 149.592 513.192 149.436 512.949L149.167 512.533C149.153 512.616 149.063 512.738 148.897 512.9L148.567 513.215C148.192 513.574 148.092 513.89 148.268 514.163C148.365 514.314 148.495 514.399 148.655 514.419C148.814 514.439 148.974 514.397 149.134 514.293Z" fill="white"/>
<mask id="mask0_234_2904" style="mask-type:luminance" maskUnits="userSpaceOnUse" x="150" y="497" width="17" height="17">
<path d="M160.283 497.529L150.539 503.818L156.829 513.559L166.573 507.271L160.283 497.529Z" fill="white"/>
</mask>
<g mask="url(#mask0_234_2904)">
<path d="M159.912 504.438L161.305 500.894L163.927 504.953L160.149 504.804L159.887 504.398L159.912 504.438ZM153.473 504.799L157.127 502.441C157.343 502.302 157.604 502.254 157.855 502.308C158.105 502.362 158.324 502.514 158.463 502.728L161.084 506.788C161.223 507.003 161.271 507.264 161.217 507.515C161.163 507.765 161.012 507.984 160.797 508.123L157.143 510.482C156.927 510.621 156.665 510.669 156.415 510.615C156.164 510.561 155.946 510.409 155.806 510.194L153.185 506.135C152.897 505.688 153.027 505.088 153.473 504.799Z" stroke="white" stroke-linecap="round" stroke-linejoin="round"/>
</g>
<path d="M134.005 453.545L97.6554 470.723C92.8296 473.004 90.7667 478.764 93.0479 483.588C95.3291 488.413 101.09 490.475 105.916 488.195L142.266 471.016C147.092 468.736 149.155 462.976 146.873 458.151C144.592 453.326 138.831 451.264 134.005 453.545Z" fill="black" fill-opacity="0.37"/>
<path d="M102.163 481.555C101.833 481.711 101.506 481.78 101.183 481.761C100.866 481.74 100.571 481.629 100.299 481.427C100.024 481.221 99.7963 480.926 99.6162 480.544C99.4484 480.19 99.3757 479.843 99.3966 479.502C99.4205 479.155 99.528 478.845 99.7182 478.572C99.9084 478.3 100.165 478.088 100.486 477.936C100.92 477.731 101.328 477.684 101.711 477.793C102.097 477.901 102.403 478.141 102.625 478.515L101.912 478.852C101.785 478.644 101.616 478.504 101.406 478.433C101.2 478.359 100.978 478.378 100.74 478.491C100.447 478.63 100.262 478.859 100.186 479.181C100.107 479.497 100.156 479.842 100.332 480.214C100.511 480.592 100.746 480.854 101.038 481.001C101.332 481.141 101.629 481.14 101.926 481C102.174 480.883 102.34 480.722 102.425 480.517C102.513 480.304 102.513 480.076 102.426 479.832L103.126 479.502C103.273 479.922 103.266 480.316 103.102 480.684C102.942 481.044 102.629 481.335 102.163 481.555ZM105.946 479.768C105.615 479.924 105.285 479.988 104.959 479.96C104.632 479.932 104.333 479.817 104.06 479.615C103.791 479.407 103.571 479.123 103.401 478.764C103.234 478.41 103.158 478.064 103.175 477.725C103.19 477.382 103.29 477.075 103.475 476.805C103.659 476.53 103.914 476.315 104.241 476.161C104.566 476.008 104.894 475.947 105.223 475.979C105.55 476.007 105.85 476.124 106.125 476.331C106.397 476.533 106.617 476.811 106.784 477.165C106.954 477.524 107.032 477.874 107.017 478.218C107 478.556 106.899 478.861 106.713 479.131C106.528 479.401 106.272 479.614 105.946 479.768ZM105.687 479.223C105.986 479.081 106.171 478.858 106.242 478.55C106.311 478.238 106.254 477.888 106.072 477.502C105.891 477.12 105.656 476.86 105.37 476.723C105.084 476.577 104.795 476.575 104.501 476.713C104.207 476.853 104.024 477.079 103.95 477.393C103.879 477.701 103.934 478.045 104.114 478.427C104.297 478.814 104.531 479.08 104.816 479.224C105.099 479.364 105.39 479.363 105.687 479.223ZM108.349 478.494L106.75 475.112L107.442 474.785L107.538 474.988C107.591 475.099 107.63 475.189 107.657 475.256C107.671 475.044 107.743 474.843 107.874 474.649C108.008 474.449 108.189 474.295 108.417 474.188C108.803 474.005 109.161 473.984 109.491 474.125C109.822 474.259 110.088 474.538 110.288 474.962L111.299 477.101L110.607 477.428L109.642 475.387C109.358 474.786 108.981 474.597 108.51 474.819C108.254 474.94 108.088 475.126 108.014 475.378C107.939 475.63 107.963 475.887 108.087 476.148L109.041 478.167L108.349 478.494ZM113.531 476.183C113.074 476.399 112.66 476.458 112.289 476.359C111.917 476.261 111.632 476.025 111.433 475.652L112.125 475.325C112.238 475.54 112.395 475.679 112.597 475.744C112.8 475.801 113.028 475.77 113.279 475.651C113.499 475.548 113.653 475.421 113.741 475.271C113.827 475.116 113.834 474.959 113.759 474.801C113.699 474.676 113.602 474.598 113.469 474.57C113.339 474.535 113.167 474.545 112.954 474.6L112.442 474.731C112.072 474.827 111.754 474.837 111.49 474.762C111.23 474.68 111.036 474.506 110.91 474.241C110.821 474.05 110.794 473.85 110.834 473.644C110.878 473.435 110.98 473.242 111.141 473.063C111.304 472.878 111.516 472.723 111.777 472.599C112.196 472.402 112.576 472.344 112.918 472.428C113.265 472.509 113.529 472.718 113.711 473.054L113.019 473.381C112.912 473.203 112.769 473.094 112.59 473.053C112.411 473.012 112.215 473.043 112 473.144C111.813 473.233 111.682 473.345 111.605 473.485C111.53 473.617 111.524 473.748 111.586 473.879C111.646 474.004 111.736 474.081 111.857 474.109C111.977 474.132 112.146 474.115 112.364 474.058L112.889 473.921C113.253 473.823 113.566 473.815 113.827 473.897C114.09 473.972 114.287 474.147 114.417 474.421C114.514 474.626 114.543 474.84 114.506 475.063C114.474 475.284 114.374 475.494 114.206 475.693C114.04 475.885 113.815 476.049 113.531 476.183ZM116.881 474.599C116.504 474.778 116.15 474.803 115.821 474.673C115.497 474.541 115.233 474.261 115.03 473.832L114.012 471.68L114.711 471.349L115.666 473.369C115.957 473.985 116.34 474.179 116.816 473.955C117.072 473.834 117.23 473.651 117.291 473.405C117.349 473.155 117.303 472.869 117.151 472.548L116.242 470.626L116.927 470.302L118.527 473.685L117.849 474.006L117.763 473.824C117.701 473.693 117.658 473.597 117.634 473.534C117.634 473.75 117.568 473.955 117.438 474.149C117.308 474.335 117.124 474.485 116.881 474.599ZM117.191 468.331L117.883 468.004L120.196 472.896L119.504 473.223L117.191 468.331ZM122.5 471.867C122.187 472.015 121.901 472.048 121.64 471.966C121.377 471.879 121.16 471.656 120.99 471.298L120.128 469.474L119.443 469.797L119.179 469.238L119.864 468.914L119.316 467.755L120.015 467.424L120.563 468.584L121.31 468.231L121.575 468.79L120.827 469.143L121.65 470.883C121.819 471.242 122.07 471.343 122.401 471.187C122.48 471.15 122.561 471.103 122.643 471.047L122.907 471.606C122.785 471.71 122.649 471.796 122.5 471.867ZM124.631 470.937C124.421 471.036 124.206 471.087 123.984 471.088C123.768 471.088 123.568 471.034 123.387 470.927C123.209 470.817 123.07 470.657 122.971 470.447C122.689 469.851 122.918 469.304 123.658 468.806L124.248 468.407C124.369 468.327 124.445 468.252 124.474 468.181C124.506 468.104 124.498 468.015 124.452 467.917C124.375 467.755 124.255 467.651 124.092 467.609C123.929 467.566 123.753 467.59 123.561 467.68C123.333 467.788 123.179 467.932 123.099 468.113C123.024 468.291 123.029 468.482 123.114 468.687L122.408 469.02C122.319 468.795 122.29 468.566 122.323 468.334C122.354 468.097 122.447 467.879 122.603 467.68C122.763 467.474 122.982 467.304 123.261 467.172C123.714 466.959 124.11 466.916 124.45 467.046C124.796 467.174 125.071 467.454 125.276 467.887L126.284 470.019L125.626 470.33L125.551 470.169C125.522 470.108 125.48 470.006 125.422 469.861C125.418 470.08 125.349 470.284 125.215 470.473C125.082 470.661 124.887 470.816 124.631 470.937ZM124.52 470.34C124.776 470.219 124.951 470.039 125.043 469.801C125.134 469.559 125.118 469.307 124.995 469.047L124.783 468.599C124.758 468.68 124.653 468.789 124.468 468.928L124.099 469.196C123.68 469.503 123.539 469.803 123.678 470.096C123.755 470.26 123.871 470.361 124.027 470.402C124.183 470.442 124.348 470.421 124.52 470.34Z" fill="white"/>
<mask id="mask1_234_2904" style="mask-type:luminance" maskUnits="userSpaceOnUse" x="127" y="455" width="17" height="17">
<path d="M138.104 455.883L127.618 460.838L132.575 471.321L143.06 466.366L138.104 455.883Z" fill="white"/>
</mask>
<g mask="url(#mask1_234_2904)">
<path d="M139.891 463.055C140 463.286 140.013 463.552 139.927 463.793C139.841 464.034 139.662 464.231 139.43 464.341L134.187 466.818L133.266 469.392L129.962 462.403C129.852 462.171 129.839 461.906 129.926 461.664C130.012 461.423 130.191 461.226 130.423 461.117L136.539 458.226C136.771 458.117 137.037 458.103 137.278 458.19C137.519 458.276 137.716 458.454 137.826 458.686L139.891 463.055Z" stroke="white" stroke-linecap="round" stroke-linejoin="round"/>
</g>
<path d="M149.221 215.433L71.5779 194.516C66.424 193.128 61.12 196.179 59.7311 201.332C58.3423 206.485 61.3946 211.787 66.5485 213.176L144.191 234.093C149.345 235.482 154.649 232.43 156.038 227.277C157.427 222.125 154.375 216.822 149.221 215.433Z" fill="black" fill-opacity="0.37"/>
<path d="M67.879 205.656C67.5256 205.561 67.2321 205.402 66.9986 205.179C66.7702 204.958 66.6176 204.682 66.5411 204.352C66.466 204.016 66.4834 203.644 66.5933 203.236C66.6952 202.858 66.8647 202.547 67.1018 202.301C67.3452 202.051 67.6277 201.885 67.9493 201.801C68.2709 201.716 68.6035 201.72 68.9469 201.813C69.4098 201.937 69.7514 202.165 69.9716 202.497C70.1969 202.83 70.273 203.211 70.2002 203.64L69.4388 203.435C69.4769 203.194 69.4389 202.978 69.3249 202.788C69.2158 202.598 69.0343 202.469 68.7805 202.4C68.4669 202.316 68.1771 202.372 67.9109 202.567C67.6462 202.757 67.4601 203.051 67.3528 203.449C67.2442 203.852 67.2534 204.204 67.3804 204.505C67.5138 204.803 67.7397 204.995 68.0583 205.08C68.322 205.151 68.5531 205.136 68.7512 205.035C68.9557 204.93 69.1039 204.756 69.1958 204.514L69.9424 204.715C69.7823 205.131 69.5212 205.426 69.1591 205.601C68.8034 205.772 68.3767 205.79 67.879 205.656ZM71.918 206.745C71.5647 206.649 71.2725 206.485 71.0417 206.252C70.8109 206.019 70.6572 205.738 70.5807 205.407C70.5106 205.074 70.5271 204.715 70.6303 204.332C70.7322 203.954 70.8992 203.641 71.1314 203.395C71.3648 203.143 71.6398 202.973 71.9564 202.888C72.2745 202.798 72.6077 202.799 72.9561 202.893C73.3044 202.987 73.5934 203.153 73.8229 203.391C74.0537 203.623 74.2067 203.908 74.2818 204.243C74.3584 204.573 74.3457 204.927 74.2437 205.305C74.1405 205.689 73.9721 206.007 73.7387 206.259C73.5066 206.505 73.2322 206.671 72.9156 206.757C72.599 206.842 72.2664 206.838 71.918 206.745ZM72.0749 206.162C72.3935 206.248 72.6795 206.197 72.933 206.009C73.1878 205.816 73.3709 205.513 73.4823 205.101C73.5922 204.692 73.5823 204.343 73.4526 204.052C73.3292 203.757 73.1107 203.567 72.7971 203.483C72.4836 203.398 72.1969 203.452 71.937 203.643C71.6836 203.831 71.5018 204.129 71.3919 204.537C71.2805 204.95 71.2865 205.304 71.41 205.599C71.5347 205.888 71.7564 206.076 72.0749 206.162ZM74.5742 207.332L75.5479 203.719L76.287 203.919L76.2287 204.135C76.1965 204.254 76.1685 204.348 76.1448 204.416C76.2925 204.264 76.4789 204.157 76.7039 204.095C76.9352 204.029 77.1727 204.029 77.417 204.095C77.8299 204.206 78.116 204.422 78.2752 204.743C78.4407 205.059 78.4623 205.444 78.3402 205.897L77.7247 208.181L76.9856 207.982L77.5732 205.802C77.7464 205.16 77.5809 204.771 77.0786 204.636C76.8048 204.563 76.5578 204.597 76.3376 204.74C76.1175 204.884 75.9698 205.095 75.8947 205.374L75.3133 207.531L74.5742 207.332ZM80.0196 208.927C79.5317 208.796 79.1783 208.572 78.9587 208.257C78.7391 207.941 78.675 207.577 78.7647 207.164L79.5038 207.363C79.4505 207.6 79.4799 207.808 79.592 207.987C79.7103 208.163 79.9036 208.287 80.1719 208.36C80.4062 208.423 80.6056 208.426 80.7703 208.369C80.9366 208.307 81.0425 208.191 81.0881 208.022C81.1245 207.887 81.1005 207.767 81.0178 207.658C80.9412 207.547 80.8036 207.444 80.6049 207.348L80.1309 207.116C79.7868 206.948 79.5379 206.75 79.3863 206.523C79.2402 206.291 79.2054 206.034 79.2819 205.75C79.3368 205.546 79.4466 205.378 79.6098 205.246C79.7791 205.115 79.9824 205.034 80.2206 205.002C80.4649 204.967 80.7263 204.986 81.0054 205.061C81.4531 205.183 81.7801 205.385 81.9858 205.67C82.1977 205.956 82.2634 206.286 82.1837 206.66L81.4446 206.461C81.4786 206.256 81.4407 206.081 81.3309 205.934C81.2203 205.787 81.051 205.683 80.8221 205.621C80.6234 205.567 80.4495 205.568 80.301 205.625C80.1587 205.676 80.069 205.772 80.0312 205.912C79.9948 206.046 80.0141 206.163 80.0884 206.264C80.1641 206.359 80.3041 206.455 80.5074 206.552L80.9961 206.788C81.3371 206.95 81.5806 207.146 81.726 207.377C81.8783 207.605 81.9147 207.866 81.8358 208.159C81.777 208.378 81.6611 208.561 81.4879 208.706C81.3201 208.853 81.1082 208.948 80.8507 208.991C80.6002 209.03 80.3227 209.009 80.0196 208.927ZM83.5971 209.891C83.1943 209.782 82.909 209.572 82.742 209.26C82.5804 208.949 82.5611 208.565 82.6848 208.108L83.3041 205.809L84.051 206.01L83.4696 208.167C83.2925 208.824 83.4572 209.221 83.9652 209.358C84.2389 209.431 84.4786 209.395 84.6835 209.247C84.8907 209.095 85.0399 208.847 85.1327 208.503L85.6855 206.45L86.417 206.647L85.4435 210.26L84.7198 210.065L84.7716 209.871C84.8095 209.732 84.8397 209.63 84.8613 209.567C84.7214 209.732 84.5381 209.845 84.3131 209.908C84.0951 209.966 83.8562 209.96 83.5971 209.891ZM87.8953 205.316L88.6345 205.516L87.2265 210.74L86.4873 210.541L87.8953 205.316ZM89.6482 211.449C89.3149 211.359 89.0752 211.198 88.9291 210.967C88.7845 210.73 88.7644 210.421 88.8672 210.038L89.3922 208.09L88.6608 207.893L88.8216 207.295L89.5531 207.492L89.8871 206.253L90.634 206.455L90.3 207.693L91.0987 207.909L90.9379 208.506L90.1391 208.291L89.6381 210.149C89.5345 210.533 89.6598 210.771 90.0131 210.866C90.0982 210.89 90.1894 210.906 90.2884 210.917L90.1268 211.514C89.9667 211.513 89.8074 211.492 89.6482 211.449ZM91.8742 212.121C91.6507 212.061 91.4536 211.96 91.2835 211.817C91.1188 211.677 91.0013 211.507 90.9324 211.306C90.869 211.108 90.8667 210.897 90.927 210.672C91.0987 210.035 91.6276 209.767 92.5136 209.867L93.2211 209.946C93.3665 209.964 93.4724 209.955 93.5404 209.92C93.6154 209.881 93.6665 209.81 93.6943 209.705C93.7415 209.531 93.7167 209.375 93.6209 209.237C93.5242 209.099 93.3742 209.002 93.1701 208.947C92.9265 208.881 92.7154 208.891 92.5376 208.977C92.3644 209.064 92.2446 209.213 92.1765 209.424L91.4227 209.221C91.5007 208.991 91.6276 208.799 91.8031 208.643C91.9794 208.483 92.192 208.377 92.441 208.326C92.6953 208.272 92.9721 208.285 93.2706 208.366C93.7538 208.496 94.0824 208.721 94.258 209.04C94.4389 209.361 94.4667 209.753 94.3415 210.216L93.7283 212.492L93.0263 212.303L93.0727 212.131C93.0904 212.067 93.1237 211.961 93.1739 211.814C93.0286 211.978 92.8438 212.089 92.6203 212.146C92.3969 212.203 92.1479 212.195 91.8742 212.121ZM92.1765 211.594C92.4502 211.667 92.7 211.644 92.9242 211.523C93.1507 211.397 93.3007 211.195 93.3765 210.916L93.5049 210.438C93.4345 210.483 93.283 210.499 93.0518 210.485L92.5971 210.45C92.0791 210.412 91.7775 210.55 91.6933 210.863C91.6461 211.037 91.6685 211.19 91.7613 211.322C91.8541 211.453 91.9925 211.544 92.1765 211.594ZM95.9984 214.769L97.391 209.604L98.1301 209.803L98.0698 210.027C98.0389 210.141 98.0111 210.233 97.9879 210.301C98.1464 210.147 98.3458 210.04 98.5863 209.982C98.826 209.924 99.0781 209.93 99.3417 210.001C99.6703 210.09 99.9363 210.25 100.141 210.481C100.346 210.713 100.473 210.992 100.524 211.32C100.58 211.646 100.558 211.994 100.457 212.368C100.355 212.746 100.193 213.062 99.9696 213.317C99.7508 213.573 99.4933 213.747 99.1964 213.837C98.9049 213.929 98.5995 213.932 98.2809 213.846C98.0172 213.775 97.8031 213.659 97.6384 213.498C97.4737 213.335 97.3554 213.141 97.2835 212.913C97.2672 212.995 97.241 213.102 97.2046 213.237L96.7376 214.968L95.9984 214.769ZM98.2886 213.224C98.6026 213.309 98.8871 213.252 99.143 213.054C99.3997 212.856 99.5814 212.559 99.6889 212.16C99.7956 211.762 99.7879 211.416 99.6642 211.121C99.542 210.822 99.3247 210.629 99.0108 210.545C98.7023 210.461 98.4185 210.516 98.1587 210.707C97.8989 210.899 97.7141 211.197 97.6059 211.599C97.4984 211.997 97.5085 212.347 97.6353 212.648C97.7621 212.949 97.9801 213.141 98.2886 213.224ZM100.785 214.393L101.758 210.781L102.497 210.979L102.443 211.181C102.392 211.37 102.352 211.509 102.322 211.597C102.476 211.404 102.666 211.265 102.891 211.182C103.117 211.094 103.363 211.084 103.627 211.156C103.701 211.176 103.758 211.193 103.796 211.21L103.599 211.941C103.549 211.912 103.476 211.884 103.381 211.858C103.048 211.769 102.763 211.793 102.528 211.932C102.298 212.073 102.131 212.338 102.026 212.726L101.523 214.592L100.785 214.393ZM104.886 215.626C104.533 215.531 104.241 215.367 104.01 215.134C103.779 214.901 103.626 214.619 103.549 214.289C103.479 213.955 103.495 213.597 103.599 213.214C103.701 212.835 103.868 212.523 104.1 212.276C104.333 212.024 104.608 211.855 104.925 211.77C105.243 211.68 105.576 211.681 105.925 211.775C106.273 211.869 106.562 212.034 106.791 212.273C107.022 212.505 107.175 212.79 107.25 213.124C107.327 213.455 107.314 213.809 107.212 214.187C107.109 214.571 106.941 214.888 106.707 215.14C106.475 215.387 106.201 215.553 105.884 215.639C105.567 215.724 105.235 215.72 104.886 215.626ZM105.043 215.044C105.362 215.13 105.648 215.079 105.902 214.891C106.157 214.698 106.339 214.395 106.45 213.982C106.56 213.574 106.551 213.224 106.421 212.934C106.297 212.639 106.079 212.449 105.765 212.365C105.452 212.28 105.165 212.334 104.906 212.525C104.652 212.713 104.47 213.011 104.361 213.419C104.249 213.832 104.255 214.186 104.378 214.48C104.504 214.77 104.725 214.958 105.043 215.044ZM108.643 218.311C108.145 218.178 107.786 217.947 107.564 217.62C107.342 217.294 107.287 216.924 107.398 216.511L108.138 216.71C108.078 216.95 108.107 217.161 108.223 217.342C108.344 217.529 108.538 217.659 108.807 217.732C109.121 217.816 109.391 217.795 109.617 217.669C109.842 217.548 110 217.316 110.093 216.973L110.205 216.555C110.225 216.48 110.259 216.374 110.307 216.238C110.154 216.389 109.961 216.492 109.727 216.546C109.494 216.601 109.245 216.592 108.981 216.521C108.658 216.434 108.391 216.285 108.181 216.073C107.978 215.859 107.843 215.596 107.777 215.284C107.718 214.97 107.738 214.628 107.837 214.259C107.935 213.897 108.094 213.595 108.313 213.355C108.537 213.117 108.794 212.956 109.083 212.874C109.374 212.787 109.669 212.784 109.967 212.864C110.494 213.006 110.827 213.317 110.964 213.797C110.992 213.656 111.016 213.547 111.036 213.472L111.084 213.293L111.831 213.494L110.899 216.95C110.735 217.562 110.46 217.979 110.074 218.201C109.687 218.427 109.21 218.464 108.643 218.311ZM109.302 215.983C109.606 216.065 109.886 216.018 110.142 215.841C110.398 215.665 110.575 215.392 110.674 215.024C110.772 214.66 110.756 214.336 110.624 214.05C110.494 213.764 110.276 213.58 109.972 213.498C109.664 213.414 109.381 213.464 109.123 213.645C108.873 213.823 108.698 214.097 108.598 214.465C108.499 214.833 108.513 215.157 108.641 215.437C108.773 215.718 108.994 215.9 109.302 215.983ZM111.895 217.386L112.869 213.774L113.608 213.973L113.554 214.174C113.503 214.364 113.463 214.502 113.433 214.59C113.587 214.397 113.777 214.258 114.002 214.175C114.229 214.087 114.474 214.078 114.738 214.149C114.813 214.17 114.869 214.187 114.907 214.203L114.711 214.934C114.66 214.905 114.587 214.877 114.492 214.851C114.158 214.762 113.875 214.786 113.64 214.926C113.409 215.067 113.241 215.331 113.137 215.719L112.635 217.586L111.895 217.386ZM115.467 218.477C115.243 218.416 115.046 218.315 114.876 218.174C114.711 218.033 114.595 217.862 114.525 217.663C114.462 217.464 114.46 217.252 114.52 217.029C114.692 216.392 115.221 216.123 116.106 216.223L116.814 216.302C116.959 216.319 117.065 216.311 117.133 216.276C117.208 216.237 117.259 216.165 117.288 216.061C117.334 215.886 117.309 215.731 117.213 215.593C117.117 215.454 116.967 215.358 116.763 215.304C116.519 215.238 116.308 215.247 116.13 215.333C115.958 215.42 115.837 215.569 115.77 215.78L115.015 215.577C115.093 215.347 115.22 215.154 115.396 214.999C115.572 214.838 115.785 214.733 116.033 214.682C116.288 214.628 116.565 214.641 116.863 214.721C117.346 214.852 117.676 215.077 117.85 215.396C118.031 215.717 118.059 216.109 117.935 216.571L117.321 218.848L116.619 218.659L116.665 218.488C116.683 218.423 116.717 218.317 116.766 218.171C116.621 218.334 116.436 218.444 116.213 218.502C115.989 218.559 115.74 218.55 115.467 218.477ZM115.769 217.95C116.043 218.023 116.293 218 116.517 217.879C116.743 217.753 116.894 217.551 116.969 217.272L117.097 216.795C117.027 216.84 116.875 216.855 116.645 216.84L116.19 216.806C115.672 216.768 115.37 216.905 115.286 217.219C115.239 217.393 115.262 217.546 115.354 217.677C115.447 217.81 115.585 217.9 115.769 217.95ZM118.318 219.117L119.292 215.505L120.031 215.703L119.967 215.942C119.936 216.056 119.91 216.143 119.889 216.201C120.048 216.046 120.23 215.936 120.435 215.868C120.645 215.802 120.87 215.801 121.109 215.866C121.338 215.927 121.527 216.045 121.678 216.219C121.829 216.393 121.92 216.599 121.952 216.837C122.131 216.666 122.34 216.544 122.579 216.47C122.823 216.397 123.07 216.394 123.319 216.461C123.691 216.561 123.959 216.769 124.119 217.085C124.286 217.397 124.307 217.784 124.182 218.246L123.567 220.531L122.828 220.331L123.407 218.182C123.585 217.52 123.441 217.126 122.973 217C122.729 216.935 122.506 216.979 122.304 217.133C122.104 217.281 121.965 217.5 121.887 217.789L121.312 219.923L120.565 219.722L121.143 217.58C121.323 216.913 121.184 216.518 120.725 216.395C120.477 216.328 120.251 216.371 120.049 216.525C119.848 216.679 119.707 216.905 119.627 217.204L119.057 219.316L118.318 219.117ZM125.572 221.199C125.348 221.138 125.151 221.038 124.981 220.896C124.816 220.755 124.699 220.585 124.63 220.385C124.566 220.186 124.565 219.975 124.625 219.751C124.797 219.114 125.326 218.846 126.211 218.945L126.919 219.024C127.064 219.042 127.17 219.033 127.238 218.998C127.313 218.959 127.364 218.888 127.393 218.783C127.439 218.609 127.414 218.453 127.318 218.315C127.222 218.177 127.072 218.08 126.868 218.025C126.624 217.96 126.413 217.97 126.235 218.055C126.062 218.142 125.942 218.291 125.875 218.502L125.12 218.299C125.198 218.069 125.325 217.877 125.5 217.722C125.677 217.561 125.889 217.455 126.138 217.405C126.393 217.351 126.67 217.364 126.968 217.444C127.451 217.574 127.78 217.799 127.955 218.118C128.136 218.439 128.164 218.831 128.04 219.294L127.426 221.57L126.724 221.381L126.77 221.209C126.788 221.145 126.821 221.039 126.871 220.892C126.726 221.056 126.541 221.167 126.318 221.224C126.094 221.281 125.845 221.273 125.572 221.199ZM125.874 220.672C126.148 220.746 126.397 220.722 126.622 220.601C126.848 220.475 126.999 220.273 127.074 219.994L127.202 219.516C127.132 219.561 126.98 219.577 126.75 219.563L126.295 219.528C125.777 219.49 125.475 219.628 125.391 219.941C125.344 220.116 125.367 220.269 125.459 220.4C125.552 220.531 125.69 220.623 125.874 220.672ZM129.824 222.345C129.506 222.259 129.24 222.107 129.026 221.89C128.817 221.673 128.68 221.401 128.613 221.073C128.552 220.748 128.575 220.383 128.684 219.98C128.787 219.597 128.95 219.278 129.174 219.023C129.397 218.768 129.658 218.596 129.954 218.505C130.251 218.414 130.559 218.411 130.877 218.498C131.151 218.571 131.369 218.694 131.531 218.866C131.698 219.039 131.807 219.226 131.86 219.427C131.87 219.35 131.894 219.241 131.932 219.101L132.414 217.31L133.161 217.511L131.753 222.736L131.006 222.535L131.057 222.348C131.095 222.204 131.129 222.101 131.156 222.039C131.014 222.187 130.825 222.294 130.59 222.359C130.353 222.423 130.098 222.418 129.824 222.345ZM130.138 221.805C130.442 221.887 130.723 221.832 130.983 221.64C131.249 221.445 131.437 221.146 131.545 220.742C131.654 220.34 131.644 219.99 131.516 219.694C131.388 219.398 131.169 219.208 130.86 219.125C130.552 219.042 130.264 219.098 129.998 219.293C129.738 219.485 129.555 219.779 129.448 220.177C129.339 220.581 129.348 220.933 129.475 221.234C129.604 221.53 129.824 221.72 130.138 221.805ZM133.796 223.415C133.572 223.354 133.375 223.253 133.205 223.111C133.04 222.971 132.923 222.8 132.854 222.601C132.79 222.401 132.789 222.19 132.849 221.966C133.021 221.33 133.549 221.061 134.436 221.161L135.143 221.24C135.288 221.257 135.394 221.249 135.462 221.213C135.537 221.175 135.588 221.103 135.616 220.999C135.663 220.824 135.639 220.668 135.542 220.531C135.446 220.392 135.295 220.296 135.092 220.241C134.848 220.175 134.637 220.185 134.459 220.271C134.286 220.358 134.166 220.507 134.098 220.718L133.345 220.514C133.422 220.285 133.549 220.092 133.724 219.937C133.901 219.776 134.114 219.67 134.362 219.62C134.617 219.566 134.893 219.579 135.193 219.659C135.675 219.79 136.004 220.014 136.18 220.334C136.36 220.655 136.388 221.046 136.263 221.509L135.649 223.786L134.948 223.596L134.994 223.425C135.012 223.361 135.046 223.255 135.096 223.108C134.95 223.272 134.766 223.382 134.541 223.44C134.318 223.497 134.07 223.488 133.796 223.415ZM134.098 222.888C134.372 222.961 134.621 222.938 134.846 222.816C135.072 222.691 135.223 222.489 135.298 222.21L135.426 221.732C135.356 221.778 135.205 221.792 134.974 221.778L134.518 221.744C134 221.706 133.699 221.843 133.614 222.157C133.567 222.331 133.59 222.484 133.683 222.615C133.775 222.747 133.914 222.838 134.098 222.888Z" fill="white"/>
<mask id="mask2_234_2904" style="mask-type:luminance" maskUnits="userSpaceOnUse" x="138" y="217" width="14" height="14">
<path d="M151.574 220.071L141.122 217.255L138.306 227.704L148.758 230.52L151.574 220.071Z" fill="white"/>
</mask>
<g mask="url(#mask2_234_2904)">
<path d="M148.928 221.226L142.831 219.584C142.349 219.454 141.854 219.738 141.725 220.219L140.082 226.315C139.952 226.796 140.237 227.291 140.719 227.42L146.815 229.063C147.296 229.192 147.791 228.908 147.921 228.427L149.564 222.331C149.694 221.85 149.409 221.355 148.928 221.226Z" stroke="white" stroke-linecap="round" stroke-linejoin="round"/>
<path d="M147.856 220.003L147.386 221.745" stroke="white" stroke-linecap="round" stroke-linejoin="round"/>
<path d="M144.372 219.064L143.903 220.806" stroke="white" stroke-linecap="round" stroke-linejoin="round"/>
<path d="M141.255 221.96L149.095 224.072" stroke="white" stroke-linecap="round" stroke-linejoin="round"/>
</g>
<path d="M163.775 303.316V296.282H164.77V298.683C164.77 298.871 164.767 299.018 164.76 299.126C164.895 298.877 165.092 298.676 165.353 298.523C165.615 298.369 165.913 298.292 166.248 298.292C166.805 298.292 167.237 298.465 167.545 298.814C167.86 299.156 168.017 299.631 168.017 300.241V303.316H167.022V300.382C167.022 299.518 166.677 299.085 165.987 299.085C165.625 299.085 165.33 299.213 165.102 299.467C164.881 299.722 164.77 300.037 164.77 300.412V303.316H163.775ZM169.301 297.598V296.473H170.406V297.598H169.301ZM169.361 298.452H170.356V303.316H169.361V298.452ZM173.545 303.477C172.888 303.477 172.369 303.316 171.988 302.995C171.606 302.673 171.401 302.238 171.374 301.688H172.369C172.383 302.003 172.49 302.254 172.691 302.442C172.898 302.623 173.184 302.713 173.545 302.713C173.86 302.713 174.111 302.65 174.299 302.522C174.486 302.388 174.581 302.208 174.581 301.98C174.581 301.799 174.51 301.655 174.37 301.547C174.235 301.434 174.028 301.35 173.747 301.296L173.073 301.166C172.584 301.072 172.205 300.907 171.937 300.673C171.676 300.432 171.545 300.12 171.545 299.739C171.545 299.464 171.626 299.216 171.786 298.995C171.953 298.774 172.182 298.603 172.47 298.482C172.765 298.355 173.099 298.292 173.475 298.292C174.078 298.292 174.557 298.435 174.913 298.724C175.274 299.012 175.468 299.404 175.495 299.899H174.5C174.473 299.631 174.366 299.424 174.179 299.276C173.991 299.129 173.743 299.055 173.435 299.055C173.167 299.055 172.949 299.116 172.782 299.236C172.621 299.35 172.54 299.501 172.54 299.688C172.54 299.869 172.604 300.01 172.731 300.11C172.858 300.204 173.066 300.278 173.355 300.332L174.048 300.462C174.531 300.549 174.902 300.713 175.164 300.955C175.431 301.189 175.566 301.504 175.566 301.899C175.566 302.194 175.482 302.462 175.315 302.703C175.154 302.944 174.919 303.135 174.611 303.276C174.309 303.41 173.954 303.477 173.545 303.477ZM178.485 303.386C178.035 303.386 177.681 303.266 177.419 303.025C177.158 302.777 177.027 302.395 177.027 301.879V299.256H176.042V298.452H177.027V296.784H178.032V298.452H179.108V299.256H178.032V301.758C178.032 302.274 178.27 302.532 178.746 302.532C178.86 302.532 178.98 302.522 179.108 302.502V303.306C178.907 303.359 178.699 303.386 178.485 303.386ZM182.181 303.477C181.706 303.477 181.284 303.369 180.915 303.155C180.546 302.941 180.258 302.64 180.05 302.251C179.849 301.856 179.749 301.4 179.749 300.884C179.749 300.375 179.852 299.926 180.06 299.538C180.268 299.143 180.556 298.837 180.925 298.623C181.294 298.402 181.712 298.292 182.181 298.292C182.651 298.292 183.069 298.402 183.438 298.623C183.807 298.837 184.094 299.143 184.302 299.538C184.51 299.926 184.614 300.375 184.614 300.884C184.614 301.4 184.51 301.856 184.302 302.251C184.094 302.64 183.807 302.941 183.438 303.155C183.069 303.369 182.651 303.477 182.181 303.477ZM182.181 302.693C182.61 302.693 182.952 302.532 183.207 302.211C183.461 301.882 183.589 301.44 183.589 300.884C183.589 300.335 183.458 299.899 183.197 299.578C182.942 299.249 182.603 299.085 182.181 299.085C181.759 299.085 181.417 299.249 181.156 299.578C180.902 299.899 180.774 300.335 180.774 300.884C180.774 301.44 180.902 301.882 181.156 302.211C181.41 302.532 181.752 302.693 182.181 302.693ZM185.714 303.316V298.452H186.709V298.724C186.709 298.978 186.706 299.166 186.699 299.286C186.827 298.992 187.018 298.754 187.272 298.573C187.527 298.385 187.832 298.292 188.187 298.292C188.287 298.292 188.365 298.295 188.418 298.302V299.286C188.344 299.266 188.244 299.256 188.116 299.256C187.668 299.256 187.319 299.384 187.071 299.638C186.83 299.892 186.709 300.281 186.709 300.804V303.316H185.714ZM189.197 297.598V296.473H190.303V297.598H189.197ZM189.258 298.452H190.253V303.316H189.258V298.452ZM193.05 303.477C192.749 303.477 192.467 303.417 192.206 303.296C191.951 303.175 191.747 303.001 191.593 302.773C191.445 302.545 191.372 302.281 191.372 301.98C191.372 301.122 191.944 300.606 193.09 300.432L194.005 300.291C194.193 300.264 194.324 300.218 194.397 300.151C194.477 300.077 194.518 299.97 194.518 299.829C194.518 299.595 194.434 299.407 194.266 299.266C194.099 299.126 193.877 299.055 193.603 299.055C193.274 299.055 193.013 299.139 192.819 299.306C192.631 299.474 192.531 299.701 192.517 299.99H191.502C191.522 299.675 191.616 299.39 191.784 299.136C191.951 298.874 192.183 298.67 192.477 298.523C192.779 298.369 193.131 298.292 193.533 298.292C194.183 298.292 194.672 298.462 195 298.804C195.335 299.146 195.503 299.628 195.503 300.251V303.316H194.558V303.085C194.558 302.998 194.565 302.854 194.578 302.653C194.45 302.907 194.256 303.108 193.995 303.256C193.734 303.403 193.419 303.477 193.05 303.477ZM193.251 302.713C193.62 302.713 193.925 302.6 194.166 302.371C194.407 302.137 194.528 301.832 194.528 301.457V300.814C194.454 300.894 194.269 300.965 193.975 301.025L193.392 301.135C192.728 301.263 192.397 301.537 192.397 301.959C192.397 302.194 192.477 302.378 192.638 302.512C192.799 302.646 193.003 302.713 193.251 302.713ZM196.846 296.282H197.841V303.316H196.846V296.282ZM203.629 303.477C202.885 303.477 202.295 303.249 201.86 302.794C201.431 302.338 201.217 301.695 201.217 300.864C201.217 300.369 201.317 299.926 201.518 299.538C201.725 299.143 202.007 298.837 202.362 298.623C202.724 298.402 203.13 298.292 203.579 298.292C204.302 298.292 204.865 298.526 205.267 298.995C205.669 299.457 205.871 300.087 205.871 300.884V301.095H202.232C202.238 301.585 202.373 301.973 202.634 302.261C202.895 302.549 203.23 302.693 203.639 302.693C203.947 302.693 204.208 302.62 204.423 302.472C204.637 302.324 204.771 302.093 204.825 301.779H205.83C205.776 302.268 205.559 302.673 205.177 302.995C204.795 303.316 204.278 303.477 203.629 303.477ZM204.815 300.382C204.815 299.98 204.705 299.658 204.483 299.417C204.262 299.176 203.961 299.055 203.579 299.055C203.21 299.055 202.901 299.179 202.654 299.427C202.413 299.675 202.275 299.993 202.242 300.382H204.815ZM206.985 303.316V298.452H207.981V298.744C207.981 298.905 207.977 299.032 207.971 299.126C208.104 298.884 208.302 298.687 208.564 298.533C208.832 298.372 209.13 298.292 209.458 298.292C210.014 298.292 210.446 298.465 210.755 298.814C211.069 299.156 211.227 299.631 211.227 300.241V303.316H210.232V300.382C210.232 299.518 209.893 299.085 209.217 299.085C208.848 299.085 208.55 299.213 208.322 299.467C208.094 299.722 207.981 300.037 207.981 300.412V303.316H206.985ZM214.848 305.406V298.452H215.843V298.754C215.843 298.908 215.84 299.032 215.833 299.126C215.981 298.877 216.195 298.676 216.476 298.523C216.758 298.369 217.076 298.292 217.431 298.292C217.874 298.292 218.263 298.402 218.597 298.623C218.932 298.844 219.187 299.153 219.361 299.548C219.542 299.936 219.633 300.382 219.633 300.884C219.633 301.394 219.535 301.846 219.341 302.241C219.153 302.636 218.889 302.941 218.547 303.155C218.212 303.369 217.83 303.477 217.401 303.477C217.046 303.477 216.738 303.403 216.476 303.256C216.215 303.108 216.001 302.904 215.833 302.643C215.84 302.75 215.843 302.894 215.843 303.075V305.406H214.848ZM217.2 302.693C217.622 302.693 217.961 302.525 218.215 302.191C218.47 301.856 218.597 301.42 218.597 300.884C218.597 300.349 218.47 299.916 218.215 299.588C217.961 299.253 217.622 299.085 217.2 299.085C216.785 299.085 216.446 299.249 216.185 299.578C215.924 299.906 215.793 300.342 215.793 300.884C215.793 301.42 215.924 301.856 216.185 302.191C216.446 302.525 216.785 302.693 217.2 302.693ZM220.727 296.282H221.723V303.316H220.727V296.282ZM224.52 303.477C224.218 303.477 223.937 303.417 223.676 303.296C223.421 303.175 223.216 303.001 223.063 302.773C222.915 302.545 222.841 302.281 222.841 301.98C222.841 301.122 223.414 300.606 224.56 300.432L225.475 300.291C225.663 300.264 225.793 300.218 225.867 300.151C225.947 300.077 225.988 299.97 225.988 299.829C225.988 299.595 225.904 299.407 225.736 299.266C225.568 299.126 225.347 299.055 225.073 299.055C224.744 299.055 224.483 299.139 224.289 299.306C224.101 299.474 224 299.701 223.987 299.99H222.972C222.992 299.675 223.086 299.39 223.253 299.136C223.421 298.874 223.652 298.67 223.947 298.523C224.249 298.369 224.6 298.292 225.002 298.292C225.653 298.292 226.141 298.462 226.47 298.804C226.805 299.146 226.973 299.628 226.973 300.251V303.316H226.028V303.085C226.028 302.998 226.035 302.854 226.048 302.653C225.92 302.907 225.726 303.108 225.465 303.256C225.204 303.403 224.889 303.477 224.52 303.477ZM224.721 302.713C225.09 302.713 225.394 302.6 225.636 302.371C225.877 302.137 225.998 301.832 225.998 301.457V300.814C225.924 300.894 225.739 300.965 225.445 301.025L224.862 301.135C224.198 301.263 223.867 301.537 223.867 301.959C223.867 302.194 223.947 302.378 224.108 302.512C224.269 302.646 224.473 302.713 224.721 302.713ZM230.146 303.386C229.697 303.386 229.342 303.266 229.08 303.025C228.819 302.777 228.688 302.395 228.688 301.879V299.256H227.703V298.452H228.688V296.784H229.693V298.452H230.769V299.256H229.693V301.758C229.693 302.274 229.932 302.532 230.407 302.532C230.522 302.532 230.642 302.522 230.769 302.502V303.306C230.568 303.359 230.361 303.386 230.146 303.386ZM233.168 303.477C232.867 303.477 232.585 303.417 232.324 303.296C232.069 303.175 231.865 303.001 231.711 302.773C231.563 302.545 231.49 302.281 231.49 301.98C231.49 301.122 232.063 300.606 233.208 300.432L234.123 300.291C234.31 300.264 234.441 300.218 234.515 300.151C234.596 300.077 234.636 299.97 234.636 299.829C234.636 299.595 234.551 299.407 234.384 299.266C234.217 299.126 233.995 299.055 233.721 299.055C233.392 299.055 233.131 299.139 232.937 299.306C232.749 299.474 232.649 299.701 232.635 299.99H231.62C231.64 299.675 231.734 299.39 231.902 299.136C232.069 298.874 232.3 298.67 232.595 298.523C232.897 298.369 233.249 298.292 233.651 298.292C234.3 298.292 234.79 298.462 235.118 298.804C235.453 299.146 235.621 299.628 235.621 300.251V303.316H234.676V303.085C234.676 302.998 234.682 302.854 234.696 302.653C234.568 302.907 234.374 303.108 234.113 303.256C233.852 303.403 233.536 303.477 233.168 303.477ZM233.369 302.713C233.737 302.713 234.043 302.6 234.284 302.371C234.525 302.137 234.646 301.832 234.646 301.457V300.814C234.572 300.894 234.388 300.965 234.093 301.025L233.51 301.135C232.847 301.263 232.515 301.537 232.515 301.959C232.515 302.194 232.595 302.378 232.756 302.512C232.917 302.646 233.121 302.713 233.369 302.713ZM237.326 303.316V299.256H236.392V298.452H237.326V297.679C237.326 297.183 237.463 296.797 237.739 296.523C238.013 296.248 238.365 296.111 238.794 296.111C238.995 296.111 239.179 296.141 239.347 296.201V297.025C239.226 296.998 239.116 296.985 239.015 296.985C238.8 296.985 238.633 297.045 238.513 297.166C238.392 297.287 238.332 297.457 238.332 297.679V298.452H239.347V299.256H238.332V303.316H237.326ZM242.255 303.477C241.779 303.477 241.357 303.369 240.988 303.155C240.62 302.941 240.332 302.64 240.124 302.251C239.923 301.856 239.822 301.4 239.822 300.884C239.822 300.375 239.927 299.926 240.134 299.538C240.342 299.143 240.63 298.837 240.998 298.623C241.367 298.402 241.786 298.292 242.255 298.292C242.724 298.292 243.143 298.402 243.511 298.623C243.88 298.837 244.168 299.143 244.376 299.538C244.584 299.926 244.687 300.375 244.687 300.884C244.687 301.4 244.584 301.856 244.376 302.251C244.168 302.64 243.88 302.941 243.511 303.155C243.143 303.369 242.724 303.477 242.255 303.477ZM242.255 302.693C242.684 302.693 243.026 302.532 243.28 302.211C243.535 301.882 243.662 301.44 243.662 300.884C243.662 300.335 243.531 299.899 243.27 299.578C243.016 299.249 242.677 299.085 242.255 299.085C241.833 299.085 241.491 299.249 241.23 299.578C240.975 299.899 240.848 300.335 240.848 300.884C240.848 301.44 240.975 301.882 241.23 302.211C241.485 302.532 241.826 302.693 242.255 302.693ZM245.788 303.316V298.452H246.783V298.724C246.783 298.978 246.78 299.166 246.773 299.286C246.9 298.992 247.091 298.754 247.346 298.573C247.601 298.385 247.905 298.292 248.261 298.292C248.361 298.292 248.438 298.295 248.492 298.302V299.286C248.418 299.266 248.317 299.256 248.191 299.256C247.741 299.256 247.393 299.384 247.145 299.638C246.904 299.892 246.783 300.281 246.783 300.804V303.316H245.788ZM249.332 303.316V298.452H250.327V298.774C250.327 298.928 250.323 299.045 250.317 299.126C250.464 298.877 250.655 298.676 250.89 298.523C251.131 298.369 251.413 298.292 251.734 298.292C252.042 298.292 252.32 298.375 252.568 298.543C252.816 298.711 253.001 298.938 253.121 299.226C253.288 298.952 253.509 298.727 253.785 298.553C254.066 298.379 254.374 298.292 254.709 298.292C255.212 298.292 255.617 298.462 255.926 298.804C256.24 299.139 256.398 299.618 256.398 300.241V303.316H255.403V300.422C255.403 299.531 255.088 299.085 254.458 299.085C254.13 299.085 253.865 299.216 253.664 299.477C253.463 299.732 253.363 300.053 253.363 300.442V303.316H252.357V300.432C252.357 299.535 252.049 299.085 251.433 299.085C251.097 299.085 250.83 299.216 250.628 299.477C250.427 299.739 250.327 300.07 250.327 300.472V303.316H249.332ZM259.141 303.477C258.839 303.477 258.558 303.417 258.296 303.296C258.042 303.175 257.838 303.001 257.683 302.773C257.536 302.545 257.462 302.281 257.462 301.98C257.462 301.122 258.035 300.606 259.181 300.432L260.096 300.291C260.283 300.264 260.414 300.218 260.488 300.151C260.568 300.077 260.608 299.97 260.608 299.829C260.608 299.595 260.525 299.407 260.357 299.266C260.19 299.126 259.969 299.055 259.693 299.055C259.366 299.055 259.104 299.139 258.909 299.306C258.722 299.474 258.622 299.701 258.608 299.99H257.593C257.613 299.675 257.707 299.39 257.874 299.136C258.042 298.874 258.273 298.67 258.568 298.523C258.869 298.369 259.221 298.292 259.623 298.292C260.273 298.292 260.763 298.462 261.091 298.804C261.426 299.146 261.593 299.628 261.593 300.251V303.316H260.648V303.085C260.648 302.998 260.655 302.854 260.668 302.653C260.542 302.907 260.347 303.108 260.085 303.256C259.824 303.403 259.509 303.477 259.141 303.477ZM259.342 302.713C259.71 302.713 260.015 302.6 260.256 302.371C260.498 302.137 260.618 301.832 260.618 301.457V300.814C260.545 300.894 260.361 300.965 260.065 301.025L259.482 301.135C258.819 301.263 258.487 301.537 258.487 301.959C258.487 302.194 258.568 302.378 258.729 302.512C258.889 302.646 259.094 302.713 259.342 302.713ZM267.144 303.477C266.715 303.477 266.33 303.376 265.988 303.175C265.652 302.974 265.388 302.68 265.194 302.291C265.006 301.902 264.913 301.437 264.913 300.894C264.913 300.379 265.009 299.923 265.204 299.528C265.398 299.133 265.666 298.827 266.008 298.613C266.35 298.399 266.735 298.292 267.164 298.292C267.532 298.292 267.848 298.372 268.109 298.533C268.376 298.693 268.577 298.891 268.712 299.126C268.698 299.025 268.692 298.881 268.692 298.693V296.282H269.697V303.316H268.692V303.065C268.692 302.871 268.698 302.73 268.712 302.643C268.584 302.877 268.383 303.075 268.109 303.236C267.834 303.396 267.512 303.477 267.144 303.477ZM267.355 302.693C267.763 302.693 268.099 302.529 268.36 302.201C268.628 301.866 268.762 301.427 268.762 300.884C268.762 300.342 268.632 299.906 268.37 299.578C268.109 299.249 267.77 299.085 267.355 299.085C266.939 299.085 266.597 299.253 266.33 299.588C266.068 299.916 265.938 300.349 265.938 300.884C265.938 301.427 266.068 301.866 266.33 302.201C266.591 302.529 266.933 302.693 267.355 302.693ZM273.204 303.477C272.46 303.477 271.871 303.249 271.435 302.794C271.006 302.338 270.792 301.695 270.792 300.864C270.792 300.369 270.892 299.926 271.093 299.538C271.301 299.143 271.583 298.837 271.938 298.623C272.3 298.402 272.705 298.292 273.154 298.292C273.878 298.292 274.441 298.526 274.843 298.995C275.245 299.457 275.446 300.087 275.446 300.884V301.095H271.807C271.814 301.585 271.948 301.973 272.209 302.261C272.471 302.549 272.805 302.693 273.214 302.693C273.523 302.693 273.784 302.62 273.998 302.472C274.213 302.324 274.347 302.093 274.4 301.779H275.406C275.352 302.268 275.134 302.673 274.752 302.995C274.37 303.316 273.855 303.477 273.204 303.477ZM274.39 300.382C274.39 299.98 274.28 299.658 274.059 299.417C273.838 299.176 273.536 299.055 273.154 299.055C272.785 299.055 272.477 299.179 272.229 299.427C271.988 299.675 271.85 299.993 271.817 300.382H274.39ZM277.747 303.316H276.46V302.03H277.747V303.316ZM277.747 300.181H276.46V298.894H277.747V300.181ZM235.752 321.318C235.093 321.318 234.509 321.179 233.999 320.901C233.498 320.622 233.103 320.214 232.816 319.676C232.528 319.129 232.384 318.475 232.384 317.714C232.384 317.009 232.533 316.388 232.83 315.85C233.136 315.302 233.549 314.88 234.068 314.584C234.588 314.287 235.168 314.138 235.808 314.138C236.671 314.138 237.371 314.375 237.909 314.848C238.457 315.321 238.768 315.947 238.842 316.726H237.422C237.376 316.29 237.209 315.933 236.921 315.655C236.643 315.377 236.267 315.237 235.794 315.237C235.209 315.237 234.732 315.469 234.36 315.933C233.989 316.388 233.804 316.986 233.804 317.728C233.804 318.48 233.985 319.087 234.347 319.551C234.718 320.005 235.2 320.233 235.794 320.233C236.286 320.233 236.68 320.098 236.977 319.829C237.283 319.551 237.459 319.18 237.506 318.716H238.898C238.814 319.514 238.499 320.149 237.951 320.622C237.413 321.086 236.68 321.318 235.752 321.318ZM243.282 321.318C242.623 321.318 242.038 321.17 241.528 320.873C241.018 320.576 240.619 320.159 240.331 319.62C240.053 319.073 239.914 318.442 239.914 317.728C239.914 317.023 240.057 316.402 240.345 315.864C240.633 315.316 241.032 314.894 241.542 314.597C242.052 314.291 242.632 314.138 243.282 314.138C243.931 314.138 244.511 314.291 245.021 314.597C245.532 314.894 245.931 315.316 246.218 315.864C246.506 316.402 246.65 317.023 246.65 317.728C246.65 318.442 246.506 319.073 246.218 319.62C245.931 320.159 245.532 320.576 245.021 320.873C244.511 321.17 243.931 321.318 243.282 321.318ZM243.282 320.233C243.875 320.233 244.349 320.01 244.701 319.565C245.054 319.11 245.23 318.498 245.23 317.728C245.23 316.968 245.049 316.365 244.687 315.919C244.335 315.465 243.866 315.237 243.282 315.237C242.697 315.237 242.224 315.465 241.862 315.919C241.509 316.365 241.333 316.968 241.333 317.728C241.333 318.498 241.509 319.11 241.862 319.565C242.215 320.01 242.688 320.233 243.282 320.233ZM248.174 321.095V314.361H249.551V314.806C249.551 315.02 249.547 315.182 249.538 315.293C249.742 314.95 250.006 314.672 250.331 314.458C250.665 314.245 251.055 314.138 251.5 314.138C251.927 314.138 252.312 314.254 252.655 314.486C252.998 314.718 253.253 315.033 253.42 315.432C253.652 315.052 253.959 314.741 254.339 314.5C254.729 314.259 255.156 314.138 255.619 314.138C256.315 314.138 256.877 314.375 257.303 314.848C257.74 315.312 257.958 315.975 257.958 316.838V321.095H256.58V317.088C256.58 315.854 256.144 315.237 255.272 315.237C254.817 315.237 254.45 315.418 254.172 315.78C253.894 316.133 253.755 316.578 253.755 317.116V321.095H252.363V317.102C252.363 315.859 251.936 315.237 251.082 315.237C250.618 315.237 250.247 315.418 249.969 315.78C249.691 316.142 249.551 316.601 249.551 317.158V321.095H248.174ZM262.744 321.318C261.714 321.318 260.897 321.003 260.294 320.372C259.7 319.741 259.403 318.851 259.403 317.7C259.403 317.014 259.543 316.402 259.821 315.864C260.109 315.316 260.498 314.894 260.99 314.597C261.491 314.291 262.052 314.138 262.674 314.138C263.676 314.138 264.456 314.463 265.012 315.112C265.569 315.752 265.847 316.624 265.847 317.728V318.02H260.809C260.818 318.698 261.004 319.236 261.366 319.634C261.728 320.033 262.192 320.233 262.758 320.233C263.184 320.233 263.546 320.131 263.843 319.927C264.14 319.723 264.326 319.402 264.4 318.967H265.792C265.717 319.644 265.416 320.205 264.887 320.65C264.358 321.095 263.644 321.318 262.744 321.318ZM264.386 317.032C264.386 316.476 264.233 316.031 263.927 315.697C263.621 315.363 263.203 315.196 262.674 315.196C262.164 315.196 261.737 315.367 261.394 315.711C261.06 316.054 260.869 316.494 260.823 317.032H264.386ZM269.886 321.193C269.264 321.193 268.772 321.026 268.41 320.692C268.049 320.349 267.868 319.82 267.868 319.106V315.474H266.504V314.361H267.868V312.051H269.259V314.361H270.749V315.474H269.259V318.939C269.259 319.653 269.589 320.01 270.248 320.01C270.405 320.01 270.572 319.996 270.749 319.968V321.081C270.47 321.156 270.183 321.193 269.886 321.193ZM274.069 321.318C273.652 321.318 273.262 321.235 272.9 321.068C272.548 320.901 272.265 320.659 272.051 320.344C271.847 320.029 271.745 319.662 271.745 319.245C271.745 318.057 272.539 317.343 274.125 317.102L275.392 316.907C275.651 316.87 275.832 316.805 275.934 316.712C276.046 316.61 276.101 316.462 276.101 316.267C276.101 315.942 275.985 315.683 275.753 315.488C275.522 315.293 275.215 315.196 274.835 315.196C274.38 315.196 274.018 315.312 273.749 315.544C273.49 315.776 273.35 316.091 273.332 316.49H271.926C271.954 316.054 272.084 315.66 272.316 315.307C272.548 314.945 272.868 314.662 273.276 314.458C273.694 314.245 274.181 314.138 274.738 314.138C275.638 314.138 276.315 314.375 276.769 314.848C277.233 315.321 277.465 315.989 277.465 316.852V321.095H276.157V320.775C276.157 320.655 276.166 320.455 276.185 320.177C276.009 320.53 275.74 320.808 275.378 321.012C275.016 321.216 274.58 321.318 274.069 321.318ZM274.348 320.261C274.858 320.261 275.28 320.103 275.614 319.787C275.948 319.463 276.115 319.041 276.115 318.521V317.631C276.013 317.742 275.758 317.839 275.35 317.923L274.543 318.076C273.624 318.252 273.165 318.633 273.165 319.217C273.165 319.542 273.276 319.797 273.499 319.982C273.722 320.168 274.005 320.261 274.348 320.261Z" fill="white"/>
</g>
<defs>
<clipPath id="clip0_234_2904">
<rect width="300" height="739" fill="white" transform="translate(0 -60)"/>
</clipPath>
</defs>
</svg>
