<svg width="58" height="58" viewBox="0 0 58 58" fill="none" xmlns="http://www.w3.org/2000/svg">
<path d="M28.8437 57.8281C44.7737 57.8281 57.6874 44.8828 57.6874 28.9141C57.6874 12.9453 44.7737 0 28.8437 0C12.9138 0 0 12.9453 0 28.9141C0 44.8828 12.9138 57.8281 28.8437 57.8281Z" fill="black"/>
<path d="M41.9426 20.3589C41.5036 20.1544 40.9935 20.217 40.6099 20.5216L36.6584 23.6668C36.2563 21.7457 34.5158 20.2949 32.4356 20.2949H18.7314C16.3543 20.2949 14.4219 22.1881 14.4219 24.5139V33.3151C14.4219 35.6423 16.3557 37.5342 18.7314 37.5342H32.4356C34.5158 37.5342 36.2563 36.0847 36.6584 34.1623L40.6099 37.306C40.8443 37.4924 41.1256 37.5884 41.4084 37.5884C41.5888 37.5884 41.7707 37.5495 41.9426 37.4702C42.4271 37.2448 42.7412 36.7315 42.7412 36.1626V21.6637C42.7412 21.0961 42.4271 20.5828 41.9426 20.3561V20.3589ZM35.1864 33.3165C35.1864 34.8008 33.9531 36.0096 32.4356 36.0096H18.7314C17.2153 36.0096 15.9806 34.8021 15.9806 33.3165V24.5153C15.9806 23.0311 17.2139 21.8222 18.7314 21.8222H32.4356C33.9517 21.8222 35.1864 23.0297 35.1864 24.5153V33.3165ZM41.181 35.7954L36.7465 32.2663V25.5642L41.1825 22.0351V35.7954H41.181Z" fill="white"/>
</svg>
