<svg width="58" height="58" viewBox="0 0 58 58" fill="none" xmlns="http://www.w3.org/2000/svg">
<path d="M28.8641 57.8281C44.8053 57.8281 57.7283 44.8828 57.7283 28.9141C57.7283 12.9453 44.8053 0 28.8641 0C12.9229 0 0 12.9453 0 28.9141C0 44.8828 12.9229 57.8281 28.8641 57.8281Z" fill="black"/>
<path d="M25.8032 29.1222C25.8032 30.9237 27.2539 32.378 29.0511 32.378C30.8482 32.378 32.2989 30.9237 32.2989 29.1222C32.2989 27.3207 30.8482 25.8665 29.0511 25.8665C27.2539 25.8665 25.8032 27.3207 25.8032 29.1222Z" fill="white"/>
<path d="M24.7208 25.8665C24.7208 25.2696 24.2336 24.7813 23.6381 24.7813H21.5704C23.0644 22.1875 25.8575 20.4403 29.0512 20.4403C32.8295 20.4403 36.034 22.8712 37.2141 26.2572C37.3656 26.6805 37.7878 26.9518 38.2317 26.9518C38.9679 26.9518 39.5092 26.2247 39.271 25.5301C37.7878 21.2976 33.7714 18.2698 29.0512 18.2698C25.5111 18.2698 22.3607 19.9845 20.3903 22.6216V21.5255C20.3903 20.9286 19.9031 20.4403 19.3077 20.4403C18.7123 20.4403 18.2251 20.9286 18.2251 21.5255V25.8665C18.2251 26.4634 18.7123 26.9518 19.3077 26.9518H23.6381C24.2336 26.9518 24.7208 26.4634 24.7208 25.8665Z" fill="white"/>
<path d="M33.3816 32.378C33.3816 32.9749 33.8687 33.4632 34.4642 33.4632H36.5319C35.0379 36.057 32.2448 37.8042 29.0511 37.8042C25.2728 37.8042 22.0683 35.3733 20.8882 31.9873C20.7367 31.564 20.3145 31.2927 19.8706 31.2927C19.1344 31.2927 18.5931 32.0198 18.8313 32.7144C20.3145 36.9469 24.3309 39.9747 29.0511 39.9747C32.5912 39.9747 35.7416 38.26 37.712 35.6229V36.719C37.712 37.3159 38.1992 37.8042 38.7946 37.8042C39.39 37.8042 39.8772 37.3159 39.8772 36.719V32.378C39.8772 31.7811 39.39 31.2927 38.7946 31.2927H34.4642C33.8687 31.2927 33.3816 31.7811 33.3816 32.378Z" fill="white"/>
</svg>
