<svg width="58" height="58" viewBox="0 0 58 58" fill="none" xmlns="http://www.w3.org/2000/svg">
<path d="M28.8641 57.8281C44.8053 57.8281 57.7283 44.8828 57.7283 28.9141C57.7283 12.9453 44.8053 0 28.8641 0C12.9229 0 0 12.9453 0 28.9141C0 44.8828 12.9229 57.8281 28.8641 57.8281Z" fill="black"/>
<path d="M41.7727 25.0332C38.3516 22.715 34.2138 22.5645 34.0391 22.5593C34.0327 22.5593 34.025 22.5593 34.0186 22.5593H23.7114C23.705 22.5593 23.6973 22.5593 23.6909 22.5593C23.5162 22.5645 19.3785 22.715 15.9573 25.0332C13.6688 26.5833 12.3037 29.2488 12.3037 32.1613C12.3037 33.8749 13.6958 35.2694 15.4064 35.2694H17.9633C20.3648 35.2694 22.5069 33.7424 23.2954 31.4705C23.5304 30.7938 24.1648 30.3423 24.8788 30.3423C24.8839 30.3423 24.8878 30.3423 24.8929 30.3423L27.785 30.3654C27.8364 30.377 27.889 30.3809 27.9404 30.3822L28.8612 30.3745L29.7935 30.3822C29.8474 30.3822 29.8988 30.377 29.9489 30.3654L32.841 30.3423C32.841 30.3423 32.85 30.3423 32.8551 30.3423C33.5691 30.3423 34.2048 30.7938 34.4385 31.4705C35.2258 33.7424 37.3691 35.2694 39.7706 35.2694H42.3275C44.0381 35.2694 45.4302 33.8749 45.4302 32.1613C45.4302 29.2488 44.0638 26.5846 41.7766 25.0332H41.7727ZM42.3249 33.8569H39.768C37.9663 33.8569 36.3584 32.7119 35.7677 31.0061C35.3362 29.7608 34.1663 28.9285 32.8525 28.9285C32.8435 28.9285 32.8358 28.9285 32.8268 28.9285L29.7909 28.9529C29.7447 28.9529 29.6998 28.9581 29.6574 28.9671L28.8586 28.9607L28.0714 28.9671C28.0277 28.9581 27.9828 28.9542 27.9378 28.9529L24.9019 28.9285C23.5792 28.9195 22.3964 29.7531 21.9611 31.0061C21.3703 32.7106 19.7625 33.8569 17.9607 33.8569H15.4038C14.4702 33.8569 13.7112 33.0966 13.7112 32.1613C13.7112 29.7184 14.8452 27.4903 16.7458 26.2025C19.7522 24.1648 23.5227 23.9783 23.7243 23.9706H34.0057C34.2138 23.9796 37.9804 24.1674 40.9842 26.2025C42.8849 27.4903 44.0188 29.7184 44.0188 32.1613C44.0188 33.0966 43.2598 33.8569 42.3262 33.8569H42.3249Z" fill="white"/>
</svg>
