<svg width="58" height="58" viewBox="0 0 58 58" fill="none" xmlns="http://www.w3.org/2000/svg">
<path d="M28.8437 57.8281C44.7737 57.8281 57.6874 44.8828 57.6874 28.9141C57.6874 12.9453 44.7737 0 28.8437 0C12.9138 0 0 12.9453 0 28.9141C0 44.8828 12.9138 57.8281 28.8437 57.8281Z" fill="black"/>
<path d="M28.8436 32.9819C25.747 32.9819 23.2266 30.4566 23.2266 27.3511V21.4811C23.2266 18.3769 25.7457 15.8503 28.8436 15.8503C31.9415 15.8503 34.4607 18.3756 34.4607 21.4811V27.3511C34.4607 30.4553 31.9415 32.9819 28.8436 32.9819V32.9819ZM28.8436 17.2629C26.5234 17.2629 24.6356 19.1552 24.6356 21.4811V27.3511C24.6356 29.677 26.5234 31.5694 28.8436 31.5694C31.1638 31.5694 33.0516 29.677 33.0516 27.3511V21.4811C33.0516 19.1552 31.1638 17.2629 28.8436 17.2629V17.2629Z" fill="white"/>
<path d="M36.5216 23.7957C36.0647 23.7957 35.6952 24.1661 35.6952 24.6241V27.5315C35.6952 31.3188 32.6216 34.3985 28.8436 34.3985C25.0655 34.3985 21.9932 31.3175 21.9932 27.5315V24.6241C21.9932 24.1661 21.6236 23.7957 21.1668 23.7957C20.7099 23.7957 20.3403 24.1661 20.3403 24.6241V27.5315C20.3403 31.953 23.7154 35.5975 28.0184 36.0156V40.3161H25.3119C24.855 40.3161 24.4854 40.6866 24.4854 41.1446C24.4854 41.6026 24.855 41.9731 25.3119 41.9731H32.3804C32.8372 41.9731 33.2068 41.6026 33.2068 41.1446C33.2068 40.6866 32.8372 40.3161 32.3804 40.3161H29.6739V36.0156C33.9768 35.5975 37.3519 31.9517 37.3519 27.5315V24.6241C37.3519 24.1661 36.9823 23.7957 36.5255 23.7957H36.5216Z" fill="white"/>
</svg>
