<svg width="58" height="58" viewBox="0 0 58 58" fill="none" xmlns="http://www.w3.org/2000/svg">
<path d="M28.8845 57.8281C44.8145 57.8281 57.7191 44.8828 57.7078 28.914C57.6966 12.9453 44.7737 0 28.8437 0C12.9138 0 0.00913619 12.9453 0.0204063 28.914C0.0316763 44.8828 12.9546 57.8281 28.8845 57.8281Z" fill="white"/>
<path d="M31.7115 19.0584C31.2393 18.7534 30.6516 18.7098 30.1396 18.9414L21.8638 22.6943H17.8501C17.071 22.6943 16.436 23.3292 16.436 24.1109V32.9935C16.436 33.774 17.0698 34.4101 17.8501 34.4101H21.8638L30.1396 38.163C30.3571 38.2614 30.5894 38.3112 30.8193 38.3112C31.13 38.3112 31.4394 38.2228 31.7115 38.0473C32.1837 37.7423 32.4658 37.2245 32.4658 36.6606V20.4438C32.4658 19.8812 32.1837 19.3633 31.7115 19.0571V19.0584ZM17.7992 32.9935V24.1109C17.7992 24.0835 17.8216 24.0611 17.8489 24.0611H21.3406V33.0446H17.8489C17.8216 33.0446 17.7992 33.0222 17.7992 32.9948V32.9935ZM31.1014 36.6594C31.1014 36.7938 31.0206 36.866 30.9722 36.8971C30.9237 36.9282 30.8243 36.973 30.7025 36.917L22.705 33.291V23.8121L30.7025 20.1861C30.8255 20.1301 30.9237 20.1749 30.9722 20.2061C31.0206 20.2372 31.1014 20.3094 31.1014 20.4438V36.6594V36.6594Z" fill="black"/>
<path d="M37.8827 21.4457C37.6665 21.2079 37.2999 21.1918 37.0625 21.4071C36.8252 21.6237 36.8078 21.9909 37.024 22.2286C40.4375 25.9866 40.4375 31.6553 37.024 35.4132C36.8091 35.651 36.8252 36.0182 37.0625 36.2347C37.1731 36.3356 37.3136 36.3866 37.4527 36.3866C37.6105 36.3866 37.7671 36.3231 37.8814 36.1962C39.718 34.1747 40.7295 31.5557 40.7295 28.8209C40.7295 26.0862 39.718 23.4684 37.8814 21.4469L37.8827 21.4457Z" fill="black"/>
<path d="M35.3949 24.1456C35.1787 23.9079 34.8121 23.8917 34.5748 24.107C34.3374 24.3236 34.32 24.6908 34.5362 24.9286C36.5518 27.1468 36.5518 30.4939 34.5362 32.7121C34.3213 32.9499 34.3374 33.3171 34.5748 33.5337C34.6853 33.6345 34.8258 33.6855 34.9649 33.6855C35.1228 33.6855 35.2793 33.622 35.3936 33.4951C37.8143 30.83 37.8143 26.8119 35.3936 24.1469L35.3949 24.1456Z" fill="black"/>
<path d="M42.9458 18L15.0464 39.7169" stroke="#FF001A" stroke-width="3" stroke-linecap="round"/>
</svg>
